M48
;DRILL file {KiCad 5.0.2-bee76a0~70~ubuntu16.04.1} date nie, 9 cze 2019, 20:50:33
;FORMAT={-:-/ absolute / metric / decimal}
FMAT,2
METRIC,TZ
T1C0.400
T2C0.800
T3C1.000
%
G90
G05
T1
X37.465Y-85.09
X38.735Y-88.265
X40.64Y-94.615
X43.18Y-79.375
X48.26Y-69.215
X52.07Y-69.215
X54.61Y-66.675
X57.15Y-69.215
X58.42Y-74.295
X59.69Y-66.675
X59.69Y-69.215
X62.23Y-66.675
X62.23Y-69.215
X64.77Y-66.675
X64.77Y-69.215
X67.31Y-66.675
X67.31Y-69.215
X69.85Y-66.675
X69.85Y-69.215
X72.39Y-66.675
X74.93Y-62.865
X77.47Y-60.96
X77.47Y-64.135
X80.01Y-60.96
X80.01Y-65.405
X80.01Y-67.945
X82.55Y-65.405
X85.09Y-62.865
X97.79Y-61.595
T2
X45.085Y-76.835
X45.085Y-92.075
X47.625Y-76.835
X47.625Y-92.075
X50.165Y-76.835
X50.165Y-92.075
X52.705Y-76.835
X52.705Y-92.075
X55.245Y-76.835
X55.245Y-92.075
X57.785Y-76.835
X57.785Y-92.075
X60.325Y-76.835
X60.325Y-92.075
X62.865Y-76.835
X62.865Y-92.075
X65.405Y-76.835
X65.405Y-92.075
X67.945Y-76.835
X67.945Y-92.075
X70.485Y-76.835
X70.485Y-92.075
X73.025Y-76.835
X73.025Y-92.075
X75.565Y-76.835
X75.565Y-92.075
X78.105Y-76.835
X78.105Y-92.075
X80.645Y-76.835
X80.645Y-92.075
X83.185Y-76.835
X83.185Y-92.075
X85.725Y-76.835
X85.725Y-92.075
X88.265Y-76.835
X88.265Y-92.075
X90.805Y-76.835
X90.805Y-92.075
X93.345Y-76.835
X93.345Y-92.075
X46.99Y-57.15
X46.99Y-72.39
X49.53Y-57.15
X49.53Y-72.39
X52.07Y-57.15
X52.07Y-72.39
X54.61Y-57.15
X54.61Y-72.39
X57.15Y-57.15
X57.15Y-72.39
X59.69Y-57.15
X59.69Y-72.39
X62.23Y-57.15
X62.23Y-72.39
X64.77Y-57.15
X64.77Y-72.39
X67.31Y-57.15
X67.31Y-72.39
X69.85Y-57.15
X69.85Y-72.39
X72.39Y-57.15
X72.39Y-72.39
X74.93Y-57.15
X74.93Y-72.39
X77.47Y-57.15
X77.47Y-72.39
X80.01Y-57.15
X80.01Y-72.39
X82.55Y-57.15
X82.55Y-72.39
X85.09Y-57.15
X85.09Y-72.39
X87.63Y-57.15
X87.63Y-72.39
X90.17Y-57.15
X90.17Y-72.39
X92.71Y-57.15
X92.71Y-72.39
X95.25Y-57.15
X95.25Y-72.39
T3
X39.37Y-57.15
X39.37Y-59.69
X39.37Y-62.23
X39.37Y-64.77
X39.37Y-67.31
X39.37Y-69.85
X41.91Y-57.15
X41.91Y-59.69
X41.91Y-62.23
X41.91Y-64.77
X41.91Y-67.31
X41.91Y-69.85
X57.15Y-52.07
X59.69Y-52.07
X62.23Y-52.07
X64.77Y-52.07
X67.31Y-52.07
X69.85Y-52.07
X72.39Y-52.07
X74.93Y-52.07
X46.99Y-80.645
X49.53Y-80.645
X52.07Y-80.645
X54.61Y-80.645
X57.15Y-80.645
X59.69Y-80.645
X62.23Y-80.645
X64.77Y-80.645
X67.31Y-80.645
X69.85Y-80.645
X72.39Y-80.645
X74.93Y-80.645
X77.47Y-80.645
X80.01Y-80.645
X82.55Y-80.645
X85.09Y-80.645
X87.63Y-80.645
X90.17Y-80.645
X92.71Y-80.645
X95.25Y-80.645
X99.695Y-77.47
X99.695Y-80.01
X99.695Y-82.55
X99.695Y-85.09
X99.695Y-87.63
X99.695Y-90.17
X99.695Y-92.71
X99.695Y-95.25
X102.235Y-77.47
X102.235Y-80.01
X102.235Y-82.55
X102.235Y-85.09
X102.235Y-87.63
X102.235Y-90.17
X102.235Y-92.71
X102.235Y-95.25
X102.235Y-57.15
X102.235Y-59.69
X102.235Y-62.23
X81.915Y-52.07
X84.455Y-52.07
X86.995Y-52.07
X89.535Y-52.07
X92.075Y-52.07
X94.615Y-52.07
X97.155Y-52.07
X99.695Y-52.07
X46.99Y-95.885
X49.53Y-95.885
X52.07Y-95.885
X54.61Y-95.885
X57.15Y-95.885
X59.69Y-95.885
X62.23Y-95.885
X64.77Y-95.885
X67.31Y-95.885
X69.85Y-95.885
X72.39Y-95.885
X74.93Y-95.885
X77.47Y-95.885
X80.01Y-95.885
X82.55Y-95.885
X85.09Y-95.885
X87.63Y-95.885
X90.17Y-95.885
X92.71Y-95.885
X95.25Y-95.885
X99.695Y-69.85
X99.695Y-72.39
X102.235Y-69.85
X102.235Y-72.39
X44.45Y-52.07
X46.99Y-52.07
X49.53Y-52.07
T0
M30
