G04 #@! TF.GenerationSoftware,KiCad,Pcbnew,5.0.2-bee76a0~70~ubuntu16.04.1*
G04 #@! TF.CreationDate,2019-06-09T20:50:42+02:00*
G04 #@! TF.ProjectId,VIAxe,56494178-652e-46b6-9963-61645f706362,rev?*
G04 #@! TF.SameCoordinates,Original*
G04 #@! TF.FileFunction,Paste,Top*
G04 #@! TF.FilePolarity,Positive*
%FSLAX46Y46*%
G04 Gerber Fmt 4.6, Leading zero omitted, Abs format (unit mm)*
G04 Created by KiCad (PCBNEW 5.0.2-bee76a0~70~ubuntu16.04.1) date nie, 9 cze 2019, 20:50:42*
%MOMM*%
%LPD*%
G01*
G04 APERTURE LIST*
%ADD10C,0.100000*%
%ADD11C,1.250000*%
%ADD12R,1.300000X0.800000*%
G04 APERTURE END LIST*
D10*
G04 #@! TO.C,C1*
G36*
X95899504Y-67451204D02*
X95923773Y-67454804D01*
X95947571Y-67460765D01*
X95970671Y-67469030D01*
X95992849Y-67479520D01*
X96013893Y-67492133D01*
X96033598Y-67506747D01*
X96051777Y-67523223D01*
X96068253Y-67541402D01*
X96082867Y-67561107D01*
X96095480Y-67582151D01*
X96105970Y-67604329D01*
X96114235Y-67627429D01*
X96120196Y-67651227D01*
X96123796Y-67675496D01*
X96125000Y-67700000D01*
X96125000Y-68450000D01*
X96123796Y-68474504D01*
X96120196Y-68498773D01*
X96114235Y-68522571D01*
X96105970Y-68545671D01*
X96095480Y-68567849D01*
X96082867Y-68588893D01*
X96068253Y-68608598D01*
X96051777Y-68626777D01*
X96033598Y-68643253D01*
X96013893Y-68657867D01*
X95992849Y-68670480D01*
X95970671Y-68680970D01*
X95947571Y-68689235D01*
X95923773Y-68695196D01*
X95899504Y-68698796D01*
X95875000Y-68700000D01*
X94625000Y-68700000D01*
X94600496Y-68698796D01*
X94576227Y-68695196D01*
X94552429Y-68689235D01*
X94529329Y-68680970D01*
X94507151Y-68670480D01*
X94486107Y-68657867D01*
X94466402Y-68643253D01*
X94448223Y-68626777D01*
X94431747Y-68608598D01*
X94417133Y-68588893D01*
X94404520Y-68567849D01*
X94394030Y-68545671D01*
X94385765Y-68522571D01*
X94379804Y-68498773D01*
X94376204Y-68474504D01*
X94375000Y-68450000D01*
X94375000Y-67700000D01*
X94376204Y-67675496D01*
X94379804Y-67651227D01*
X94385765Y-67627429D01*
X94394030Y-67604329D01*
X94404520Y-67582151D01*
X94417133Y-67561107D01*
X94431747Y-67541402D01*
X94448223Y-67523223D01*
X94466402Y-67506747D01*
X94486107Y-67492133D01*
X94507151Y-67479520D01*
X94529329Y-67469030D01*
X94552429Y-67460765D01*
X94576227Y-67454804D01*
X94600496Y-67451204D01*
X94625000Y-67450000D01*
X95875000Y-67450000D01*
X95899504Y-67451204D01*
X95899504Y-67451204D01*
G37*
D11*
X95250000Y-68075000D03*
D10*
G36*
X95899504Y-64651204D02*
X95923773Y-64654804D01*
X95947571Y-64660765D01*
X95970671Y-64669030D01*
X95992849Y-64679520D01*
X96013893Y-64692133D01*
X96033598Y-64706747D01*
X96051777Y-64723223D01*
X96068253Y-64741402D01*
X96082867Y-64761107D01*
X96095480Y-64782151D01*
X96105970Y-64804329D01*
X96114235Y-64827429D01*
X96120196Y-64851227D01*
X96123796Y-64875496D01*
X96125000Y-64900000D01*
X96125000Y-65650000D01*
X96123796Y-65674504D01*
X96120196Y-65698773D01*
X96114235Y-65722571D01*
X96105970Y-65745671D01*
X96095480Y-65767849D01*
X96082867Y-65788893D01*
X96068253Y-65808598D01*
X96051777Y-65826777D01*
X96033598Y-65843253D01*
X96013893Y-65857867D01*
X95992849Y-65870480D01*
X95970671Y-65880970D01*
X95947571Y-65889235D01*
X95923773Y-65895196D01*
X95899504Y-65898796D01*
X95875000Y-65900000D01*
X94625000Y-65900000D01*
X94600496Y-65898796D01*
X94576227Y-65895196D01*
X94552429Y-65889235D01*
X94529329Y-65880970D01*
X94507151Y-65870480D01*
X94486107Y-65857867D01*
X94466402Y-65843253D01*
X94448223Y-65826777D01*
X94431747Y-65808598D01*
X94417133Y-65788893D01*
X94404520Y-65767849D01*
X94394030Y-65745671D01*
X94385765Y-65722571D01*
X94379804Y-65698773D01*
X94376204Y-65674504D01*
X94375000Y-65650000D01*
X94375000Y-64900000D01*
X94376204Y-64875496D01*
X94379804Y-64851227D01*
X94385765Y-64827429D01*
X94394030Y-64804329D01*
X94404520Y-64782151D01*
X94417133Y-64761107D01*
X94431747Y-64741402D01*
X94448223Y-64723223D01*
X94466402Y-64706747D01*
X94486107Y-64692133D01*
X94507151Y-64679520D01*
X94529329Y-64669030D01*
X94552429Y-64660765D01*
X94576227Y-64654804D01*
X94600496Y-64651204D01*
X94625000Y-64650000D01*
X95875000Y-64650000D01*
X95899504Y-64651204D01*
X95899504Y-64651204D01*
G37*
D11*
X95250000Y-65275000D03*
G04 #@! TD*
D10*
G04 #@! TO.C,C2*
G36*
X36464504Y-93741204D02*
X36488773Y-93744804D01*
X36512571Y-93750765D01*
X36535671Y-93759030D01*
X36557849Y-93769520D01*
X36578893Y-93782133D01*
X36598598Y-93796747D01*
X36616777Y-93813223D01*
X36633253Y-93831402D01*
X36647867Y-93851107D01*
X36660480Y-93872151D01*
X36670970Y-93894329D01*
X36679235Y-93917429D01*
X36685196Y-93941227D01*
X36688796Y-93965496D01*
X36690000Y-93990000D01*
X36690000Y-95240000D01*
X36688796Y-95264504D01*
X36685196Y-95288773D01*
X36679235Y-95312571D01*
X36670970Y-95335671D01*
X36660480Y-95357849D01*
X36647867Y-95378893D01*
X36633253Y-95398598D01*
X36616777Y-95416777D01*
X36598598Y-95433253D01*
X36578893Y-95447867D01*
X36557849Y-95460480D01*
X36535671Y-95470970D01*
X36512571Y-95479235D01*
X36488773Y-95485196D01*
X36464504Y-95488796D01*
X36440000Y-95490000D01*
X35690000Y-95490000D01*
X35665496Y-95488796D01*
X35641227Y-95485196D01*
X35617429Y-95479235D01*
X35594329Y-95470970D01*
X35572151Y-95460480D01*
X35551107Y-95447867D01*
X35531402Y-95433253D01*
X35513223Y-95416777D01*
X35496747Y-95398598D01*
X35482133Y-95378893D01*
X35469520Y-95357849D01*
X35459030Y-95335671D01*
X35450765Y-95312571D01*
X35444804Y-95288773D01*
X35441204Y-95264504D01*
X35440000Y-95240000D01*
X35440000Y-93990000D01*
X35441204Y-93965496D01*
X35444804Y-93941227D01*
X35450765Y-93917429D01*
X35459030Y-93894329D01*
X35469520Y-93872151D01*
X35482133Y-93851107D01*
X35496747Y-93831402D01*
X35513223Y-93813223D01*
X35531402Y-93796747D01*
X35551107Y-93782133D01*
X35572151Y-93769520D01*
X35594329Y-93759030D01*
X35617429Y-93750765D01*
X35641227Y-93744804D01*
X35665496Y-93741204D01*
X35690000Y-93740000D01*
X36440000Y-93740000D01*
X36464504Y-93741204D01*
X36464504Y-93741204D01*
G37*
D11*
X36065000Y-94615000D03*
D10*
G36*
X39264504Y-93741204D02*
X39288773Y-93744804D01*
X39312571Y-93750765D01*
X39335671Y-93759030D01*
X39357849Y-93769520D01*
X39378893Y-93782133D01*
X39398598Y-93796747D01*
X39416777Y-93813223D01*
X39433253Y-93831402D01*
X39447867Y-93851107D01*
X39460480Y-93872151D01*
X39470970Y-93894329D01*
X39479235Y-93917429D01*
X39485196Y-93941227D01*
X39488796Y-93965496D01*
X39490000Y-93990000D01*
X39490000Y-95240000D01*
X39488796Y-95264504D01*
X39485196Y-95288773D01*
X39479235Y-95312571D01*
X39470970Y-95335671D01*
X39460480Y-95357849D01*
X39447867Y-95378893D01*
X39433253Y-95398598D01*
X39416777Y-95416777D01*
X39398598Y-95433253D01*
X39378893Y-95447867D01*
X39357849Y-95460480D01*
X39335671Y-95470970D01*
X39312571Y-95479235D01*
X39288773Y-95485196D01*
X39264504Y-95488796D01*
X39240000Y-95490000D01*
X38490000Y-95490000D01*
X38465496Y-95488796D01*
X38441227Y-95485196D01*
X38417429Y-95479235D01*
X38394329Y-95470970D01*
X38372151Y-95460480D01*
X38351107Y-95447867D01*
X38331402Y-95433253D01*
X38313223Y-95416777D01*
X38296747Y-95398598D01*
X38282133Y-95378893D01*
X38269520Y-95357849D01*
X38259030Y-95335671D01*
X38250765Y-95312571D01*
X38244804Y-95288773D01*
X38241204Y-95264504D01*
X38240000Y-95240000D01*
X38240000Y-93990000D01*
X38241204Y-93965496D01*
X38244804Y-93941227D01*
X38250765Y-93917429D01*
X38259030Y-93894329D01*
X38269520Y-93872151D01*
X38282133Y-93851107D01*
X38296747Y-93831402D01*
X38313223Y-93813223D01*
X38331402Y-93796747D01*
X38351107Y-93782133D01*
X38372151Y-93769520D01*
X38394329Y-93759030D01*
X38417429Y-93750765D01*
X38441227Y-93744804D01*
X38465496Y-93741204D01*
X38490000Y-93740000D01*
X39240000Y-93740000D01*
X39264504Y-93741204D01*
X39264504Y-93741204D01*
G37*
D11*
X38865000Y-94615000D03*
G04 #@! TD*
D10*
G04 #@! TO.C,C3*
G36*
X45354504Y-82946204D02*
X45378773Y-82949804D01*
X45402571Y-82955765D01*
X45425671Y-82964030D01*
X45447849Y-82974520D01*
X45468893Y-82987133D01*
X45488598Y-83001747D01*
X45506777Y-83018223D01*
X45523253Y-83036402D01*
X45537867Y-83056107D01*
X45550480Y-83077151D01*
X45560970Y-83099329D01*
X45569235Y-83122429D01*
X45575196Y-83146227D01*
X45578796Y-83170496D01*
X45580000Y-83195000D01*
X45580000Y-84445000D01*
X45578796Y-84469504D01*
X45575196Y-84493773D01*
X45569235Y-84517571D01*
X45560970Y-84540671D01*
X45550480Y-84562849D01*
X45537867Y-84583893D01*
X45523253Y-84603598D01*
X45506777Y-84621777D01*
X45488598Y-84638253D01*
X45468893Y-84652867D01*
X45447849Y-84665480D01*
X45425671Y-84675970D01*
X45402571Y-84684235D01*
X45378773Y-84690196D01*
X45354504Y-84693796D01*
X45330000Y-84695000D01*
X44580000Y-84695000D01*
X44555496Y-84693796D01*
X44531227Y-84690196D01*
X44507429Y-84684235D01*
X44484329Y-84675970D01*
X44462151Y-84665480D01*
X44441107Y-84652867D01*
X44421402Y-84638253D01*
X44403223Y-84621777D01*
X44386747Y-84603598D01*
X44372133Y-84583893D01*
X44359520Y-84562849D01*
X44349030Y-84540671D01*
X44340765Y-84517571D01*
X44334804Y-84493773D01*
X44331204Y-84469504D01*
X44330000Y-84445000D01*
X44330000Y-83195000D01*
X44331204Y-83170496D01*
X44334804Y-83146227D01*
X44340765Y-83122429D01*
X44349030Y-83099329D01*
X44359520Y-83077151D01*
X44372133Y-83056107D01*
X44386747Y-83036402D01*
X44403223Y-83018223D01*
X44421402Y-83001747D01*
X44441107Y-82987133D01*
X44462151Y-82974520D01*
X44484329Y-82964030D01*
X44507429Y-82955765D01*
X44531227Y-82949804D01*
X44555496Y-82946204D01*
X44580000Y-82945000D01*
X45330000Y-82945000D01*
X45354504Y-82946204D01*
X45354504Y-82946204D01*
G37*
D11*
X44955000Y-83820000D03*
D10*
G36*
X48154504Y-82946204D02*
X48178773Y-82949804D01*
X48202571Y-82955765D01*
X48225671Y-82964030D01*
X48247849Y-82974520D01*
X48268893Y-82987133D01*
X48288598Y-83001747D01*
X48306777Y-83018223D01*
X48323253Y-83036402D01*
X48337867Y-83056107D01*
X48350480Y-83077151D01*
X48360970Y-83099329D01*
X48369235Y-83122429D01*
X48375196Y-83146227D01*
X48378796Y-83170496D01*
X48380000Y-83195000D01*
X48380000Y-84445000D01*
X48378796Y-84469504D01*
X48375196Y-84493773D01*
X48369235Y-84517571D01*
X48360970Y-84540671D01*
X48350480Y-84562849D01*
X48337867Y-84583893D01*
X48323253Y-84603598D01*
X48306777Y-84621777D01*
X48288598Y-84638253D01*
X48268893Y-84652867D01*
X48247849Y-84665480D01*
X48225671Y-84675970D01*
X48202571Y-84684235D01*
X48178773Y-84690196D01*
X48154504Y-84693796D01*
X48130000Y-84695000D01*
X47380000Y-84695000D01*
X47355496Y-84693796D01*
X47331227Y-84690196D01*
X47307429Y-84684235D01*
X47284329Y-84675970D01*
X47262151Y-84665480D01*
X47241107Y-84652867D01*
X47221402Y-84638253D01*
X47203223Y-84621777D01*
X47186747Y-84603598D01*
X47172133Y-84583893D01*
X47159520Y-84562849D01*
X47149030Y-84540671D01*
X47140765Y-84517571D01*
X47134804Y-84493773D01*
X47131204Y-84469504D01*
X47130000Y-84445000D01*
X47130000Y-83195000D01*
X47131204Y-83170496D01*
X47134804Y-83146227D01*
X47140765Y-83122429D01*
X47149030Y-83099329D01*
X47159520Y-83077151D01*
X47172133Y-83056107D01*
X47186747Y-83036402D01*
X47203223Y-83018223D01*
X47221402Y-83001747D01*
X47241107Y-82987133D01*
X47262151Y-82974520D01*
X47284329Y-82964030D01*
X47307429Y-82955765D01*
X47331227Y-82949804D01*
X47355496Y-82946204D01*
X47380000Y-82945000D01*
X48130000Y-82945000D01*
X48154504Y-82946204D01*
X48154504Y-82946204D01*
G37*
D11*
X47755000Y-83820000D03*
G04 #@! TD*
D10*
G04 #@! TO.C,R1*
G36*
X41289504Y-77611204D02*
X41313773Y-77614804D01*
X41337571Y-77620765D01*
X41360671Y-77629030D01*
X41382849Y-77639520D01*
X41403893Y-77652133D01*
X41423598Y-77666747D01*
X41441777Y-77683223D01*
X41458253Y-77701402D01*
X41472867Y-77721107D01*
X41485480Y-77742151D01*
X41495970Y-77764329D01*
X41504235Y-77787429D01*
X41510196Y-77811227D01*
X41513796Y-77835496D01*
X41515000Y-77860000D01*
X41515000Y-78610000D01*
X41513796Y-78634504D01*
X41510196Y-78658773D01*
X41504235Y-78682571D01*
X41495970Y-78705671D01*
X41485480Y-78727849D01*
X41472867Y-78748893D01*
X41458253Y-78768598D01*
X41441777Y-78786777D01*
X41423598Y-78803253D01*
X41403893Y-78817867D01*
X41382849Y-78830480D01*
X41360671Y-78840970D01*
X41337571Y-78849235D01*
X41313773Y-78855196D01*
X41289504Y-78858796D01*
X41265000Y-78860000D01*
X40015000Y-78860000D01*
X39990496Y-78858796D01*
X39966227Y-78855196D01*
X39942429Y-78849235D01*
X39919329Y-78840970D01*
X39897151Y-78830480D01*
X39876107Y-78817867D01*
X39856402Y-78803253D01*
X39838223Y-78786777D01*
X39821747Y-78768598D01*
X39807133Y-78748893D01*
X39794520Y-78727849D01*
X39784030Y-78705671D01*
X39775765Y-78682571D01*
X39769804Y-78658773D01*
X39766204Y-78634504D01*
X39765000Y-78610000D01*
X39765000Y-77860000D01*
X39766204Y-77835496D01*
X39769804Y-77811227D01*
X39775765Y-77787429D01*
X39784030Y-77764329D01*
X39794520Y-77742151D01*
X39807133Y-77721107D01*
X39821747Y-77701402D01*
X39838223Y-77683223D01*
X39856402Y-77666747D01*
X39876107Y-77652133D01*
X39897151Y-77639520D01*
X39919329Y-77629030D01*
X39942429Y-77620765D01*
X39966227Y-77614804D01*
X39990496Y-77611204D01*
X40015000Y-77610000D01*
X41265000Y-77610000D01*
X41289504Y-77611204D01*
X41289504Y-77611204D01*
G37*
D11*
X40640000Y-78235000D03*
D10*
G36*
X41289504Y-74811204D02*
X41313773Y-74814804D01*
X41337571Y-74820765D01*
X41360671Y-74829030D01*
X41382849Y-74839520D01*
X41403893Y-74852133D01*
X41423598Y-74866747D01*
X41441777Y-74883223D01*
X41458253Y-74901402D01*
X41472867Y-74921107D01*
X41485480Y-74942151D01*
X41495970Y-74964329D01*
X41504235Y-74987429D01*
X41510196Y-75011227D01*
X41513796Y-75035496D01*
X41515000Y-75060000D01*
X41515000Y-75810000D01*
X41513796Y-75834504D01*
X41510196Y-75858773D01*
X41504235Y-75882571D01*
X41495970Y-75905671D01*
X41485480Y-75927849D01*
X41472867Y-75948893D01*
X41458253Y-75968598D01*
X41441777Y-75986777D01*
X41423598Y-76003253D01*
X41403893Y-76017867D01*
X41382849Y-76030480D01*
X41360671Y-76040970D01*
X41337571Y-76049235D01*
X41313773Y-76055196D01*
X41289504Y-76058796D01*
X41265000Y-76060000D01*
X40015000Y-76060000D01*
X39990496Y-76058796D01*
X39966227Y-76055196D01*
X39942429Y-76049235D01*
X39919329Y-76040970D01*
X39897151Y-76030480D01*
X39876107Y-76017867D01*
X39856402Y-76003253D01*
X39838223Y-75986777D01*
X39821747Y-75968598D01*
X39807133Y-75948893D01*
X39794520Y-75927849D01*
X39784030Y-75905671D01*
X39775765Y-75882571D01*
X39769804Y-75858773D01*
X39766204Y-75834504D01*
X39765000Y-75810000D01*
X39765000Y-75060000D01*
X39766204Y-75035496D01*
X39769804Y-75011227D01*
X39775765Y-74987429D01*
X39784030Y-74964329D01*
X39794520Y-74942151D01*
X39807133Y-74921107D01*
X39821747Y-74901402D01*
X39838223Y-74883223D01*
X39856402Y-74866747D01*
X39876107Y-74852133D01*
X39897151Y-74839520D01*
X39919329Y-74829030D01*
X39942429Y-74820765D01*
X39966227Y-74814804D01*
X39990496Y-74811204D01*
X40015000Y-74810000D01*
X41265000Y-74810000D01*
X41289504Y-74811204D01*
X41289504Y-74811204D01*
G37*
D11*
X40640000Y-75435000D03*
G04 #@! TD*
D12*
G04 #@! TO.C,U1*
X34315000Y-81910000D03*
X34315000Y-83190000D03*
X34315000Y-84450000D03*
X34315000Y-85720000D03*
X34315000Y-87000000D03*
X34315000Y-88270000D03*
X34315000Y-89530000D03*
X34315000Y-90810000D03*
X40615000Y-90810000D03*
X40615000Y-89530000D03*
X40615000Y-88270000D03*
X40615000Y-87000000D03*
X40615000Y-85720000D03*
X40615000Y-84450000D03*
X40615000Y-83190000D03*
X40615000Y-81910000D03*
G04 #@! TD*
M02*
