G04 #@! TF.GenerationSoftware,KiCad,Pcbnew,5.0.2-bee76a0~70~ubuntu16.04.1*
G04 #@! TF.CreationDate,2019-06-09T20:50:42+02:00*
G04 #@! TF.ProjectId,VIAxe,56494178-652e-46b6-9963-61645f706362,rev?*
G04 #@! TF.SameCoordinates,Original*
G04 #@! TF.FileFunction,Copper,L1,Top*
G04 #@! TF.FilePolarity,Positive*
%FSLAX46Y46*%
G04 Gerber Fmt 4.6, Leading zero omitted, Abs format (unit mm)*
G04 Created by KiCad (PCBNEW 5.0.2-bee76a0~70~ubuntu16.04.1) date nie, 9 cze 2019, 20:50:42*
%MOMM*%
%LPD*%
G01*
G04 APERTURE LIST*
G04 #@! TA.AperFunction,ComponentPad*
%ADD10O,1.600000X2.400000*%
G04 #@! TD*
G04 #@! TA.AperFunction,ComponentPad*
%ADD11R,1.600000X2.400000*%
G04 #@! TD*
G04 #@! TA.AperFunction,ComponentPad*
%ADD12R,1.700000X1.700000*%
G04 #@! TD*
G04 #@! TA.AperFunction,ComponentPad*
%ADD13O,1.700000X1.700000*%
G04 #@! TD*
G04 #@! TA.AperFunction,Conductor*
%ADD14C,0.100000*%
G04 #@! TD*
G04 #@! TA.AperFunction,SMDPad,CuDef*
%ADD15C,1.250000*%
G04 #@! TD*
G04 #@! TA.AperFunction,SMDPad,CuDef*
%ADD16R,1.300000X0.800000*%
G04 #@! TD*
G04 #@! TA.AperFunction,ViaPad*
%ADD17C,0.800000*%
G04 #@! TD*
G04 #@! TA.AperFunction,Conductor*
%ADD18C,0.250000*%
G04 #@! TD*
G04 #@! TA.AperFunction,Conductor*
%ADD19C,0.254000*%
G04 #@! TD*
G04 APERTURE END LIST*
D10*
G04 #@! TO.P,U2,40*
G04 #@! TO.N,CA1*
X45085000Y-76835000D03*
G04 #@! TO.P,U2,20*
G04 #@! TO.N,VCC*
X93345000Y-92075000D03*
G04 #@! TO.P,U2,39*
G04 #@! TO.N,CA2*
X47625000Y-76835000D03*
G04 #@! TO.P,U2,19*
G04 #@! TO.N,CB2*
X90805000Y-92075000D03*
G04 #@! TO.P,U2,38*
G04 #@! TO.N,/IRQA*
X50165000Y-76835000D03*
G04 #@! TO.P,U2,18*
G04 #@! TO.N,CB1*
X88265000Y-92075000D03*
G04 #@! TO.P,U2,37*
G04 #@! TO.N,/IRQB*
X52705000Y-76835000D03*
G04 #@! TO.P,U2,17*
G04 #@! TO.N,PB7*
X85725000Y-92075000D03*
G04 #@! TO.P,U2,36*
G04 #@! TO.N,A1*
X55245000Y-76835000D03*
G04 #@! TO.P,U2,16*
G04 #@! TO.N,PB6*
X83185000Y-92075000D03*
G04 #@! TO.P,U2,35*
G04 #@! TO.N,A0*
X57785000Y-76835000D03*
G04 #@! TO.P,U2,15*
G04 #@! TO.N,PB5*
X80645000Y-92075000D03*
G04 #@! TO.P,U2,34*
G04 #@! TO.N,/RESET*
X60325000Y-76835000D03*
G04 #@! TO.P,U2,14*
G04 #@! TO.N,PB4*
X78105000Y-92075000D03*
G04 #@! TO.P,U2,33*
G04 #@! TO.N,D0*
X62865000Y-76835000D03*
G04 #@! TO.P,U2,13*
G04 #@! TO.N,PB3*
X75565000Y-92075000D03*
G04 #@! TO.P,U2,32*
G04 #@! TO.N,D1*
X65405000Y-76835000D03*
G04 #@! TO.P,U2,12*
G04 #@! TO.N,PB2*
X73025000Y-92075000D03*
G04 #@! TO.P,U2,31*
G04 #@! TO.N,D2*
X67945000Y-76835000D03*
G04 #@! TO.P,U2,11*
G04 #@! TO.N,PB1*
X70485000Y-92075000D03*
G04 #@! TO.P,U2,30*
G04 #@! TO.N,D3*
X70485000Y-76835000D03*
G04 #@! TO.P,U2,10*
G04 #@! TO.N,PB0*
X67945000Y-92075000D03*
G04 #@! TO.P,U2,29*
G04 #@! TO.N,D4*
X73025000Y-76835000D03*
G04 #@! TO.P,U2,9*
G04 #@! TO.N,PA7*
X65405000Y-92075000D03*
G04 #@! TO.P,U2,28*
G04 #@! TO.N,D5*
X75565000Y-76835000D03*
G04 #@! TO.P,U2,8*
G04 #@! TO.N,PA6*
X62865000Y-92075000D03*
G04 #@! TO.P,U2,27*
G04 #@! TO.N,D6*
X78105000Y-76835000D03*
G04 #@! TO.P,U2,7*
G04 #@! TO.N,PA5*
X60325000Y-92075000D03*
G04 #@! TO.P,U2,26*
G04 #@! TO.N,D7*
X80645000Y-76835000D03*
G04 #@! TO.P,U2,6*
G04 #@! TO.N,PA4*
X57785000Y-92075000D03*
G04 #@! TO.P,U2,25*
G04 #@! TO.N,O2*
X83185000Y-76835000D03*
G04 #@! TO.P,U2,5*
G04 #@! TO.N,PA3*
X55245000Y-92075000D03*
G04 #@! TO.P,U2,24*
G04 #@! TO.N,CS1*
X85725000Y-76835000D03*
G04 #@! TO.P,U2,4*
G04 #@! TO.N,PA2*
X52705000Y-92075000D03*
G04 #@! TO.P,U2,23*
G04 #@! TO.N,/CS2B*
X88265000Y-76835000D03*
G04 #@! TO.P,U2,3*
G04 #@! TO.N,PA1*
X50165000Y-92075000D03*
G04 #@! TO.P,U2,22*
G04 #@! TO.N,CS0*
X90805000Y-76835000D03*
G04 #@! TO.P,U2,2*
G04 #@! TO.N,PA0*
X47625000Y-92075000D03*
G04 #@! TO.P,U2,21*
G04 #@! TO.N,R/W*
X93345000Y-76835000D03*
D11*
G04 #@! TO.P,U2,1*
G04 #@! TO.N,GND*
X45085000Y-92075000D03*
G04 #@! TD*
G04 #@! TO.P,U3,1*
G04 #@! TO.N,GND*
X46990000Y-72390000D03*
D10*
G04 #@! TO.P,U3,21*
G04 #@! TO.N,/IRQA*
X95250000Y-57150000D03*
G04 #@! TO.P,U3,2*
G04 #@! TO.N,VIAPA0*
X49530000Y-72390000D03*
G04 #@! TO.P,U3,22*
G04 #@! TO.N,R/W*
X92710000Y-57150000D03*
G04 #@! TO.P,U3,3*
G04 #@! TO.N,VIAPA1*
X52070000Y-72390000D03*
G04 #@! TO.P,U3,23*
G04 #@! TO.N,/VIACS2*
X90170000Y-57150000D03*
G04 #@! TO.P,U3,4*
G04 #@! TO.N,VIAPA2*
X54610000Y-72390000D03*
G04 #@! TO.P,U3,24*
G04 #@! TO.N,GND*
X87630000Y-57150000D03*
G04 #@! TO.P,U3,5*
G04 #@! TO.N,VIAPA3*
X57150000Y-72390000D03*
G04 #@! TO.P,U3,25*
G04 #@! TO.N,O2*
X85090000Y-57150000D03*
G04 #@! TO.P,U3,6*
G04 #@! TO.N,VIAPA4*
X59690000Y-72390000D03*
G04 #@! TO.P,U3,26*
G04 #@! TO.N,D7*
X82550000Y-57150000D03*
G04 #@! TO.P,U3,7*
G04 #@! TO.N,VIAPA5*
X62230000Y-72390000D03*
G04 #@! TO.P,U3,27*
G04 #@! TO.N,D6*
X80010000Y-57150000D03*
G04 #@! TO.P,U3,8*
G04 #@! TO.N,VIAPA6*
X64770000Y-72390000D03*
G04 #@! TO.P,U3,28*
G04 #@! TO.N,D5*
X77470000Y-57150000D03*
G04 #@! TO.P,U3,9*
G04 #@! TO.N,VIAPA7*
X67310000Y-72390000D03*
G04 #@! TO.P,U3,29*
G04 #@! TO.N,D4*
X74930000Y-57150000D03*
G04 #@! TO.P,U3,10*
G04 #@! TO.N,VIAPB0*
X69850000Y-72390000D03*
G04 #@! TO.P,U3,30*
G04 #@! TO.N,D3*
X72390000Y-57150000D03*
G04 #@! TO.P,U3,11*
G04 #@! TO.N,VIAPB1*
X72390000Y-72390000D03*
G04 #@! TO.P,U3,31*
G04 #@! TO.N,D2*
X69850000Y-57150000D03*
G04 #@! TO.P,U3,12*
G04 #@! TO.N,VIAPB2*
X74930000Y-72390000D03*
G04 #@! TO.P,U3,32*
G04 #@! TO.N,D1*
X67310000Y-57150000D03*
G04 #@! TO.P,U3,13*
G04 #@! TO.N,VIAPB3*
X77470000Y-72390000D03*
G04 #@! TO.P,U3,33*
G04 #@! TO.N,D0*
X64770000Y-57150000D03*
G04 #@! TO.P,U3,14*
G04 #@! TO.N,VIAPB4*
X80010000Y-72390000D03*
G04 #@! TO.P,U3,34*
G04 #@! TO.N,/RESET*
X62230000Y-57150000D03*
G04 #@! TO.P,U3,15*
G04 #@! TO.N,VIAPB5*
X82550000Y-72390000D03*
G04 #@! TO.P,U3,35*
G04 #@! TO.N,A3*
X59690000Y-57150000D03*
G04 #@! TO.P,U3,16*
G04 #@! TO.N,VIAPB6*
X85090000Y-72390000D03*
G04 #@! TO.P,U3,36*
G04 #@! TO.N,A2*
X57150000Y-57150000D03*
G04 #@! TO.P,U3,17*
G04 #@! TO.N,VIAPB7*
X87630000Y-72390000D03*
G04 #@! TO.P,U3,37*
G04 #@! TO.N,A1*
X54610000Y-57150000D03*
G04 #@! TO.P,U3,18*
G04 #@! TO.N,VIACB1*
X90170000Y-72390000D03*
G04 #@! TO.P,U3,38*
G04 #@! TO.N,A0*
X52070000Y-57150000D03*
G04 #@! TO.P,U3,19*
G04 #@! TO.N,VIACB2*
X92710000Y-72390000D03*
G04 #@! TO.P,U3,39*
G04 #@! TO.N,VIACA2*
X49530000Y-57150000D03*
G04 #@! TO.P,U3,20*
G04 #@! TO.N,VCC*
X95250000Y-72390000D03*
G04 #@! TO.P,U3,40*
G04 #@! TO.N,VIACA1*
X46990000Y-57150000D03*
G04 #@! TD*
D12*
G04 #@! TO.P,J1,1*
G04 #@! TO.N,GND*
X46990000Y-95885000D03*
D13*
G04 #@! TO.P,J1,2*
G04 #@! TO.N,PA0*
X49530000Y-95885000D03*
G04 #@! TO.P,J1,3*
G04 #@! TO.N,PA1*
X52070000Y-95885000D03*
G04 #@! TO.P,J1,4*
G04 #@! TO.N,PA2*
X54610000Y-95885000D03*
G04 #@! TO.P,J1,5*
G04 #@! TO.N,PA3*
X57150000Y-95885000D03*
G04 #@! TO.P,J1,6*
G04 #@! TO.N,PA4*
X59690000Y-95885000D03*
G04 #@! TO.P,J1,7*
G04 #@! TO.N,PA5*
X62230000Y-95885000D03*
G04 #@! TO.P,J1,8*
G04 #@! TO.N,PA6*
X64770000Y-95885000D03*
G04 #@! TO.P,J1,9*
G04 #@! TO.N,PA7*
X67310000Y-95885000D03*
G04 #@! TO.P,J1,10*
G04 #@! TO.N,PB0*
X69850000Y-95885000D03*
G04 #@! TO.P,J1,11*
G04 #@! TO.N,PB1*
X72390000Y-95885000D03*
G04 #@! TO.P,J1,12*
G04 #@! TO.N,PB2*
X74930000Y-95885000D03*
G04 #@! TO.P,J1,13*
G04 #@! TO.N,PB3*
X77470000Y-95885000D03*
G04 #@! TO.P,J1,14*
G04 #@! TO.N,PB4*
X80010000Y-95885000D03*
G04 #@! TO.P,J1,15*
G04 #@! TO.N,PB5*
X82550000Y-95885000D03*
G04 #@! TO.P,J1,16*
G04 #@! TO.N,PB6*
X85090000Y-95885000D03*
G04 #@! TO.P,J1,17*
G04 #@! TO.N,PB7*
X87630000Y-95885000D03*
G04 #@! TO.P,J1,18*
G04 #@! TO.N,CB1*
X90170000Y-95885000D03*
G04 #@! TO.P,J1,19*
G04 #@! TO.N,CB2*
X92710000Y-95885000D03*
G04 #@! TO.P,J1,20*
G04 #@! TO.N,VCC*
X95250000Y-95885000D03*
G04 #@! TD*
G04 #@! TO.P,J2,20*
G04 #@! TO.N,CA1*
X46990000Y-80645000D03*
G04 #@! TO.P,J2,19*
G04 #@! TO.N,CA2*
X49530000Y-80645000D03*
G04 #@! TO.P,J2,18*
G04 #@! TO.N,/IRQA*
X52070000Y-80645000D03*
G04 #@! TO.P,J2,17*
G04 #@! TO.N,/IRQB*
X54610000Y-80645000D03*
G04 #@! TO.P,J2,16*
G04 #@! TO.N,A1*
X57150000Y-80645000D03*
G04 #@! TO.P,J2,15*
G04 #@! TO.N,A0*
X59690000Y-80645000D03*
G04 #@! TO.P,J2,14*
G04 #@! TO.N,/RESET*
X62230000Y-80645000D03*
G04 #@! TO.P,J2,13*
G04 #@! TO.N,D0*
X64770000Y-80645000D03*
G04 #@! TO.P,J2,12*
G04 #@! TO.N,D1*
X67310000Y-80645000D03*
G04 #@! TO.P,J2,11*
G04 #@! TO.N,D2*
X69850000Y-80645000D03*
G04 #@! TO.P,J2,10*
G04 #@! TO.N,D3*
X72390000Y-80645000D03*
G04 #@! TO.P,J2,9*
G04 #@! TO.N,D4*
X74930000Y-80645000D03*
G04 #@! TO.P,J2,8*
G04 #@! TO.N,D5*
X77470000Y-80645000D03*
G04 #@! TO.P,J2,7*
G04 #@! TO.N,D6*
X80010000Y-80645000D03*
G04 #@! TO.P,J2,6*
G04 #@! TO.N,D7*
X82550000Y-80645000D03*
G04 #@! TO.P,J2,5*
G04 #@! TO.N,O2*
X85090000Y-80645000D03*
G04 #@! TO.P,J2,4*
G04 #@! TO.N,CS1*
X87630000Y-80645000D03*
G04 #@! TO.P,J2,3*
G04 #@! TO.N,/CS2B*
X90170000Y-80645000D03*
G04 #@! TO.P,J2,2*
G04 #@! TO.N,CS0*
X92710000Y-80645000D03*
D12*
G04 #@! TO.P,J2,1*
G04 #@! TO.N,R/W*
X95250000Y-80645000D03*
G04 #@! TD*
G04 #@! TO.P,J3,1*
G04 #@! TO.N,/D500*
X99695000Y-77470000D03*
D13*
G04 #@! TO.P,J3,2*
G04 #@! TO.N,/VIACS2*
X102235000Y-77470000D03*
G04 #@! TO.P,J3,3*
G04 #@! TO.N,/D520*
X99695000Y-80010000D03*
G04 #@! TO.P,J3,4*
G04 #@! TO.N,/VIACS2*
X102235000Y-80010000D03*
G04 #@! TO.P,J3,5*
G04 #@! TO.N,/D540*
X99695000Y-82550000D03*
G04 #@! TO.P,J3,6*
G04 #@! TO.N,/VIACS2*
X102235000Y-82550000D03*
G04 #@! TO.P,J3,7*
G04 #@! TO.N,/D560*
X99695000Y-85090000D03*
G04 #@! TO.P,J3,8*
G04 #@! TO.N,/VIACS2*
X102235000Y-85090000D03*
G04 #@! TO.P,J3,9*
G04 #@! TO.N,/D580*
X99695000Y-87630000D03*
G04 #@! TO.P,J3,10*
G04 #@! TO.N,/VIACS2*
X102235000Y-87630000D03*
G04 #@! TO.P,J3,11*
G04 #@! TO.N,/D5A0*
X99695000Y-90170000D03*
G04 #@! TO.P,J3,12*
G04 #@! TO.N,/VIACS2*
X102235000Y-90170000D03*
G04 #@! TO.P,J3,13*
G04 #@! TO.N,/D5C0*
X99695000Y-92710000D03*
G04 #@! TO.P,J3,14*
G04 #@! TO.N,/VIACS2*
X102235000Y-92710000D03*
G04 #@! TO.P,J3,15*
G04 #@! TO.N,/D5E0*
X99695000Y-95250000D03*
G04 #@! TO.P,J3,16*
G04 #@! TO.N,/VIACS2*
X102235000Y-95250000D03*
G04 #@! TD*
D14*
G04 #@! TO.N,VCC*
G04 #@! TO.C,C1*
G36*
X95899504Y-67451204D02*
X95923773Y-67454804D01*
X95947571Y-67460765D01*
X95970671Y-67469030D01*
X95992849Y-67479520D01*
X96013893Y-67492133D01*
X96033598Y-67506747D01*
X96051777Y-67523223D01*
X96068253Y-67541402D01*
X96082867Y-67561107D01*
X96095480Y-67582151D01*
X96105970Y-67604329D01*
X96114235Y-67627429D01*
X96120196Y-67651227D01*
X96123796Y-67675496D01*
X96125000Y-67700000D01*
X96125000Y-68450000D01*
X96123796Y-68474504D01*
X96120196Y-68498773D01*
X96114235Y-68522571D01*
X96105970Y-68545671D01*
X96095480Y-68567849D01*
X96082867Y-68588893D01*
X96068253Y-68608598D01*
X96051777Y-68626777D01*
X96033598Y-68643253D01*
X96013893Y-68657867D01*
X95992849Y-68670480D01*
X95970671Y-68680970D01*
X95947571Y-68689235D01*
X95923773Y-68695196D01*
X95899504Y-68698796D01*
X95875000Y-68700000D01*
X94625000Y-68700000D01*
X94600496Y-68698796D01*
X94576227Y-68695196D01*
X94552429Y-68689235D01*
X94529329Y-68680970D01*
X94507151Y-68670480D01*
X94486107Y-68657867D01*
X94466402Y-68643253D01*
X94448223Y-68626777D01*
X94431747Y-68608598D01*
X94417133Y-68588893D01*
X94404520Y-68567849D01*
X94394030Y-68545671D01*
X94385765Y-68522571D01*
X94379804Y-68498773D01*
X94376204Y-68474504D01*
X94375000Y-68450000D01*
X94375000Y-67700000D01*
X94376204Y-67675496D01*
X94379804Y-67651227D01*
X94385765Y-67627429D01*
X94394030Y-67604329D01*
X94404520Y-67582151D01*
X94417133Y-67561107D01*
X94431747Y-67541402D01*
X94448223Y-67523223D01*
X94466402Y-67506747D01*
X94486107Y-67492133D01*
X94507151Y-67479520D01*
X94529329Y-67469030D01*
X94552429Y-67460765D01*
X94576227Y-67454804D01*
X94600496Y-67451204D01*
X94625000Y-67450000D01*
X95875000Y-67450000D01*
X95899504Y-67451204D01*
X95899504Y-67451204D01*
G37*
D15*
G04 #@! TD*
G04 #@! TO.P,C1,1*
G04 #@! TO.N,VCC*
X95250000Y-68075000D03*
D14*
G04 #@! TO.N,GND*
G04 #@! TO.C,C1*
G36*
X95899504Y-64651204D02*
X95923773Y-64654804D01*
X95947571Y-64660765D01*
X95970671Y-64669030D01*
X95992849Y-64679520D01*
X96013893Y-64692133D01*
X96033598Y-64706747D01*
X96051777Y-64723223D01*
X96068253Y-64741402D01*
X96082867Y-64761107D01*
X96095480Y-64782151D01*
X96105970Y-64804329D01*
X96114235Y-64827429D01*
X96120196Y-64851227D01*
X96123796Y-64875496D01*
X96125000Y-64900000D01*
X96125000Y-65650000D01*
X96123796Y-65674504D01*
X96120196Y-65698773D01*
X96114235Y-65722571D01*
X96105970Y-65745671D01*
X96095480Y-65767849D01*
X96082867Y-65788893D01*
X96068253Y-65808598D01*
X96051777Y-65826777D01*
X96033598Y-65843253D01*
X96013893Y-65857867D01*
X95992849Y-65870480D01*
X95970671Y-65880970D01*
X95947571Y-65889235D01*
X95923773Y-65895196D01*
X95899504Y-65898796D01*
X95875000Y-65900000D01*
X94625000Y-65900000D01*
X94600496Y-65898796D01*
X94576227Y-65895196D01*
X94552429Y-65889235D01*
X94529329Y-65880970D01*
X94507151Y-65870480D01*
X94486107Y-65857867D01*
X94466402Y-65843253D01*
X94448223Y-65826777D01*
X94431747Y-65808598D01*
X94417133Y-65788893D01*
X94404520Y-65767849D01*
X94394030Y-65745671D01*
X94385765Y-65722571D01*
X94379804Y-65698773D01*
X94376204Y-65674504D01*
X94375000Y-65650000D01*
X94375000Y-64900000D01*
X94376204Y-64875496D01*
X94379804Y-64851227D01*
X94385765Y-64827429D01*
X94394030Y-64804329D01*
X94404520Y-64782151D01*
X94417133Y-64761107D01*
X94431747Y-64741402D01*
X94448223Y-64723223D01*
X94466402Y-64706747D01*
X94486107Y-64692133D01*
X94507151Y-64679520D01*
X94529329Y-64669030D01*
X94552429Y-64660765D01*
X94576227Y-64654804D01*
X94600496Y-64651204D01*
X94625000Y-64650000D01*
X95875000Y-64650000D01*
X95899504Y-64651204D01*
X95899504Y-64651204D01*
G37*
D15*
G04 #@! TD*
G04 #@! TO.P,C1,2*
G04 #@! TO.N,GND*
X95250000Y-65275000D03*
D14*
G04 #@! TO.N,GND*
G04 #@! TO.C,C2*
G36*
X36464504Y-93741204D02*
X36488773Y-93744804D01*
X36512571Y-93750765D01*
X36535671Y-93759030D01*
X36557849Y-93769520D01*
X36578893Y-93782133D01*
X36598598Y-93796747D01*
X36616777Y-93813223D01*
X36633253Y-93831402D01*
X36647867Y-93851107D01*
X36660480Y-93872151D01*
X36670970Y-93894329D01*
X36679235Y-93917429D01*
X36685196Y-93941227D01*
X36688796Y-93965496D01*
X36690000Y-93990000D01*
X36690000Y-95240000D01*
X36688796Y-95264504D01*
X36685196Y-95288773D01*
X36679235Y-95312571D01*
X36670970Y-95335671D01*
X36660480Y-95357849D01*
X36647867Y-95378893D01*
X36633253Y-95398598D01*
X36616777Y-95416777D01*
X36598598Y-95433253D01*
X36578893Y-95447867D01*
X36557849Y-95460480D01*
X36535671Y-95470970D01*
X36512571Y-95479235D01*
X36488773Y-95485196D01*
X36464504Y-95488796D01*
X36440000Y-95490000D01*
X35690000Y-95490000D01*
X35665496Y-95488796D01*
X35641227Y-95485196D01*
X35617429Y-95479235D01*
X35594329Y-95470970D01*
X35572151Y-95460480D01*
X35551107Y-95447867D01*
X35531402Y-95433253D01*
X35513223Y-95416777D01*
X35496747Y-95398598D01*
X35482133Y-95378893D01*
X35469520Y-95357849D01*
X35459030Y-95335671D01*
X35450765Y-95312571D01*
X35444804Y-95288773D01*
X35441204Y-95264504D01*
X35440000Y-95240000D01*
X35440000Y-93990000D01*
X35441204Y-93965496D01*
X35444804Y-93941227D01*
X35450765Y-93917429D01*
X35459030Y-93894329D01*
X35469520Y-93872151D01*
X35482133Y-93851107D01*
X35496747Y-93831402D01*
X35513223Y-93813223D01*
X35531402Y-93796747D01*
X35551107Y-93782133D01*
X35572151Y-93769520D01*
X35594329Y-93759030D01*
X35617429Y-93750765D01*
X35641227Y-93744804D01*
X35665496Y-93741204D01*
X35690000Y-93740000D01*
X36440000Y-93740000D01*
X36464504Y-93741204D01*
X36464504Y-93741204D01*
G37*
D15*
G04 #@! TD*
G04 #@! TO.P,C2,2*
G04 #@! TO.N,GND*
X36065000Y-94615000D03*
D14*
G04 #@! TO.N,VCC*
G04 #@! TO.C,C2*
G36*
X39264504Y-93741204D02*
X39288773Y-93744804D01*
X39312571Y-93750765D01*
X39335671Y-93759030D01*
X39357849Y-93769520D01*
X39378893Y-93782133D01*
X39398598Y-93796747D01*
X39416777Y-93813223D01*
X39433253Y-93831402D01*
X39447867Y-93851107D01*
X39460480Y-93872151D01*
X39470970Y-93894329D01*
X39479235Y-93917429D01*
X39485196Y-93941227D01*
X39488796Y-93965496D01*
X39490000Y-93990000D01*
X39490000Y-95240000D01*
X39488796Y-95264504D01*
X39485196Y-95288773D01*
X39479235Y-95312571D01*
X39470970Y-95335671D01*
X39460480Y-95357849D01*
X39447867Y-95378893D01*
X39433253Y-95398598D01*
X39416777Y-95416777D01*
X39398598Y-95433253D01*
X39378893Y-95447867D01*
X39357849Y-95460480D01*
X39335671Y-95470970D01*
X39312571Y-95479235D01*
X39288773Y-95485196D01*
X39264504Y-95488796D01*
X39240000Y-95490000D01*
X38490000Y-95490000D01*
X38465496Y-95488796D01*
X38441227Y-95485196D01*
X38417429Y-95479235D01*
X38394329Y-95470970D01*
X38372151Y-95460480D01*
X38351107Y-95447867D01*
X38331402Y-95433253D01*
X38313223Y-95416777D01*
X38296747Y-95398598D01*
X38282133Y-95378893D01*
X38269520Y-95357849D01*
X38259030Y-95335671D01*
X38250765Y-95312571D01*
X38244804Y-95288773D01*
X38241204Y-95264504D01*
X38240000Y-95240000D01*
X38240000Y-93990000D01*
X38241204Y-93965496D01*
X38244804Y-93941227D01*
X38250765Y-93917429D01*
X38259030Y-93894329D01*
X38269520Y-93872151D01*
X38282133Y-93851107D01*
X38296747Y-93831402D01*
X38313223Y-93813223D01*
X38331402Y-93796747D01*
X38351107Y-93782133D01*
X38372151Y-93769520D01*
X38394329Y-93759030D01*
X38417429Y-93750765D01*
X38441227Y-93744804D01*
X38465496Y-93741204D01*
X38490000Y-93740000D01*
X39240000Y-93740000D01*
X39264504Y-93741204D01*
X39264504Y-93741204D01*
G37*
D15*
G04 #@! TD*
G04 #@! TO.P,C2,1*
G04 #@! TO.N,VCC*
X38865000Y-94615000D03*
D14*
G04 #@! TO.N,VCC*
G04 #@! TO.C,C3*
G36*
X45354504Y-82946204D02*
X45378773Y-82949804D01*
X45402571Y-82955765D01*
X45425671Y-82964030D01*
X45447849Y-82974520D01*
X45468893Y-82987133D01*
X45488598Y-83001747D01*
X45506777Y-83018223D01*
X45523253Y-83036402D01*
X45537867Y-83056107D01*
X45550480Y-83077151D01*
X45560970Y-83099329D01*
X45569235Y-83122429D01*
X45575196Y-83146227D01*
X45578796Y-83170496D01*
X45580000Y-83195000D01*
X45580000Y-84445000D01*
X45578796Y-84469504D01*
X45575196Y-84493773D01*
X45569235Y-84517571D01*
X45560970Y-84540671D01*
X45550480Y-84562849D01*
X45537867Y-84583893D01*
X45523253Y-84603598D01*
X45506777Y-84621777D01*
X45488598Y-84638253D01*
X45468893Y-84652867D01*
X45447849Y-84665480D01*
X45425671Y-84675970D01*
X45402571Y-84684235D01*
X45378773Y-84690196D01*
X45354504Y-84693796D01*
X45330000Y-84695000D01*
X44580000Y-84695000D01*
X44555496Y-84693796D01*
X44531227Y-84690196D01*
X44507429Y-84684235D01*
X44484329Y-84675970D01*
X44462151Y-84665480D01*
X44441107Y-84652867D01*
X44421402Y-84638253D01*
X44403223Y-84621777D01*
X44386747Y-84603598D01*
X44372133Y-84583893D01*
X44359520Y-84562849D01*
X44349030Y-84540671D01*
X44340765Y-84517571D01*
X44334804Y-84493773D01*
X44331204Y-84469504D01*
X44330000Y-84445000D01*
X44330000Y-83195000D01*
X44331204Y-83170496D01*
X44334804Y-83146227D01*
X44340765Y-83122429D01*
X44349030Y-83099329D01*
X44359520Y-83077151D01*
X44372133Y-83056107D01*
X44386747Y-83036402D01*
X44403223Y-83018223D01*
X44421402Y-83001747D01*
X44441107Y-82987133D01*
X44462151Y-82974520D01*
X44484329Y-82964030D01*
X44507429Y-82955765D01*
X44531227Y-82949804D01*
X44555496Y-82946204D01*
X44580000Y-82945000D01*
X45330000Y-82945000D01*
X45354504Y-82946204D01*
X45354504Y-82946204D01*
G37*
D15*
G04 #@! TD*
G04 #@! TO.P,C3,1*
G04 #@! TO.N,VCC*
X44955000Y-83820000D03*
D14*
G04 #@! TO.N,GND*
G04 #@! TO.C,C3*
G36*
X48154504Y-82946204D02*
X48178773Y-82949804D01*
X48202571Y-82955765D01*
X48225671Y-82964030D01*
X48247849Y-82974520D01*
X48268893Y-82987133D01*
X48288598Y-83001747D01*
X48306777Y-83018223D01*
X48323253Y-83036402D01*
X48337867Y-83056107D01*
X48350480Y-83077151D01*
X48360970Y-83099329D01*
X48369235Y-83122429D01*
X48375196Y-83146227D01*
X48378796Y-83170496D01*
X48380000Y-83195000D01*
X48380000Y-84445000D01*
X48378796Y-84469504D01*
X48375196Y-84493773D01*
X48369235Y-84517571D01*
X48360970Y-84540671D01*
X48350480Y-84562849D01*
X48337867Y-84583893D01*
X48323253Y-84603598D01*
X48306777Y-84621777D01*
X48288598Y-84638253D01*
X48268893Y-84652867D01*
X48247849Y-84665480D01*
X48225671Y-84675970D01*
X48202571Y-84684235D01*
X48178773Y-84690196D01*
X48154504Y-84693796D01*
X48130000Y-84695000D01*
X47380000Y-84695000D01*
X47355496Y-84693796D01*
X47331227Y-84690196D01*
X47307429Y-84684235D01*
X47284329Y-84675970D01*
X47262151Y-84665480D01*
X47241107Y-84652867D01*
X47221402Y-84638253D01*
X47203223Y-84621777D01*
X47186747Y-84603598D01*
X47172133Y-84583893D01*
X47159520Y-84562849D01*
X47149030Y-84540671D01*
X47140765Y-84517571D01*
X47134804Y-84493773D01*
X47131204Y-84469504D01*
X47130000Y-84445000D01*
X47130000Y-83195000D01*
X47131204Y-83170496D01*
X47134804Y-83146227D01*
X47140765Y-83122429D01*
X47149030Y-83099329D01*
X47159520Y-83077151D01*
X47172133Y-83056107D01*
X47186747Y-83036402D01*
X47203223Y-83018223D01*
X47221402Y-83001747D01*
X47241107Y-82987133D01*
X47262151Y-82974520D01*
X47284329Y-82964030D01*
X47307429Y-82955765D01*
X47331227Y-82949804D01*
X47355496Y-82946204D01*
X47380000Y-82945000D01*
X48130000Y-82945000D01*
X48154504Y-82946204D01*
X48154504Y-82946204D01*
G37*
D15*
G04 #@! TD*
G04 #@! TO.P,C3,2*
G04 #@! TO.N,GND*
X47755000Y-83820000D03*
D14*
G04 #@! TO.N,VCC*
G04 #@! TO.C,R1*
G36*
X41289504Y-77611204D02*
X41313773Y-77614804D01*
X41337571Y-77620765D01*
X41360671Y-77629030D01*
X41382849Y-77639520D01*
X41403893Y-77652133D01*
X41423598Y-77666747D01*
X41441777Y-77683223D01*
X41458253Y-77701402D01*
X41472867Y-77721107D01*
X41485480Y-77742151D01*
X41495970Y-77764329D01*
X41504235Y-77787429D01*
X41510196Y-77811227D01*
X41513796Y-77835496D01*
X41515000Y-77860000D01*
X41515000Y-78610000D01*
X41513796Y-78634504D01*
X41510196Y-78658773D01*
X41504235Y-78682571D01*
X41495970Y-78705671D01*
X41485480Y-78727849D01*
X41472867Y-78748893D01*
X41458253Y-78768598D01*
X41441777Y-78786777D01*
X41423598Y-78803253D01*
X41403893Y-78817867D01*
X41382849Y-78830480D01*
X41360671Y-78840970D01*
X41337571Y-78849235D01*
X41313773Y-78855196D01*
X41289504Y-78858796D01*
X41265000Y-78860000D01*
X40015000Y-78860000D01*
X39990496Y-78858796D01*
X39966227Y-78855196D01*
X39942429Y-78849235D01*
X39919329Y-78840970D01*
X39897151Y-78830480D01*
X39876107Y-78817867D01*
X39856402Y-78803253D01*
X39838223Y-78786777D01*
X39821747Y-78768598D01*
X39807133Y-78748893D01*
X39794520Y-78727849D01*
X39784030Y-78705671D01*
X39775765Y-78682571D01*
X39769804Y-78658773D01*
X39766204Y-78634504D01*
X39765000Y-78610000D01*
X39765000Y-77860000D01*
X39766204Y-77835496D01*
X39769804Y-77811227D01*
X39775765Y-77787429D01*
X39784030Y-77764329D01*
X39794520Y-77742151D01*
X39807133Y-77721107D01*
X39821747Y-77701402D01*
X39838223Y-77683223D01*
X39856402Y-77666747D01*
X39876107Y-77652133D01*
X39897151Y-77639520D01*
X39919329Y-77629030D01*
X39942429Y-77620765D01*
X39966227Y-77614804D01*
X39990496Y-77611204D01*
X40015000Y-77610000D01*
X41265000Y-77610000D01*
X41289504Y-77611204D01*
X41289504Y-77611204D01*
G37*
D15*
G04 #@! TD*
G04 #@! TO.P,R1,1*
G04 #@! TO.N,VCC*
X40640000Y-78235000D03*
D14*
G04 #@! TO.N,Net-(R1-Pad2)*
G04 #@! TO.C,R1*
G36*
X41289504Y-74811204D02*
X41313773Y-74814804D01*
X41337571Y-74820765D01*
X41360671Y-74829030D01*
X41382849Y-74839520D01*
X41403893Y-74852133D01*
X41423598Y-74866747D01*
X41441777Y-74883223D01*
X41458253Y-74901402D01*
X41472867Y-74921107D01*
X41485480Y-74942151D01*
X41495970Y-74964329D01*
X41504235Y-74987429D01*
X41510196Y-75011227D01*
X41513796Y-75035496D01*
X41515000Y-75060000D01*
X41515000Y-75810000D01*
X41513796Y-75834504D01*
X41510196Y-75858773D01*
X41504235Y-75882571D01*
X41495970Y-75905671D01*
X41485480Y-75927849D01*
X41472867Y-75948893D01*
X41458253Y-75968598D01*
X41441777Y-75986777D01*
X41423598Y-76003253D01*
X41403893Y-76017867D01*
X41382849Y-76030480D01*
X41360671Y-76040970D01*
X41337571Y-76049235D01*
X41313773Y-76055196D01*
X41289504Y-76058796D01*
X41265000Y-76060000D01*
X40015000Y-76060000D01*
X39990496Y-76058796D01*
X39966227Y-76055196D01*
X39942429Y-76049235D01*
X39919329Y-76040970D01*
X39897151Y-76030480D01*
X39876107Y-76017867D01*
X39856402Y-76003253D01*
X39838223Y-75986777D01*
X39821747Y-75968598D01*
X39807133Y-75948893D01*
X39794520Y-75927849D01*
X39784030Y-75905671D01*
X39775765Y-75882571D01*
X39769804Y-75858773D01*
X39766204Y-75834504D01*
X39765000Y-75810000D01*
X39765000Y-75060000D01*
X39766204Y-75035496D01*
X39769804Y-75011227D01*
X39775765Y-74987429D01*
X39784030Y-74964329D01*
X39794520Y-74942151D01*
X39807133Y-74921107D01*
X39821747Y-74901402D01*
X39838223Y-74883223D01*
X39856402Y-74866747D01*
X39876107Y-74852133D01*
X39897151Y-74839520D01*
X39919329Y-74829030D01*
X39942429Y-74820765D01*
X39966227Y-74814804D01*
X39990496Y-74811204D01*
X40015000Y-74810000D01*
X41265000Y-74810000D01*
X41289504Y-74811204D01*
X41289504Y-74811204D01*
G37*
D15*
G04 #@! TD*
G04 #@! TO.P,R1,2*
G04 #@! TO.N,Net-(R1-Pad2)*
X40640000Y-75435000D03*
D12*
G04 #@! TO.P,J5,1*
G04 #@! TO.N,VIACA1*
X44450000Y-52070000D03*
D13*
G04 #@! TO.P,J5,2*
G04 #@! TO.N,VIACA2*
X46990000Y-52070000D03*
G04 #@! TO.P,J5,3*
G04 #@! TO.N,GND*
X49530000Y-52070000D03*
G04 #@! TD*
D12*
G04 #@! TO.P,J6,1*
G04 #@! TO.N,VIAPA0*
X57150000Y-52070000D03*
D13*
G04 #@! TO.P,J6,2*
G04 #@! TO.N,VIAPA1*
X59690000Y-52070000D03*
G04 #@! TO.P,J6,3*
G04 #@! TO.N,VIAPA2*
X62230000Y-52070000D03*
G04 #@! TO.P,J6,4*
G04 #@! TO.N,VIAPA3*
X64770000Y-52070000D03*
G04 #@! TO.P,J6,5*
G04 #@! TO.N,VIAPA4*
X67310000Y-52070000D03*
G04 #@! TO.P,J6,6*
G04 #@! TO.N,VIAPA5*
X69850000Y-52070000D03*
G04 #@! TO.P,J6,7*
G04 #@! TO.N,VIAPA6*
X72390000Y-52070000D03*
G04 #@! TO.P,J6,8*
G04 #@! TO.N,VIAPA7*
X74930000Y-52070000D03*
G04 #@! TD*
G04 #@! TO.P,J7,8*
G04 #@! TO.N,VIAPB7*
X99695000Y-52070000D03*
G04 #@! TO.P,J7,7*
G04 #@! TO.N,VIAPB6*
X97155000Y-52070000D03*
G04 #@! TO.P,J7,6*
G04 #@! TO.N,VIAPB5*
X94615000Y-52070000D03*
G04 #@! TO.P,J7,5*
G04 #@! TO.N,VIAPB4*
X92075000Y-52070000D03*
G04 #@! TO.P,J7,4*
G04 #@! TO.N,VIAPB3*
X89535000Y-52070000D03*
G04 #@! TO.P,J7,3*
G04 #@! TO.N,VIAPB2*
X86995000Y-52070000D03*
G04 #@! TO.P,J7,2*
G04 #@! TO.N,VIAPB1*
X84455000Y-52070000D03*
D12*
G04 #@! TO.P,J7,1*
G04 #@! TO.N,VIAPB0*
X81915000Y-52070000D03*
G04 #@! TD*
D13*
G04 #@! TO.P,J8,3*
G04 #@! TO.N,GND*
X102235000Y-62230000D03*
G04 #@! TO.P,J8,2*
G04 #@! TO.N,VIACB2*
X102235000Y-59690000D03*
D12*
G04 #@! TO.P,J8,1*
G04 #@! TO.N,VIACB1*
X102235000Y-57150000D03*
G04 #@! TD*
D16*
G04 #@! TO.P,U1,1*
G04 #@! TO.N,/A5*
X34315000Y-81910000D03*
G04 #@! TO.P,U1,2*
G04 #@! TO.N,/A6*
X34315000Y-83190000D03*
G04 #@! TO.P,U1,3*
G04 #@! TO.N,/A7*
X34315000Y-84450000D03*
G04 #@! TO.P,U1,4*
G04 #@! TO.N,/CCTL*
X34315000Y-85720000D03*
G04 #@! TO.P,U1,5*
G04 #@! TO.N,GND*
X34315000Y-87000000D03*
G04 #@! TO.P,U1,6*
G04 #@! TO.N,Net-(R1-Pad2)*
X34315000Y-88270000D03*
G04 #@! TO.P,U1,7*
G04 #@! TO.N,/D5E0*
X34315000Y-89530000D03*
G04 #@! TO.P,U1,8*
G04 #@! TO.N,GND*
X34315000Y-90810000D03*
G04 #@! TO.P,U1,9*
G04 #@! TO.N,/D5C0*
X40615000Y-90810000D03*
G04 #@! TO.P,U1,10*
G04 #@! TO.N,/D5A0*
X40615000Y-89530000D03*
G04 #@! TO.P,U1,11*
G04 #@! TO.N,/D580*
X40615000Y-88270000D03*
G04 #@! TO.P,U1,12*
G04 #@! TO.N,/D560*
X40615000Y-87000000D03*
G04 #@! TO.P,U1,13*
G04 #@! TO.N,/D540*
X40615000Y-85720000D03*
G04 #@! TO.P,U1,14*
G04 #@! TO.N,/D520*
X40615000Y-84450000D03*
G04 #@! TO.P,U1,15*
G04 #@! TO.N,/D500*
X40615000Y-83190000D03*
G04 #@! TO.P,U1,16*
G04 #@! TO.N,VCC*
X40615000Y-81910000D03*
G04 #@! TD*
D12*
G04 #@! TO.P,J4,1*
G04 #@! TO.N,/CCTL*
X41910000Y-69850000D03*
D13*
G04 #@! TO.P,J4,2*
X39370000Y-69850000D03*
G04 #@! TO.P,J4,3*
G04 #@! TO.N,/A7*
X41910000Y-67310000D03*
G04 #@! TO.P,J4,4*
X39370000Y-67310000D03*
G04 #@! TO.P,J4,5*
G04 #@! TO.N,/A6*
X41910000Y-64770000D03*
G04 #@! TO.P,J4,6*
X39370000Y-64770000D03*
G04 #@! TO.P,J4,7*
G04 #@! TO.N,/A5*
X41910000Y-62230000D03*
G04 #@! TO.P,J4,8*
X39370000Y-62230000D03*
G04 #@! TO.P,J4,9*
G04 #@! TO.N,A3*
X41910000Y-59690000D03*
G04 #@! TO.P,J4,10*
X39370000Y-59690000D03*
G04 #@! TO.P,J4,11*
G04 #@! TO.N,A2*
X41910000Y-57150000D03*
G04 #@! TO.P,J4,12*
X39370000Y-57150000D03*
G04 #@! TD*
D12*
G04 #@! TO.P,J9,1*
G04 #@! TO.N,VCC*
X99695000Y-72390000D03*
D13*
G04 #@! TO.P,J9,2*
X99695000Y-69850000D03*
G04 #@! TO.P,J9,3*
G04 #@! TO.N,GND*
X102235000Y-72390000D03*
G04 #@! TO.P,J9,4*
X102235000Y-69850000D03*
G04 #@! TD*
D17*
G04 #@! TO.N,GND*
X80010000Y-67945000D03*
X80010000Y-65405000D03*
X82550000Y-65405000D03*
X77470000Y-60960000D03*
X77470000Y-64135000D03*
X80010000Y-60960000D03*
X69850000Y-66675000D03*
X69850000Y-69215000D03*
X67310000Y-69215000D03*
X72390000Y-66675000D03*
X74930000Y-62865000D03*
X54610000Y-66675000D03*
X57150000Y-69215000D03*
X59690000Y-66675000D03*
X59690000Y-69215000D03*
X64770000Y-69215000D03*
X67310000Y-66675000D03*
X37465000Y-85090000D03*
X97790000Y-61595000D03*
X43180000Y-79375000D03*
X48260000Y-69215000D03*
X52070000Y-69215000D03*
X85090000Y-62865000D03*
X64770000Y-66675000D03*
X62229998Y-66675000D03*
X62230000Y-69215002D03*
G04 #@! TO.N,VCC*
X38735000Y-88265000D03*
X40640000Y-94615000D03*
G04 #@! TO.N,A1*
X58420000Y-74295000D03*
G04 #@! TD*
D18*
G04 #@! TO.N,GND*
X102235000Y-72390000D02*
X102235000Y-69850000D01*
X102235000Y-69850000D02*
X102235000Y-62230000D01*
X97660000Y-65275000D02*
X102235000Y-69850000D01*
X95250000Y-65275000D02*
X97660000Y-65275000D01*
X45085000Y-92475000D02*
X45085000Y-92075000D01*
X46135000Y-93525000D02*
X45085000Y-92475000D01*
X46535000Y-93525000D02*
X46135000Y-93525000D01*
X46990000Y-93980000D02*
X46535000Y-93525000D01*
X46990000Y-95885000D02*
X46990000Y-93980000D01*
X36065000Y-97025000D02*
X36065000Y-94615000D01*
X40405000Y-97155000D02*
X36195000Y-97155000D01*
X36195000Y-97155000D02*
X36065000Y-97025000D01*
X45085000Y-92475000D02*
X40405000Y-97155000D01*
X34315000Y-92865000D02*
X34315000Y-90810000D01*
X36065000Y-94615000D02*
X34315000Y-92865000D01*
X34065000Y-87000000D02*
X34060000Y-86995000D01*
X34315000Y-87000000D02*
X34065000Y-87000000D01*
X34060000Y-86995000D02*
X33020000Y-86995000D01*
X33020000Y-86995000D02*
X32385000Y-87630000D01*
X32385000Y-87630000D02*
X32385000Y-95250000D01*
X34290000Y-97155000D02*
X36195000Y-97155000D01*
X32385000Y-95250000D02*
X34290000Y-97155000D01*
X35555000Y-87000000D02*
X37465000Y-85090000D01*
X34315000Y-87000000D02*
X35555000Y-87000000D01*
X98425000Y-62230000D02*
X97790000Y-61595000D01*
X102235000Y-62230000D02*
X98425000Y-62230000D01*
X46990000Y-96985000D02*
X48430000Y-98425000D01*
X46990000Y-95885000D02*
X46990000Y-96985000D01*
X48430000Y-98425000D02*
X104775000Y-98425000D01*
X104775000Y-98425000D02*
X105410000Y-97790000D01*
X105410000Y-97790000D02*
X105410000Y-73660000D01*
X104140000Y-72390000D02*
X102235000Y-72390000D01*
X105410000Y-73660000D02*
X104140000Y-72390000D01*
X43180000Y-80010000D02*
X43180000Y-79375000D01*
X46990000Y-83820000D02*
X43180000Y-80010000D01*
X47755000Y-83820000D02*
X46990000Y-83820000D01*
X46990000Y-70485000D02*
X46990000Y-72390000D01*
X49530000Y-52070000D02*
X49530000Y-53975000D01*
X49530000Y-53975000D02*
X50800000Y-55245000D01*
X50800000Y-66675000D02*
X48260000Y-69215000D01*
X50800000Y-55245000D02*
X50800000Y-66675000D01*
X48260000Y-69215000D02*
X46990000Y-70485000D01*
X52070000Y-69215000D02*
X54610000Y-66675000D01*
X57150000Y-69215000D02*
X59690000Y-66675000D01*
X59690000Y-69215000D02*
X62230000Y-66675000D01*
X64770000Y-69215000D02*
X67310000Y-66675000D01*
X69850000Y-66675000D02*
X67310000Y-69215000D01*
X69850000Y-69215000D02*
X72390000Y-66675000D01*
X72390000Y-65405000D02*
X74930000Y-62865000D01*
X72390000Y-66675000D02*
X72390000Y-65405000D01*
X75565000Y-62865000D02*
X77470000Y-60960000D01*
X74930000Y-62865000D02*
X75565000Y-62865000D01*
X80010000Y-61595000D02*
X80010000Y-60960000D01*
X77470000Y-64135000D02*
X80010000Y-61595000D01*
X80010000Y-67945000D02*
X82550000Y-65405000D01*
X82550000Y-65405000D02*
X85090000Y-62865000D01*
X64370001Y-67074999D02*
X64770000Y-66675000D01*
X62230000Y-69215000D02*
X64370001Y-67074999D01*
G04 #@! TO.N,PA0*
X47625000Y-92475000D02*
X47625000Y-92075000D01*
X49075000Y-93525000D02*
X48675000Y-93525000D01*
X49530000Y-93980000D02*
X49075000Y-93525000D01*
X48675000Y-93525000D02*
X47625000Y-92475000D01*
X49530000Y-95885000D02*
X49530000Y-93980000D01*
G04 #@! TO.N,PA1*
X50165000Y-92475000D02*
X50165000Y-92075000D01*
X51215000Y-93525000D02*
X50165000Y-92475000D01*
X51615000Y-93525000D02*
X51215000Y-93525000D01*
X52070000Y-93980000D02*
X51615000Y-93525000D01*
X52070000Y-95885000D02*
X52070000Y-93980000D01*
G04 #@! TO.N,PA2*
X52705000Y-92475000D02*
X52705000Y-92075000D01*
X53755000Y-93525000D02*
X52705000Y-92475000D01*
X54155000Y-93525000D02*
X53755000Y-93525000D01*
X54610000Y-93980000D02*
X54155000Y-93525000D01*
X54610000Y-95885000D02*
X54610000Y-93980000D01*
G04 #@! TO.N,PA3*
X55245000Y-92475000D02*
X55245000Y-92075000D01*
X56295000Y-93525000D02*
X55245000Y-92475000D01*
X56695000Y-93525000D02*
X56295000Y-93525000D01*
X57150000Y-93980000D02*
X56695000Y-93525000D01*
X57150000Y-95885000D02*
X57150000Y-93980000D01*
G04 #@! TO.N,PA4*
X57785000Y-92475000D02*
X57785000Y-92075000D01*
X58835000Y-93525000D02*
X57785000Y-92475000D01*
X59235000Y-93525000D02*
X58835000Y-93525000D01*
X59690000Y-93980000D02*
X59235000Y-93525000D01*
X59690000Y-95885000D02*
X59690000Y-93980000D01*
G04 #@! TO.N,PA5*
X60325000Y-92475000D02*
X60325000Y-92075000D01*
X61775000Y-93525000D02*
X61375000Y-93525000D01*
X61375000Y-93525000D02*
X60325000Y-92475000D01*
X62230000Y-93980000D02*
X61775000Y-93525000D01*
X62230000Y-95885000D02*
X62230000Y-93980000D01*
G04 #@! TO.N,PA6*
X62865000Y-92475000D02*
X62865000Y-92075000D01*
X63915000Y-93525000D02*
X62865000Y-92475000D01*
X64770000Y-93980000D02*
X64315000Y-93525000D01*
X64315000Y-93525000D02*
X63915000Y-93525000D01*
X64770000Y-95885000D02*
X64770000Y-93980000D01*
G04 #@! TO.N,PA7*
X65405000Y-92475000D02*
X65405000Y-92075000D01*
X66855000Y-93525000D02*
X66455000Y-93525000D01*
X66455000Y-93525000D02*
X65405000Y-92475000D01*
X67310000Y-93980000D02*
X66855000Y-93525000D01*
X67310000Y-95885000D02*
X67310000Y-93980000D01*
G04 #@! TO.N,PB0*
X67945000Y-92475000D02*
X67945000Y-92075000D01*
X68995000Y-93525000D02*
X67945000Y-92475000D01*
X69395000Y-93525000D02*
X68995000Y-93525000D01*
X69850000Y-93980000D02*
X69395000Y-93525000D01*
X69850000Y-95885000D02*
X69850000Y-93980000D01*
G04 #@! TO.N,PB1*
X70485000Y-92475000D02*
X70485000Y-92075000D01*
X71535000Y-93525000D02*
X70485000Y-92475000D01*
X71935000Y-93525000D02*
X71535000Y-93525000D01*
X72390000Y-93980000D02*
X71935000Y-93525000D01*
X72390000Y-95885000D02*
X72390000Y-93980000D01*
G04 #@! TO.N,PB2*
X73025000Y-92475000D02*
X73025000Y-92075000D01*
X74075000Y-93525000D02*
X73025000Y-92475000D01*
X74475000Y-93525000D02*
X74075000Y-93525000D01*
X74930000Y-93980000D02*
X74475000Y-93525000D01*
X74930000Y-95885000D02*
X74930000Y-93980000D01*
G04 #@! TO.N,PB3*
X75565000Y-92475000D02*
X75565000Y-92075000D01*
X76615000Y-93525000D02*
X75565000Y-92475000D01*
X77015000Y-93525000D02*
X76615000Y-93525000D01*
X77470000Y-93980000D02*
X77015000Y-93525000D01*
X77470000Y-95885000D02*
X77470000Y-93980000D01*
G04 #@! TO.N,PB4*
X78105000Y-92475000D02*
X78105000Y-92075000D01*
X79155000Y-93525000D02*
X78105000Y-92475000D01*
X79555000Y-93525000D02*
X79155000Y-93525000D01*
X80010000Y-93980000D02*
X79555000Y-93525000D01*
X80010000Y-95885000D02*
X80010000Y-93980000D01*
G04 #@! TO.N,PB5*
X81695000Y-93525000D02*
X80645000Y-92475000D01*
X82095000Y-93525000D02*
X81695000Y-93525000D01*
X82550000Y-93980000D02*
X82095000Y-93525000D01*
X80645000Y-92475000D02*
X80645000Y-92075000D01*
X82550000Y-95885000D02*
X82550000Y-93980000D01*
G04 #@! TO.N,PB6*
X83185000Y-92475000D02*
X83185000Y-92075000D01*
X84235000Y-93525000D02*
X83185000Y-92475000D01*
X84635000Y-93525000D02*
X84235000Y-93525000D01*
X85090000Y-93980000D02*
X84635000Y-93525000D01*
X85090000Y-95885000D02*
X85090000Y-93980000D01*
G04 #@! TO.N,PB7*
X85725000Y-92475000D02*
X85725000Y-92075000D01*
X86775000Y-93525000D02*
X85725000Y-92475000D01*
X87175000Y-93525000D02*
X86775000Y-93525000D01*
X87630000Y-93980000D02*
X87175000Y-93525000D01*
X87630000Y-95885000D02*
X87630000Y-93980000D01*
G04 #@! TO.N,CB1*
X88265000Y-92475000D02*
X88265000Y-92075000D01*
X89315000Y-93525000D02*
X88265000Y-92475000D01*
X89715000Y-93525000D02*
X89315000Y-93525000D01*
X90170000Y-93980000D02*
X89715000Y-93525000D01*
X90170000Y-95885000D02*
X90170000Y-93980000D01*
G04 #@! TO.N,CB2*
X91855000Y-93525000D02*
X90805000Y-92475000D01*
X92255000Y-93525000D02*
X91855000Y-93525000D01*
X90805000Y-92475000D02*
X90805000Y-92075000D01*
X92710000Y-93980000D02*
X92255000Y-93525000D01*
X92710000Y-95885000D02*
X92710000Y-93980000D01*
G04 #@! TO.N,VCC*
X99695000Y-71290000D02*
X99695000Y-69850000D01*
X99695000Y-72390000D02*
X99695000Y-71290000D01*
X95250000Y-72390000D02*
X99695000Y-72390000D01*
X94395000Y-92075000D02*
X93345000Y-92075000D01*
X95250000Y-92930000D02*
X94395000Y-92075000D01*
X95250000Y-95885000D02*
X95250000Y-92930000D01*
X40615000Y-81910000D02*
X40365000Y-81910000D01*
X40640000Y-94615000D02*
X38865000Y-94615000D01*
X39134999Y-87865001D02*
X38735000Y-88265000D01*
X39185010Y-87814990D02*
X39134999Y-87865001D01*
X39185010Y-82439990D02*
X39185010Y-87814990D01*
X39715000Y-81910000D02*
X39185010Y-82439990D01*
X40615000Y-81910000D02*
X39715000Y-81910000D01*
X95250000Y-72390000D02*
X95250000Y-68075000D01*
X96099999Y-96734999D02*
X103290001Y-96734999D01*
X95250000Y-95885000D02*
X96099999Y-96734999D01*
X103290001Y-96734999D02*
X104140000Y-95885000D01*
X104140000Y-95885000D02*
X104140000Y-75565000D01*
X104140000Y-75565000D02*
X103505000Y-74930000D01*
X103505000Y-74930000D02*
X100330000Y-74930000D01*
X99695000Y-74295000D02*
X99695000Y-72390000D01*
X100330000Y-74930000D02*
X99695000Y-74295000D01*
X43045000Y-81910000D02*
X44955000Y-83820000D01*
X40615000Y-81910000D02*
X43045000Y-81910000D01*
X40615000Y-78260000D02*
X40640000Y-78235000D01*
X40615000Y-81910000D02*
X40615000Y-78260000D01*
G04 #@! TO.N,CA1*
X46135000Y-78285000D02*
X45085000Y-77235000D01*
X46535000Y-78285000D02*
X46135000Y-78285000D01*
X46990000Y-78740000D02*
X46535000Y-78285000D01*
X45085000Y-77235000D02*
X45085000Y-76835000D01*
X46990000Y-80645000D02*
X46990000Y-78740000D01*
G04 #@! TO.N,CA2*
X47625000Y-77235000D02*
X47625000Y-76835000D01*
X48675000Y-78285000D02*
X47625000Y-77235000D01*
X49075000Y-78285000D02*
X48675000Y-78285000D01*
X49530000Y-78740000D02*
X49075000Y-78285000D01*
X49530000Y-80645000D02*
X49530000Y-78740000D01*
G04 #@! TO.N,/IRQA*
X50165000Y-77235000D02*
X50165000Y-76835000D01*
X51215000Y-78285000D02*
X50165000Y-77235000D01*
X51615000Y-78285000D02*
X51215000Y-78285000D01*
X52070000Y-78740000D02*
X51615000Y-78285000D01*
X52070000Y-80645000D02*
X52070000Y-78740000D01*
G04 #@! TO.N,/IRQB*
X52705000Y-77235000D02*
X52705000Y-76835000D01*
X53755000Y-78285000D02*
X52705000Y-77235000D01*
X54155000Y-78285000D02*
X53755000Y-78285000D01*
X54610000Y-78740000D02*
X54155000Y-78285000D01*
X54610000Y-80645000D02*
X54610000Y-78740000D01*
G04 #@! TO.N,/RESET*
X61375000Y-78285000D02*
X60325000Y-77235000D01*
X61775000Y-78285000D02*
X61375000Y-78285000D01*
X60325000Y-77235000D02*
X60325000Y-76835000D01*
X62230000Y-78740000D02*
X61775000Y-78285000D01*
X62230000Y-80645000D02*
X62230000Y-78740000D01*
G04 #@! TO.N,D0*
X64315000Y-78285000D02*
X63915000Y-78285000D01*
X62865000Y-77235000D02*
X62865000Y-76835000D01*
X64770000Y-78740000D02*
X64315000Y-78285000D01*
X63915000Y-78285000D02*
X62865000Y-77235000D01*
X64770000Y-80645000D02*
X64770000Y-78740000D01*
G04 #@! TO.N,D1*
X65405000Y-77235000D02*
X65405000Y-76835000D01*
X66455000Y-78285000D02*
X65405000Y-77235000D01*
X66855000Y-78285000D02*
X66455000Y-78285000D01*
X67310000Y-78740000D02*
X66855000Y-78285000D01*
X67310000Y-80645000D02*
X67310000Y-78740000D01*
G04 #@! TO.N,D2*
X67945000Y-77235000D02*
X67945000Y-76835000D01*
X68995000Y-78285000D02*
X67945000Y-77235000D01*
X69395000Y-78285000D02*
X68995000Y-78285000D01*
X69850000Y-78740000D02*
X69395000Y-78285000D01*
X69850000Y-80645000D02*
X69850000Y-78740000D01*
G04 #@! TO.N,D3*
X71935000Y-78285000D02*
X71535000Y-78285000D01*
X70485000Y-77235000D02*
X70485000Y-76835000D01*
X71535000Y-78285000D02*
X70485000Y-77235000D01*
X72390000Y-78740000D02*
X71935000Y-78285000D01*
X72390000Y-80645000D02*
X72390000Y-78740000D01*
G04 #@! TO.N,D4*
X74075000Y-78285000D02*
X73025000Y-77235000D01*
X74475000Y-78285000D02*
X74075000Y-78285000D01*
X74930000Y-78740000D02*
X74475000Y-78285000D01*
X73025000Y-77235000D02*
X73025000Y-76835000D01*
X74930000Y-80645000D02*
X74930000Y-78740000D01*
G04 #@! TO.N,D5*
X75565000Y-77235000D02*
X75565000Y-76835000D01*
X76615000Y-78285000D02*
X75565000Y-77235000D01*
X77015000Y-78285000D02*
X76615000Y-78285000D01*
X77470000Y-78740000D02*
X77015000Y-78285000D01*
X77470000Y-80645000D02*
X77470000Y-78740000D01*
G04 #@! TO.N,D6*
X78105000Y-77235000D02*
X78105000Y-76835000D01*
X79155000Y-78285000D02*
X78105000Y-77235000D01*
X79555000Y-78285000D02*
X79155000Y-78285000D01*
X80010000Y-78740000D02*
X79555000Y-78285000D01*
X80010000Y-80645000D02*
X80010000Y-78740000D01*
G04 #@! TO.N,D7*
X81695000Y-78285000D02*
X80645000Y-77235000D01*
X82095000Y-78285000D02*
X81695000Y-78285000D01*
X82550000Y-78740000D02*
X82095000Y-78285000D01*
X80645000Y-77235000D02*
X80645000Y-76835000D01*
X82550000Y-80645000D02*
X82550000Y-78740000D01*
G04 #@! TO.N,O2*
X83185000Y-77235000D02*
X83185000Y-76835000D01*
X84235000Y-78285000D02*
X83185000Y-77235000D01*
X84635000Y-78285000D02*
X84235000Y-78285000D01*
X85090000Y-78740000D02*
X84635000Y-78285000D01*
X85090000Y-80645000D02*
X85090000Y-78740000D01*
G04 #@! TO.N,CS1*
X86775000Y-78285000D02*
X85725000Y-77235000D01*
X87175000Y-78285000D02*
X86775000Y-78285000D01*
X87630000Y-78740000D02*
X87175000Y-78285000D01*
X85725000Y-77235000D02*
X85725000Y-76835000D01*
X87630000Y-80645000D02*
X87630000Y-78740000D01*
G04 #@! TO.N,/CS2B*
X89715000Y-78285000D02*
X89315000Y-78285000D01*
X90170000Y-78740000D02*
X89715000Y-78285000D01*
X88265000Y-77235000D02*
X88265000Y-76835000D01*
X89315000Y-78285000D02*
X88265000Y-77235000D01*
X90170000Y-80645000D02*
X90170000Y-78740000D01*
G04 #@! TO.N,CS0*
X90805000Y-77235000D02*
X90805000Y-76835000D01*
X92255000Y-78285000D02*
X91855000Y-78285000D01*
X91855000Y-78285000D02*
X90805000Y-77235000D01*
X92710000Y-78740000D02*
X92255000Y-78285000D01*
X92710000Y-80645000D02*
X92710000Y-78740000D01*
G04 #@! TO.N,R/W*
X95250000Y-77690000D02*
X94395000Y-76835000D01*
X94395000Y-76835000D02*
X93345000Y-76835000D01*
X95250000Y-80645000D02*
X95250000Y-77690000D01*
G04 #@! TO.N,VIAPA0*
X49530000Y-70485000D02*
X49530000Y-72390000D01*
X52705000Y-67310000D02*
X49530000Y-70485000D01*
X57150000Y-52070000D02*
X53340000Y-55880000D01*
X52705000Y-59055000D02*
X52705000Y-67310000D01*
X53340000Y-55880000D02*
X53340000Y-58420000D01*
X53340000Y-58420000D02*
X52705000Y-59055000D01*
G04 #@! TO.N,VIAPA1*
X52070000Y-70485000D02*
X52070000Y-72390000D01*
X55880000Y-66675000D02*
X52070000Y-70485000D01*
X55880000Y-55880000D02*
X55880000Y-66675000D01*
X59690000Y-52070000D02*
X55880000Y-55880000D01*
G04 #@! TO.N,VIAPA2*
X54610000Y-70485000D02*
X54610000Y-72390000D01*
X58420000Y-55880000D02*
X58420000Y-66675000D01*
X58420000Y-66675000D02*
X54610000Y-70485000D01*
X62230000Y-52070000D02*
X58420000Y-55880000D01*
G04 #@! TO.N,VIAPA3*
X60960000Y-66675000D02*
X57150000Y-70485000D01*
X57150000Y-70485000D02*
X57150000Y-72390000D01*
X60960000Y-55880000D02*
X60960000Y-66675000D01*
X64770000Y-52070000D02*
X60960000Y-55880000D01*
G04 #@! TO.N,VIAPA4*
X63500000Y-66675000D02*
X59690000Y-70485000D01*
X63500000Y-55880000D02*
X63500000Y-66675000D01*
X59690000Y-70485000D02*
X59690000Y-72390000D01*
X67310000Y-52070000D02*
X63500000Y-55880000D01*
G04 #@! TO.N,VIAPA5*
X62230000Y-70485000D02*
X62230000Y-72390000D01*
X66040000Y-66675000D02*
X62230000Y-70485000D01*
X66040000Y-55880000D02*
X66040000Y-66675000D01*
X69850000Y-52070000D02*
X66040000Y-55880000D01*
G04 #@! TO.N,VIAPA6*
X64770000Y-70485000D02*
X64770000Y-72390000D01*
X68580000Y-66675000D02*
X64770000Y-70485000D01*
X68580000Y-55880000D02*
X68580000Y-66675000D01*
X72390000Y-52070000D02*
X68580000Y-55880000D01*
G04 #@! TO.N,VIAPA7*
X67310000Y-70485000D02*
X67310000Y-72390000D01*
X71120000Y-66675000D02*
X67310000Y-70485000D01*
X71120000Y-55880000D02*
X71120000Y-66675000D01*
X74930000Y-52070000D02*
X71120000Y-55880000D01*
G04 #@! TO.N,VIAPB0*
X69850000Y-70338462D02*
X69850000Y-72390000D01*
X81915000Y-52070000D02*
X81915000Y-52964016D01*
X81915000Y-52964016D02*
X78740000Y-56139016D01*
X78740000Y-61448462D02*
X69850000Y-70338462D01*
X78740000Y-56139016D02*
X78740000Y-61448462D01*
G04 #@! TO.N,VIAPB1*
X72390000Y-70485000D02*
X72390000Y-72390000D01*
X81280000Y-61595000D02*
X72390000Y-70485000D01*
X81280000Y-55245000D02*
X81280000Y-61595000D01*
X84455000Y-52070000D02*
X81280000Y-55245000D01*
G04 #@! TO.N,VIAPB2*
X74930000Y-69215000D02*
X74930000Y-72390000D01*
X83820000Y-60325000D02*
X74930000Y-69215000D01*
X83820000Y-55245000D02*
X83820000Y-60325000D01*
X86995000Y-52070000D02*
X83820000Y-55245000D01*
G04 #@! TO.N,VIAPB3*
X77470000Y-69215000D02*
X77470000Y-72390000D01*
X86360000Y-60325000D02*
X77470000Y-69215000D01*
X86360000Y-55245000D02*
X86360000Y-60325000D01*
X89535000Y-52070000D02*
X86360000Y-55245000D01*
G04 #@! TO.N,VIAPB4*
X80010000Y-69215000D02*
X80010000Y-72390000D01*
X88900000Y-60325000D02*
X80010000Y-69215000D01*
X88900000Y-55245000D02*
X88900000Y-60325000D01*
X92075000Y-52070000D02*
X88900000Y-55245000D01*
G04 #@! TO.N,VIAPB5*
X82550000Y-69215000D02*
X82550000Y-72390000D01*
X94615000Y-52070000D02*
X91440000Y-55245000D01*
X91440000Y-60325000D02*
X82550000Y-69215000D01*
X91440000Y-55245000D02*
X91440000Y-60325000D01*
G04 #@! TO.N,VIAPB6*
X85090000Y-70940000D02*
X85090000Y-72390000D01*
X97155000Y-52070000D02*
X93980000Y-55245000D01*
X93980000Y-59690000D02*
X85090000Y-68580000D01*
X93980000Y-55245000D02*
X93980000Y-59690000D01*
X85090000Y-68580000D02*
X85090000Y-70940000D01*
G04 #@! TO.N,VIAPB7*
X87630000Y-70940000D02*
X87630000Y-72390000D01*
X98845001Y-56729999D02*
X87630000Y-67945000D01*
X98845001Y-52919999D02*
X98845001Y-56729999D01*
X87630000Y-67945000D02*
X87630000Y-70940000D01*
X99695000Y-52070000D02*
X98845001Y-52919999D01*
G04 #@! TO.N,VIACB1*
X90170000Y-70940000D02*
X90170000Y-72390000D01*
X90170000Y-66675000D02*
X90170000Y-70940000D01*
X99695000Y-57150000D02*
X90170000Y-66675000D01*
X102235000Y-57150000D02*
X99695000Y-57150000D01*
G04 #@! TO.N,VIACB2*
X102235000Y-59690000D02*
X98425000Y-59690000D01*
X98425000Y-59690000D02*
X92710000Y-65405000D01*
X92710000Y-65405000D02*
X92710000Y-72390000D01*
G04 #@! TO.N,VIACA2*
X49530000Y-56750000D02*
X49530000Y-57150000D01*
X46990000Y-52070000D02*
X46990000Y-54610000D01*
X46990000Y-54610000D02*
X47625000Y-55245000D01*
X47625000Y-55245000D02*
X48025000Y-55245000D01*
X48025000Y-55245000D02*
X49530000Y-56750000D01*
G04 #@! TO.N,VIACA1*
X45940000Y-57150000D02*
X46990000Y-57150000D01*
X44450000Y-55660000D02*
X45940000Y-57150000D01*
X44450000Y-52070000D02*
X44450000Y-55660000D01*
G04 #@! TO.N,Net-(R1-Pad2)*
X39944290Y-76130710D02*
X39944290Y-76260710D01*
X40640000Y-75435000D02*
X39944290Y-76130710D01*
X39944290Y-76260710D02*
X38735000Y-77470000D01*
X38735000Y-77470000D02*
X38735000Y-86995000D01*
X37460000Y-88270000D02*
X34315000Y-88270000D01*
X38735000Y-86995000D02*
X37460000Y-88270000D01*
G04 #@! TO.N,/CCTL*
X41910000Y-69850000D02*
X39370000Y-69850000D01*
X38194999Y-71025001D02*
X38520001Y-70699999D01*
X38520001Y-70699999D02*
X39370000Y-69850000D01*
X38194999Y-82090001D02*
X38194999Y-71025001D01*
X34565000Y-85720000D02*
X38194999Y-82090001D01*
X34315000Y-85720000D02*
X34565000Y-85720000D01*
G04 #@! TO.N,/A7*
X41910000Y-67310000D02*
X39370000Y-67310000D01*
X37744989Y-81270011D02*
X37744989Y-67665011D01*
X34565000Y-84450000D02*
X37744989Y-81270011D01*
X34315000Y-84450000D02*
X34565000Y-84450000D01*
X38100000Y-67310000D02*
X39370000Y-67310000D01*
X37744989Y-67665011D02*
X38100000Y-67310000D01*
G04 #@! TO.N,/A6*
X41910000Y-64770000D02*
X39370000Y-64770000D01*
X38520001Y-65619999D02*
X39370000Y-64770000D01*
X37294979Y-66845021D02*
X38520001Y-65619999D01*
X37294979Y-80460021D02*
X37294979Y-66845021D01*
X34565000Y-83190000D02*
X37294979Y-80460021D01*
X34315000Y-83190000D02*
X34565000Y-83190000D01*
G04 #@! TO.N,/A5*
X39370000Y-62230000D02*
X35560000Y-62230000D01*
X34315000Y-63475000D02*
X34315000Y-81910000D01*
X35560000Y-62230000D02*
X34315000Y-63475000D01*
X41910000Y-62230000D02*
X39370000Y-62230000D01*
G04 #@! TO.N,A1*
X55245000Y-77235000D02*
X55245000Y-76835000D01*
X56295000Y-78285000D02*
X55245000Y-77235000D01*
X56695000Y-78285000D02*
X56295000Y-78285000D01*
X57150000Y-78740000D02*
X56695000Y-78285000D01*
X57150000Y-80645000D02*
X57150000Y-78740000D01*
X57385000Y-74295000D02*
X55245000Y-76435000D01*
X55245000Y-76435000D02*
X55245000Y-76835000D01*
X58420000Y-74295000D02*
X57385000Y-74295000D01*
G04 #@! TO.N,A0*
X57785000Y-77235000D02*
X57785000Y-76835000D01*
X58835000Y-78285000D02*
X57785000Y-77235000D01*
X59235000Y-78285000D02*
X58835000Y-78285000D01*
X59690000Y-78740000D02*
X59235000Y-78285000D01*
X59690000Y-80645000D02*
X59690000Y-78740000D01*
G04 #@! TO.N,/D500*
X40865000Y-83190000D02*
X40615000Y-83190000D01*
X98595000Y-77470000D02*
X97155000Y-78910000D01*
X97155000Y-81913590D02*
X96520000Y-82548590D01*
X97155000Y-78910000D02*
X97155000Y-81913590D01*
X99695000Y-77470000D02*
X98595000Y-77470000D01*
X96520000Y-83185000D02*
X95250000Y-84455000D01*
X80645000Y-84455000D02*
X79375000Y-85725000D01*
X96520000Y-82548590D02*
X96520000Y-83185000D01*
X95250000Y-84455000D02*
X80645000Y-84455000D01*
X79375000Y-85725000D02*
X43400000Y-85725000D01*
X43400000Y-85725000D02*
X40865000Y-83190000D01*
G04 #@! TO.N,/VIACS2*
X102235000Y-95250000D02*
X102235000Y-92710000D01*
X102235000Y-92710000D02*
X102235000Y-90170000D01*
X102235000Y-90170000D02*
X102235000Y-87630000D01*
X102235000Y-87630000D02*
X102235000Y-85090000D01*
X102235000Y-85090000D02*
X102235000Y-82550000D01*
X102235000Y-82550000D02*
X102235000Y-80010000D01*
X102235000Y-80010000D02*
X102235000Y-77470000D01*
G04 #@! TO.N,/D540*
X41515000Y-85720000D02*
X42790000Y-86995000D01*
X40615000Y-85720000D02*
X41515000Y-85720000D01*
X42790000Y-86995000D02*
X80645000Y-86995000D01*
X80645000Y-86995000D02*
X81915000Y-85725000D01*
X81915000Y-85725000D02*
X97155000Y-85725000D01*
X97155000Y-85725000D02*
X97790000Y-85090000D01*
X97790000Y-84455000D02*
X99695000Y-82550000D01*
X97790000Y-85090000D02*
X97790000Y-84455000D01*
G04 #@! TO.N,/D560*
X98425000Y-86360000D02*
X99695000Y-85090000D01*
X82550000Y-86360000D02*
X98425000Y-86360000D01*
X40615000Y-87000000D02*
X41515000Y-87000000D01*
X41515000Y-87000000D02*
X42145000Y-87630000D01*
X42145000Y-87630000D02*
X81280000Y-87630000D01*
X81280000Y-87630000D02*
X82550000Y-86360000D01*
G04 #@! TO.N,/D580*
X82836999Y-86904999D02*
X97064999Y-86904999D01*
X81471998Y-88270000D02*
X82836999Y-86904999D01*
X40615000Y-88270000D02*
X81471998Y-88270000D01*
X97790000Y-87630000D02*
X99695000Y-87630000D01*
X97064999Y-86904999D02*
X97790000Y-87630000D01*
G04 #@! TO.N,/D5A0*
X97155000Y-90170000D02*
X99695000Y-90170000D01*
X40615000Y-89530000D02*
X42548590Y-89530000D01*
X95885000Y-88900000D02*
X97155000Y-90170000D01*
X42548590Y-89530000D02*
X43178590Y-88900000D01*
X43178590Y-88900000D02*
X95885000Y-88900000D01*
G04 #@! TO.N,/D5C0*
X97790000Y-92710000D02*
X99695000Y-92710000D01*
X40615000Y-90810000D02*
X42540000Y-90810000D01*
X42540000Y-90810000D02*
X43815000Y-89535000D01*
X43815000Y-89535000D02*
X94615000Y-89535000D01*
X94615000Y-89535000D02*
X97790000Y-92710000D01*
G04 #@! TO.N,/D5E0*
X98425000Y-95250000D02*
X99695000Y-95250000D01*
X93980000Y-90170000D02*
X98425000Y-94615000D01*
X98425000Y-94615000D02*
X98425000Y-95250000D01*
X43816410Y-90170000D02*
X93980000Y-90170000D01*
X34315000Y-89530000D02*
X35215000Y-89530000D01*
X35215000Y-89530000D02*
X38395000Y-92710000D01*
X38395000Y-92710000D02*
X41276410Y-92710000D01*
X41276410Y-92710000D02*
X43816410Y-90170000D01*
G04 #@! TO.N,A3*
X41910000Y-59690000D02*
X39370000Y-59690000D01*
G04 #@! TO.N,A2*
X41910000Y-57150000D02*
X39370000Y-57150000D01*
G04 #@! TO.N,/D520*
X43180000Y-86360000D02*
X43425000Y-86360000D01*
X41270000Y-84450000D02*
X43180000Y-86360000D01*
X40615000Y-84450000D02*
X41270000Y-84450000D01*
X43180000Y-86360000D02*
X80010000Y-86360000D01*
X80010000Y-86360000D02*
X81280000Y-85090000D01*
X81280000Y-85090000D02*
X96520000Y-85090000D01*
X98845001Y-80859999D02*
X99695000Y-80010000D01*
X97339990Y-82365010D02*
X98845001Y-80859999D01*
X97339990Y-84270010D02*
X97339990Y-82365010D01*
X96520000Y-85090000D02*
X97339990Y-84270010D01*
G04 #@! TD*
D19*
G04 #@! TO.N,GND*
G36*
X107823000Y-98933000D02*
X32512000Y-98933000D01*
X32512000Y-96170750D01*
X45505000Y-96170750D01*
X45505000Y-96861309D01*
X45601673Y-97094698D01*
X45780301Y-97273327D01*
X46013690Y-97370000D01*
X46704250Y-97370000D01*
X46863000Y-97211250D01*
X46863000Y-96012000D01*
X45663750Y-96012000D01*
X45505000Y-96170750D01*
X32512000Y-96170750D01*
X32512000Y-94900750D01*
X34805000Y-94900750D01*
X34805000Y-95616310D01*
X34901673Y-95849699D01*
X35080302Y-96028327D01*
X35313691Y-96125000D01*
X35779250Y-96125000D01*
X35938000Y-95966250D01*
X35938000Y-94742000D01*
X36192000Y-94742000D01*
X36192000Y-95966250D01*
X36350750Y-96125000D01*
X36816309Y-96125000D01*
X37049698Y-96028327D01*
X37228327Y-95849699D01*
X37325000Y-95616310D01*
X37325000Y-94900750D01*
X37166250Y-94742000D01*
X36192000Y-94742000D01*
X35938000Y-94742000D01*
X34963750Y-94742000D01*
X34805000Y-94900750D01*
X32512000Y-94900750D01*
X32512000Y-93613690D01*
X34805000Y-93613690D01*
X34805000Y-94329250D01*
X34963750Y-94488000D01*
X35938000Y-94488000D01*
X35938000Y-93263750D01*
X36192000Y-93263750D01*
X36192000Y-94488000D01*
X37166250Y-94488000D01*
X37325000Y-94329250D01*
X37325000Y-93613690D01*
X37228327Y-93380301D01*
X37049698Y-93201673D01*
X36816309Y-93105000D01*
X36350750Y-93105000D01*
X36192000Y-93263750D01*
X35938000Y-93263750D01*
X35779250Y-93105000D01*
X35313691Y-93105000D01*
X35080302Y-93201673D01*
X34901673Y-93380301D01*
X34805000Y-93613690D01*
X32512000Y-93613690D01*
X32512000Y-91095750D01*
X33030000Y-91095750D01*
X33030000Y-91336310D01*
X33126673Y-91569699D01*
X33305302Y-91748327D01*
X33538691Y-91845000D01*
X34029250Y-91845000D01*
X34188000Y-91686250D01*
X34188000Y-90937000D01*
X33188750Y-90937000D01*
X33030000Y-91095750D01*
X32512000Y-91095750D01*
X32512000Y-81510000D01*
X33017560Y-81510000D01*
X33017560Y-82310000D01*
X33065298Y-82550000D01*
X33017560Y-82790000D01*
X33017560Y-83590000D01*
X33063309Y-83820000D01*
X33017560Y-84050000D01*
X33017560Y-84850000D01*
X33064304Y-85085000D01*
X33017560Y-85320000D01*
X33017560Y-86120000D01*
X33066843Y-86367765D01*
X33071184Y-86374262D01*
X33030000Y-86473690D01*
X33030000Y-86714250D01*
X33188750Y-86873000D01*
X34188000Y-86873000D01*
X34188000Y-86853000D01*
X34442000Y-86853000D01*
X34442000Y-86873000D01*
X35441250Y-86873000D01*
X35600000Y-86714250D01*
X35600000Y-86473690D01*
X35558816Y-86374262D01*
X35563157Y-86367765D01*
X35612440Y-86120000D01*
X35612440Y-85747361D01*
X37975001Y-83384801D01*
X37975001Y-86680196D01*
X37145199Y-87510000D01*
X35600000Y-87510000D01*
X35600000Y-87285750D01*
X35441250Y-87127000D01*
X34442000Y-87127000D01*
X34442000Y-87147000D01*
X34188000Y-87147000D01*
X34188000Y-87127000D01*
X33188750Y-87127000D01*
X33030000Y-87285750D01*
X33030000Y-87526310D01*
X33068627Y-87619565D01*
X33066843Y-87622235D01*
X33017560Y-87870000D01*
X33017560Y-88670000D01*
X33063309Y-88900000D01*
X33017560Y-89130000D01*
X33017560Y-89930000D01*
X33066843Y-90177765D01*
X33071184Y-90184262D01*
X33030000Y-90283690D01*
X33030000Y-90524250D01*
X33188750Y-90683000D01*
X34188000Y-90683000D01*
X34188000Y-90663000D01*
X34442000Y-90663000D01*
X34442000Y-90683000D01*
X34462000Y-90683000D01*
X34462000Y-90937000D01*
X34442000Y-90937000D01*
X34442000Y-91686250D01*
X34600750Y-91845000D01*
X35091309Y-91845000D01*
X35324698Y-91748327D01*
X35503327Y-91569699D01*
X35600000Y-91336310D01*
X35600000Y-91095750D01*
X35441252Y-90937002D01*
X35547201Y-90937002D01*
X37804671Y-93194473D01*
X37847071Y-93257929D01*
X37924191Y-93309459D01*
X37855414Y-93355414D01*
X37660874Y-93646565D01*
X37592560Y-93990000D01*
X37592560Y-95240000D01*
X37660874Y-95583435D01*
X37855414Y-95874586D01*
X38146565Y-96069126D01*
X38490000Y-96137440D01*
X39240000Y-96137440D01*
X39583435Y-96069126D01*
X39874586Y-95874586D01*
X40069126Y-95583435D01*
X40084677Y-95505254D01*
X40434126Y-95650000D01*
X40845874Y-95650000D01*
X41226280Y-95492431D01*
X41517431Y-95201280D01*
X41638625Y-94908691D01*
X45505000Y-94908691D01*
X45505000Y-95599250D01*
X45663750Y-95758000D01*
X46863000Y-95758000D01*
X46863000Y-94558750D01*
X46704250Y-94400000D01*
X46013690Y-94400000D01*
X45780301Y-94496673D01*
X45601673Y-94675302D01*
X45505000Y-94908691D01*
X41638625Y-94908691D01*
X41675000Y-94820874D01*
X41675000Y-94409126D01*
X41517431Y-94028720D01*
X41226280Y-93737569D01*
X40845874Y-93580000D01*
X40434126Y-93580000D01*
X40084677Y-93724746D01*
X40069126Y-93646565D01*
X39951150Y-93470000D01*
X41201563Y-93470000D01*
X41276410Y-93484888D01*
X41351257Y-93470000D01*
X41351262Y-93470000D01*
X41572947Y-93425904D01*
X41824339Y-93257929D01*
X41866741Y-93194470D01*
X42700461Y-92360750D01*
X43650000Y-92360750D01*
X43650000Y-93401309D01*
X43746673Y-93634698D01*
X43925301Y-93813327D01*
X44158690Y-93910000D01*
X44799250Y-93910000D01*
X44958000Y-93751250D01*
X44958000Y-92202000D01*
X43808750Y-92202000D01*
X43650000Y-92360750D01*
X42700461Y-92360750D01*
X43650000Y-91411212D01*
X43650000Y-91789250D01*
X43808750Y-91948000D01*
X44958000Y-91948000D01*
X44958000Y-91928000D01*
X45212000Y-91928000D01*
X45212000Y-91948000D01*
X45232000Y-91948000D01*
X45232000Y-92202000D01*
X45212000Y-92202000D01*
X45212000Y-93751250D01*
X45370750Y-93910000D01*
X46011310Y-93910000D01*
X46244699Y-93813327D01*
X46423327Y-93634698D01*
X46519266Y-93403082D01*
X46590424Y-93509577D01*
X47065092Y-93826740D01*
X47625000Y-93938113D01*
X47948886Y-93873688D01*
X48084670Y-94009472D01*
X48127071Y-94072929D01*
X48378463Y-94240904D01*
X48600148Y-94285000D01*
X48600152Y-94285000D01*
X48674999Y-94299888D01*
X48749846Y-94285000D01*
X48760199Y-94285000D01*
X48770001Y-94294802D01*
X48770001Y-94606822D01*
X48459375Y-94814375D01*
X48444904Y-94836033D01*
X48378327Y-94675302D01*
X48199699Y-94496673D01*
X47966310Y-94400000D01*
X47275750Y-94400000D01*
X47117000Y-94558750D01*
X47117000Y-95758000D01*
X47137000Y-95758000D01*
X47137000Y-96012000D01*
X47117000Y-96012000D01*
X47117000Y-97211250D01*
X47275750Y-97370000D01*
X47966310Y-97370000D01*
X48199699Y-97273327D01*
X48378327Y-97094698D01*
X48444904Y-96933967D01*
X48459375Y-96955625D01*
X48950582Y-97283839D01*
X49383744Y-97370000D01*
X49676256Y-97370000D01*
X50109418Y-97283839D01*
X50600625Y-96955625D01*
X50800000Y-96657239D01*
X50999375Y-96955625D01*
X51490582Y-97283839D01*
X51923744Y-97370000D01*
X52216256Y-97370000D01*
X52649418Y-97283839D01*
X53140625Y-96955625D01*
X53340000Y-96657239D01*
X53539375Y-96955625D01*
X54030582Y-97283839D01*
X54463744Y-97370000D01*
X54756256Y-97370000D01*
X55189418Y-97283839D01*
X55680625Y-96955625D01*
X55880000Y-96657239D01*
X56079375Y-96955625D01*
X56570582Y-97283839D01*
X57003744Y-97370000D01*
X57296256Y-97370000D01*
X57729418Y-97283839D01*
X58220625Y-96955625D01*
X58420000Y-96657239D01*
X58619375Y-96955625D01*
X59110582Y-97283839D01*
X59543744Y-97370000D01*
X59836256Y-97370000D01*
X60269418Y-97283839D01*
X60760625Y-96955625D01*
X60960000Y-96657239D01*
X61159375Y-96955625D01*
X61650582Y-97283839D01*
X62083744Y-97370000D01*
X62376256Y-97370000D01*
X62809418Y-97283839D01*
X63300625Y-96955625D01*
X63500000Y-96657239D01*
X63699375Y-96955625D01*
X64190582Y-97283839D01*
X64623744Y-97370000D01*
X64916256Y-97370000D01*
X65349418Y-97283839D01*
X65840625Y-96955625D01*
X66040000Y-96657239D01*
X66239375Y-96955625D01*
X66730582Y-97283839D01*
X67163744Y-97370000D01*
X67456256Y-97370000D01*
X67889418Y-97283839D01*
X68380625Y-96955625D01*
X68580000Y-96657239D01*
X68779375Y-96955625D01*
X69270582Y-97283839D01*
X69703744Y-97370000D01*
X69996256Y-97370000D01*
X70429418Y-97283839D01*
X70920625Y-96955625D01*
X71120000Y-96657239D01*
X71319375Y-96955625D01*
X71810582Y-97283839D01*
X72243744Y-97370000D01*
X72536256Y-97370000D01*
X72969418Y-97283839D01*
X73460625Y-96955625D01*
X73660000Y-96657239D01*
X73859375Y-96955625D01*
X74350582Y-97283839D01*
X74783744Y-97370000D01*
X75076256Y-97370000D01*
X75509418Y-97283839D01*
X76000625Y-96955625D01*
X76200000Y-96657239D01*
X76399375Y-96955625D01*
X76890582Y-97283839D01*
X77323744Y-97370000D01*
X77616256Y-97370000D01*
X78049418Y-97283839D01*
X78540625Y-96955625D01*
X78740000Y-96657239D01*
X78939375Y-96955625D01*
X79430582Y-97283839D01*
X79863744Y-97370000D01*
X80156256Y-97370000D01*
X80589418Y-97283839D01*
X81080625Y-96955625D01*
X81280000Y-96657239D01*
X81479375Y-96955625D01*
X81970582Y-97283839D01*
X82403744Y-97370000D01*
X82696256Y-97370000D01*
X83129418Y-97283839D01*
X83620625Y-96955625D01*
X83820000Y-96657239D01*
X84019375Y-96955625D01*
X84510582Y-97283839D01*
X84943744Y-97370000D01*
X85236256Y-97370000D01*
X85669418Y-97283839D01*
X86160625Y-96955625D01*
X86360000Y-96657239D01*
X86559375Y-96955625D01*
X87050582Y-97283839D01*
X87483744Y-97370000D01*
X87776256Y-97370000D01*
X88209418Y-97283839D01*
X88700625Y-96955625D01*
X88900000Y-96657239D01*
X89099375Y-96955625D01*
X89590582Y-97283839D01*
X90023744Y-97370000D01*
X90316256Y-97370000D01*
X90749418Y-97283839D01*
X91240625Y-96955625D01*
X91440000Y-96657239D01*
X91639375Y-96955625D01*
X92130582Y-97283839D01*
X92563744Y-97370000D01*
X92856256Y-97370000D01*
X93289418Y-97283839D01*
X93780625Y-96955625D01*
X93980000Y-96657239D01*
X94179375Y-96955625D01*
X94670582Y-97283839D01*
X95103744Y-97370000D01*
X95396256Y-97370000D01*
X95616745Y-97326142D01*
X95803462Y-97450903D01*
X96025147Y-97494999D01*
X96025151Y-97494999D01*
X96099998Y-97509887D01*
X96174845Y-97494999D01*
X103215154Y-97494999D01*
X103290001Y-97509887D01*
X103364848Y-97494999D01*
X103364853Y-97494999D01*
X103586538Y-97450903D01*
X103837930Y-97282928D01*
X103880332Y-97219469D01*
X104624473Y-96475329D01*
X104687929Y-96432929D01*
X104855904Y-96181537D01*
X104900000Y-95959852D01*
X104900000Y-95959848D01*
X104914888Y-95885001D01*
X104900000Y-95810154D01*
X104900000Y-75639848D01*
X104914888Y-75565000D01*
X104900000Y-75490152D01*
X104900000Y-75490148D01*
X104855904Y-75268463D01*
X104687929Y-75017071D01*
X104624473Y-74974671D01*
X104095331Y-74445530D01*
X104052929Y-74382071D01*
X103801537Y-74214096D01*
X103579852Y-74170000D01*
X103579847Y-74170000D01*
X103505000Y-74155112D01*
X103430153Y-74170000D01*
X100644802Y-74170000D01*
X100455000Y-73980199D01*
X100455000Y-73887440D01*
X100545000Y-73887440D01*
X100792765Y-73838157D01*
X101002809Y-73697809D01*
X101143157Y-73487765D01*
X101163739Y-73384292D01*
X101468076Y-73661645D01*
X101878110Y-73831476D01*
X102108000Y-73710155D01*
X102108000Y-72517000D01*
X102362000Y-72517000D01*
X102362000Y-73710155D01*
X102591890Y-73831476D01*
X103001924Y-73661645D01*
X103430183Y-73271358D01*
X103676486Y-72746892D01*
X103555819Y-72517000D01*
X102362000Y-72517000D01*
X102108000Y-72517000D01*
X102088000Y-72517000D01*
X102088000Y-72263000D01*
X102108000Y-72263000D01*
X102108000Y-69977000D01*
X102362000Y-69977000D01*
X102362000Y-72263000D01*
X103555819Y-72263000D01*
X103676486Y-72033108D01*
X103430183Y-71508642D01*
X103003729Y-71120000D01*
X103430183Y-70731358D01*
X103676486Y-70206892D01*
X103555819Y-69977000D01*
X102362000Y-69977000D01*
X102108000Y-69977000D01*
X102088000Y-69977000D01*
X102088000Y-69723000D01*
X102108000Y-69723000D01*
X102108000Y-68529845D01*
X102362000Y-68529845D01*
X102362000Y-69723000D01*
X103555819Y-69723000D01*
X103676486Y-69493108D01*
X103430183Y-68968642D01*
X103001924Y-68578355D01*
X102591890Y-68408524D01*
X102362000Y-68529845D01*
X102108000Y-68529845D01*
X101878110Y-68408524D01*
X101468076Y-68578355D01*
X101039817Y-68968642D01*
X100978843Y-69098478D01*
X100765625Y-68779375D01*
X100274418Y-68451161D01*
X99841256Y-68365000D01*
X99548744Y-68365000D01*
X99115582Y-68451161D01*
X98624375Y-68779375D01*
X98296161Y-69270582D01*
X98180908Y-69850000D01*
X98296161Y-70429418D01*
X98624375Y-70920625D01*
X98642619Y-70932816D01*
X98597235Y-70941843D01*
X98387191Y-71082191D01*
X98246843Y-71292235D01*
X98197560Y-71540000D01*
X98197560Y-71630000D01*
X96641504Y-71630000D01*
X96601740Y-71430091D01*
X96284576Y-70955423D01*
X96010000Y-70771957D01*
X96010000Y-69320587D01*
X96218435Y-69279126D01*
X96509586Y-69084586D01*
X96704126Y-68793435D01*
X96772440Y-68450000D01*
X96772440Y-67700000D01*
X96704126Y-67356565D01*
X96509586Y-67065414D01*
X96218435Y-66870874D01*
X95875000Y-66802560D01*
X94625000Y-66802560D01*
X94281565Y-66870874D01*
X93990414Y-67065414D01*
X93795874Y-67356565D01*
X93727560Y-67700000D01*
X93727560Y-68450000D01*
X93795874Y-68793435D01*
X93990414Y-69084586D01*
X94281565Y-69279126D01*
X94490001Y-69320587D01*
X94490000Y-70771957D01*
X94215423Y-70955424D01*
X93980000Y-71307759D01*
X93744576Y-70955423D01*
X93470000Y-70771957D01*
X93470000Y-65719801D01*
X93787799Y-65402002D01*
X93898748Y-65402002D01*
X93740000Y-65560750D01*
X93740000Y-66026309D01*
X93836673Y-66259698D01*
X94015301Y-66438327D01*
X94248690Y-66535000D01*
X94964250Y-66535000D01*
X95123000Y-66376250D01*
X95123000Y-65402000D01*
X95377000Y-65402000D01*
X95377000Y-66376250D01*
X95535750Y-66535000D01*
X96251310Y-66535000D01*
X96484699Y-66438327D01*
X96663327Y-66259698D01*
X96760000Y-66026309D01*
X96760000Y-65560750D01*
X96601250Y-65402000D01*
X95377000Y-65402000D01*
X95123000Y-65402000D01*
X95103000Y-65402000D01*
X95103000Y-65148000D01*
X95123000Y-65148000D01*
X95123000Y-64173750D01*
X95377000Y-64173750D01*
X95377000Y-65148000D01*
X96601250Y-65148000D01*
X96760000Y-64989250D01*
X96760000Y-64523691D01*
X96663327Y-64290302D01*
X96484699Y-64111673D01*
X96251310Y-64015000D01*
X95535750Y-64015000D01*
X95377000Y-64173750D01*
X95123000Y-64173750D01*
X95069526Y-64120276D01*
X96602912Y-62586890D01*
X100793524Y-62586890D01*
X100963355Y-62996924D01*
X101353642Y-63425183D01*
X101878108Y-63671486D01*
X102108000Y-63550819D01*
X102108000Y-62357000D01*
X102362000Y-62357000D01*
X102362000Y-63550819D01*
X102591892Y-63671486D01*
X103116358Y-63425183D01*
X103506645Y-62996924D01*
X103676476Y-62586890D01*
X103555155Y-62357000D01*
X102362000Y-62357000D01*
X102108000Y-62357000D01*
X100914845Y-62357000D01*
X100793524Y-62586890D01*
X96602912Y-62586890D01*
X98739802Y-60450000D01*
X100956822Y-60450000D01*
X101164375Y-60760625D01*
X101483478Y-60973843D01*
X101353642Y-61034817D01*
X100963355Y-61463076D01*
X100793524Y-61873110D01*
X100914845Y-62103000D01*
X102108000Y-62103000D01*
X102108000Y-62083000D01*
X102362000Y-62083000D01*
X102362000Y-62103000D01*
X103555155Y-62103000D01*
X103676476Y-61873110D01*
X103506645Y-61463076D01*
X103116358Y-61034817D01*
X102986522Y-60973843D01*
X103305625Y-60760625D01*
X103633839Y-60269418D01*
X103749092Y-59690000D01*
X103633839Y-59110582D01*
X103305625Y-58619375D01*
X103287381Y-58607184D01*
X103332765Y-58598157D01*
X103542809Y-58457809D01*
X103683157Y-58247765D01*
X103732440Y-58000000D01*
X103732440Y-56300000D01*
X103683157Y-56052235D01*
X103542809Y-55842191D01*
X103332765Y-55701843D01*
X103085000Y-55652560D01*
X101385000Y-55652560D01*
X101137235Y-55701843D01*
X100927191Y-55842191D01*
X100786843Y-56052235D01*
X100737560Y-56300000D01*
X100737560Y-56390000D01*
X99769846Y-56390000D01*
X99694999Y-56375112D01*
X99620152Y-56390000D01*
X99620148Y-56390000D01*
X99605001Y-56393013D01*
X99605001Y-53555000D01*
X99841256Y-53555000D01*
X100274418Y-53468839D01*
X100765625Y-53140625D01*
X101093839Y-52649418D01*
X101209092Y-52070000D01*
X101093839Y-51490582D01*
X100765625Y-50999375D01*
X100274418Y-50671161D01*
X99841256Y-50585000D01*
X99548744Y-50585000D01*
X99115582Y-50671161D01*
X98624375Y-50999375D01*
X98425000Y-51297761D01*
X98225625Y-50999375D01*
X97734418Y-50671161D01*
X97301256Y-50585000D01*
X97008744Y-50585000D01*
X96575582Y-50671161D01*
X96084375Y-50999375D01*
X95885000Y-51297761D01*
X95685625Y-50999375D01*
X95194418Y-50671161D01*
X94761256Y-50585000D01*
X94468744Y-50585000D01*
X94035582Y-50671161D01*
X93544375Y-50999375D01*
X93345000Y-51297761D01*
X93145625Y-50999375D01*
X92654418Y-50671161D01*
X92221256Y-50585000D01*
X91928744Y-50585000D01*
X91495582Y-50671161D01*
X91004375Y-50999375D01*
X90805000Y-51297761D01*
X90605625Y-50999375D01*
X90114418Y-50671161D01*
X89681256Y-50585000D01*
X89388744Y-50585000D01*
X88955582Y-50671161D01*
X88464375Y-50999375D01*
X88265000Y-51297761D01*
X88065625Y-50999375D01*
X87574418Y-50671161D01*
X87141256Y-50585000D01*
X86848744Y-50585000D01*
X86415582Y-50671161D01*
X85924375Y-50999375D01*
X85725000Y-51297761D01*
X85525625Y-50999375D01*
X85034418Y-50671161D01*
X84601256Y-50585000D01*
X84308744Y-50585000D01*
X83875582Y-50671161D01*
X83384375Y-50999375D01*
X83372184Y-51017619D01*
X83363157Y-50972235D01*
X83222809Y-50762191D01*
X83012765Y-50621843D01*
X82765000Y-50572560D01*
X81065000Y-50572560D01*
X80817235Y-50621843D01*
X80607191Y-50762191D01*
X80466843Y-50972235D01*
X80417560Y-51220000D01*
X80417560Y-52920000D01*
X80466843Y-53167765D01*
X80534778Y-53269436D01*
X78255530Y-55548685D01*
X78255282Y-55548850D01*
X78029908Y-55398260D01*
X77470000Y-55286887D01*
X76910091Y-55398260D01*
X76435423Y-55715424D01*
X76200000Y-56067759D01*
X75964576Y-55715423D01*
X75489908Y-55398260D01*
X74930000Y-55286887D01*
X74370091Y-55398260D01*
X73895423Y-55715424D01*
X73660000Y-56067759D01*
X73424576Y-55715423D01*
X72949908Y-55398260D01*
X72721896Y-55352905D01*
X74563592Y-53511209D01*
X74783744Y-53555000D01*
X75076256Y-53555000D01*
X75509418Y-53468839D01*
X76000625Y-53140625D01*
X76328839Y-52649418D01*
X76444092Y-52070000D01*
X76328839Y-51490582D01*
X76000625Y-50999375D01*
X75509418Y-50671161D01*
X75076256Y-50585000D01*
X74783744Y-50585000D01*
X74350582Y-50671161D01*
X73859375Y-50999375D01*
X73660000Y-51297761D01*
X73460625Y-50999375D01*
X72969418Y-50671161D01*
X72536256Y-50585000D01*
X72243744Y-50585000D01*
X71810582Y-50671161D01*
X71319375Y-50999375D01*
X71120000Y-51297761D01*
X70920625Y-50999375D01*
X70429418Y-50671161D01*
X69996256Y-50585000D01*
X69703744Y-50585000D01*
X69270582Y-50671161D01*
X68779375Y-50999375D01*
X68580000Y-51297761D01*
X68380625Y-50999375D01*
X67889418Y-50671161D01*
X67456256Y-50585000D01*
X67163744Y-50585000D01*
X66730582Y-50671161D01*
X66239375Y-50999375D01*
X66040000Y-51297761D01*
X65840625Y-50999375D01*
X65349418Y-50671161D01*
X64916256Y-50585000D01*
X64623744Y-50585000D01*
X64190582Y-50671161D01*
X63699375Y-50999375D01*
X63500000Y-51297761D01*
X63300625Y-50999375D01*
X62809418Y-50671161D01*
X62376256Y-50585000D01*
X62083744Y-50585000D01*
X61650582Y-50671161D01*
X61159375Y-50999375D01*
X60960000Y-51297761D01*
X60760625Y-50999375D01*
X60269418Y-50671161D01*
X59836256Y-50585000D01*
X59543744Y-50585000D01*
X59110582Y-50671161D01*
X58619375Y-50999375D01*
X58607184Y-51017619D01*
X58598157Y-50972235D01*
X58457809Y-50762191D01*
X58247765Y-50621843D01*
X58000000Y-50572560D01*
X56300000Y-50572560D01*
X56052235Y-50621843D01*
X55842191Y-50762191D01*
X55701843Y-50972235D01*
X55652560Y-51220000D01*
X55652560Y-52492638D01*
X52855530Y-55289669D01*
X52792071Y-55332071D01*
X52711443Y-55452740D01*
X52629908Y-55398260D01*
X52070000Y-55286887D01*
X51510091Y-55398260D01*
X51035423Y-55715424D01*
X50800000Y-56067759D01*
X50564576Y-55715423D01*
X50089908Y-55398260D01*
X49530000Y-55286887D01*
X49206114Y-55351312D01*
X48615331Y-54760530D01*
X48572929Y-54697071D01*
X48321537Y-54529096D01*
X48099852Y-54485000D01*
X48099847Y-54485000D01*
X48025000Y-54470112D01*
X47950153Y-54485000D01*
X47939802Y-54485000D01*
X47750000Y-54295199D01*
X47750000Y-53348178D01*
X48060625Y-53140625D01*
X48273843Y-52821522D01*
X48334817Y-52951358D01*
X48763076Y-53341645D01*
X49173110Y-53511476D01*
X49403000Y-53390155D01*
X49403000Y-52197000D01*
X49657000Y-52197000D01*
X49657000Y-53390155D01*
X49886890Y-53511476D01*
X50296924Y-53341645D01*
X50725183Y-52951358D01*
X50971486Y-52426892D01*
X50850819Y-52197000D01*
X49657000Y-52197000D01*
X49403000Y-52197000D01*
X49383000Y-52197000D01*
X49383000Y-51943000D01*
X49403000Y-51943000D01*
X49403000Y-50749845D01*
X49657000Y-50749845D01*
X49657000Y-51943000D01*
X50850819Y-51943000D01*
X50971486Y-51713108D01*
X50725183Y-51188642D01*
X50296924Y-50798355D01*
X49886890Y-50628524D01*
X49657000Y-50749845D01*
X49403000Y-50749845D01*
X49173110Y-50628524D01*
X48763076Y-50798355D01*
X48334817Y-51188642D01*
X48273843Y-51318478D01*
X48060625Y-50999375D01*
X47569418Y-50671161D01*
X47136256Y-50585000D01*
X46843744Y-50585000D01*
X46410582Y-50671161D01*
X45919375Y-50999375D01*
X45907184Y-51017619D01*
X45898157Y-50972235D01*
X45757809Y-50762191D01*
X45547765Y-50621843D01*
X45300000Y-50572560D01*
X43600000Y-50572560D01*
X43352235Y-50621843D01*
X43142191Y-50762191D01*
X43001843Y-50972235D01*
X42952560Y-51220000D01*
X42952560Y-52920000D01*
X43001843Y-53167765D01*
X43142191Y-53377809D01*
X43352235Y-53518157D01*
X43600000Y-53567440D01*
X43690000Y-53567440D01*
X43690001Y-55585148D01*
X43675112Y-55660000D01*
X43734097Y-55956537D01*
X43856463Y-56139670D01*
X43902072Y-56207929D01*
X43965528Y-56250329D01*
X45349671Y-57634473D01*
X45392071Y-57697929D01*
X45581487Y-57824493D01*
X45638260Y-58109909D01*
X45955424Y-58584577D01*
X46430092Y-58901740D01*
X46990000Y-59013113D01*
X47549909Y-58901740D01*
X48024577Y-58584577D01*
X48260000Y-58232241D01*
X48495424Y-58584577D01*
X48970092Y-58901740D01*
X49530000Y-59013113D01*
X50089909Y-58901740D01*
X50564577Y-58584577D01*
X50800000Y-58232241D01*
X51035424Y-58584577D01*
X51510092Y-58901740D01*
X51943451Y-58987941D01*
X51930112Y-59055000D01*
X51945000Y-59129847D01*
X51945001Y-66995197D01*
X49045530Y-69894669D01*
X48982071Y-69937071D01*
X48814096Y-70188464D01*
X48770000Y-70410149D01*
X48770000Y-70410153D01*
X48755112Y-70485000D01*
X48770000Y-70559847D01*
X48770000Y-70771957D01*
X48495423Y-70955424D01*
X48424266Y-71061918D01*
X48328327Y-70830302D01*
X48149699Y-70651673D01*
X47916310Y-70555000D01*
X47275750Y-70555000D01*
X47117000Y-70713750D01*
X47117000Y-72263000D01*
X47137000Y-72263000D01*
X47137000Y-72517000D01*
X47117000Y-72517000D01*
X47117000Y-74066250D01*
X47275750Y-74225000D01*
X47916310Y-74225000D01*
X48149699Y-74128327D01*
X48328327Y-73949698D01*
X48424266Y-73718082D01*
X48495424Y-73824577D01*
X48970092Y-74141740D01*
X49530000Y-74253113D01*
X50089909Y-74141740D01*
X50564577Y-73824577D01*
X50800000Y-73472241D01*
X51035424Y-73824577D01*
X51510092Y-74141740D01*
X52070000Y-74253113D01*
X52629909Y-74141740D01*
X53104577Y-73824577D01*
X53340000Y-73472241D01*
X53575424Y-73824577D01*
X54050092Y-74141740D01*
X54610000Y-74253113D01*
X55169909Y-74141740D01*
X55644577Y-73824577D01*
X55880000Y-73472241D01*
X56115424Y-73824577D01*
X56514181Y-74091018D01*
X55568886Y-75036312D01*
X55245000Y-74971887D01*
X54685091Y-75083260D01*
X54210423Y-75400424D01*
X53975000Y-75752759D01*
X53739576Y-75400423D01*
X53264908Y-75083260D01*
X52705000Y-74971887D01*
X52145091Y-75083260D01*
X51670423Y-75400424D01*
X51435000Y-75752759D01*
X51199576Y-75400423D01*
X50724908Y-75083260D01*
X50165000Y-74971887D01*
X49605091Y-75083260D01*
X49130423Y-75400424D01*
X48895000Y-75752759D01*
X48659576Y-75400423D01*
X48184908Y-75083260D01*
X47625000Y-74971887D01*
X47065091Y-75083260D01*
X46590423Y-75400424D01*
X46355000Y-75752759D01*
X46119576Y-75400423D01*
X45644908Y-75083260D01*
X45085000Y-74971887D01*
X44525091Y-75083260D01*
X44050423Y-75400424D01*
X43733260Y-75875092D01*
X43650000Y-76293668D01*
X43650000Y-77376333D01*
X43733260Y-77794909D01*
X44050424Y-78269577D01*
X44525092Y-78586740D01*
X45085000Y-78698113D01*
X45408886Y-78633688D01*
X45544670Y-78769472D01*
X45587071Y-78832929D01*
X45838463Y-79000904D01*
X46060148Y-79045000D01*
X46060152Y-79045000D01*
X46134999Y-79059888D01*
X46209846Y-79045000D01*
X46220199Y-79045000D01*
X46230001Y-79054802D01*
X46230001Y-79366822D01*
X45919375Y-79574375D01*
X45591161Y-80065582D01*
X45475908Y-80645000D01*
X45591161Y-81224418D01*
X45919375Y-81715625D01*
X46410582Y-82043839D01*
X46843744Y-82130000D01*
X47136256Y-82130000D01*
X47569418Y-82043839D01*
X48060625Y-81715625D01*
X48260000Y-81417239D01*
X48459375Y-81715625D01*
X48950582Y-82043839D01*
X49383744Y-82130000D01*
X49676256Y-82130000D01*
X50109418Y-82043839D01*
X50600625Y-81715625D01*
X50800000Y-81417239D01*
X50999375Y-81715625D01*
X51490582Y-82043839D01*
X51923744Y-82130000D01*
X52216256Y-82130000D01*
X52649418Y-82043839D01*
X53140625Y-81715625D01*
X53340000Y-81417239D01*
X53539375Y-81715625D01*
X54030582Y-82043839D01*
X54463744Y-82130000D01*
X54756256Y-82130000D01*
X55189418Y-82043839D01*
X55680625Y-81715625D01*
X55880000Y-81417239D01*
X56079375Y-81715625D01*
X56570582Y-82043839D01*
X57003744Y-82130000D01*
X57296256Y-82130000D01*
X57729418Y-82043839D01*
X58220625Y-81715625D01*
X58420000Y-81417239D01*
X58619375Y-81715625D01*
X59110582Y-82043839D01*
X59543744Y-82130000D01*
X59836256Y-82130000D01*
X60269418Y-82043839D01*
X60760625Y-81715625D01*
X60960000Y-81417239D01*
X61159375Y-81715625D01*
X61650582Y-82043839D01*
X62083744Y-82130000D01*
X62376256Y-82130000D01*
X62809418Y-82043839D01*
X63300625Y-81715625D01*
X63500000Y-81417239D01*
X63699375Y-81715625D01*
X64190582Y-82043839D01*
X64623744Y-82130000D01*
X64916256Y-82130000D01*
X65349418Y-82043839D01*
X65840625Y-81715625D01*
X66040000Y-81417239D01*
X66239375Y-81715625D01*
X66730582Y-82043839D01*
X67163744Y-82130000D01*
X67456256Y-82130000D01*
X67889418Y-82043839D01*
X68380625Y-81715625D01*
X68580000Y-81417239D01*
X68779375Y-81715625D01*
X69270582Y-82043839D01*
X69703744Y-82130000D01*
X69996256Y-82130000D01*
X70429418Y-82043839D01*
X70920625Y-81715625D01*
X71120000Y-81417239D01*
X71319375Y-81715625D01*
X71810582Y-82043839D01*
X72243744Y-82130000D01*
X72536256Y-82130000D01*
X72969418Y-82043839D01*
X73460625Y-81715625D01*
X73660000Y-81417239D01*
X73859375Y-81715625D01*
X74350582Y-82043839D01*
X74783744Y-82130000D01*
X75076256Y-82130000D01*
X75509418Y-82043839D01*
X76000625Y-81715625D01*
X76200000Y-81417239D01*
X76399375Y-81715625D01*
X76890582Y-82043839D01*
X77323744Y-82130000D01*
X77616256Y-82130000D01*
X78049418Y-82043839D01*
X78540625Y-81715625D01*
X78740000Y-81417239D01*
X78939375Y-81715625D01*
X79430582Y-82043839D01*
X79863744Y-82130000D01*
X80156256Y-82130000D01*
X80589418Y-82043839D01*
X81080625Y-81715625D01*
X81280000Y-81417239D01*
X81479375Y-81715625D01*
X81970582Y-82043839D01*
X82403744Y-82130000D01*
X82696256Y-82130000D01*
X83129418Y-82043839D01*
X83620625Y-81715625D01*
X83820000Y-81417239D01*
X84019375Y-81715625D01*
X84510582Y-82043839D01*
X84943744Y-82130000D01*
X85236256Y-82130000D01*
X85669418Y-82043839D01*
X86160625Y-81715625D01*
X86360000Y-81417239D01*
X86559375Y-81715625D01*
X87050582Y-82043839D01*
X87483744Y-82130000D01*
X87776256Y-82130000D01*
X88209418Y-82043839D01*
X88700625Y-81715625D01*
X88900000Y-81417239D01*
X89099375Y-81715625D01*
X89590582Y-82043839D01*
X90023744Y-82130000D01*
X90316256Y-82130000D01*
X90749418Y-82043839D01*
X91240625Y-81715625D01*
X91440000Y-81417239D01*
X91639375Y-81715625D01*
X92130582Y-82043839D01*
X92563744Y-82130000D01*
X92856256Y-82130000D01*
X93289418Y-82043839D01*
X93780625Y-81715625D01*
X93792816Y-81697381D01*
X93801843Y-81742765D01*
X93942191Y-81952809D01*
X94152235Y-82093157D01*
X94400000Y-82142440D01*
X95877338Y-82142440D01*
X95804096Y-82252054D01*
X95760000Y-82473739D01*
X95760000Y-82473743D01*
X95745112Y-82548590D01*
X95760000Y-82623437D01*
X95760000Y-82870198D01*
X94935199Y-83695000D01*
X80719846Y-83695000D01*
X80644999Y-83680112D01*
X80570152Y-83695000D01*
X80570148Y-83695000D01*
X80348463Y-83739096D01*
X80097071Y-83907071D01*
X80054671Y-83970527D01*
X79060199Y-84965000D01*
X48955482Y-84965000D01*
X49015000Y-84821310D01*
X49015000Y-84105750D01*
X48856250Y-83947000D01*
X47882000Y-83947000D01*
X47882000Y-83967000D01*
X47628000Y-83967000D01*
X47628000Y-83947000D01*
X46653750Y-83947000D01*
X46495000Y-84105750D01*
X46495000Y-84821310D01*
X46554518Y-84965000D01*
X46041150Y-84965000D01*
X46159126Y-84788435D01*
X46227440Y-84445000D01*
X46227440Y-83195000D01*
X46159126Y-82851565D01*
X46137160Y-82818690D01*
X46495000Y-82818690D01*
X46495000Y-83534250D01*
X46653750Y-83693000D01*
X47628000Y-83693000D01*
X47628000Y-82468750D01*
X47882000Y-82468750D01*
X47882000Y-83693000D01*
X48856250Y-83693000D01*
X49015000Y-83534250D01*
X49015000Y-82818690D01*
X48918327Y-82585301D01*
X48739698Y-82406673D01*
X48506309Y-82310000D01*
X48040750Y-82310000D01*
X47882000Y-82468750D01*
X47628000Y-82468750D01*
X47469250Y-82310000D01*
X47003691Y-82310000D01*
X46770302Y-82406673D01*
X46591673Y-82585301D01*
X46495000Y-82818690D01*
X46137160Y-82818690D01*
X45964586Y-82560414D01*
X45673435Y-82365874D01*
X45330000Y-82297560D01*
X44580000Y-82297560D01*
X44519413Y-82309612D01*
X43635331Y-81425530D01*
X43592929Y-81362071D01*
X43341537Y-81194096D01*
X43119852Y-81150000D01*
X43119847Y-81150000D01*
X43045000Y-81135112D01*
X42970153Y-81150000D01*
X41788163Y-81150000D01*
X41722809Y-81052191D01*
X41512765Y-80911843D01*
X41375000Y-80884440D01*
X41375000Y-79485559D01*
X41608435Y-79439126D01*
X41899586Y-79244586D01*
X42094126Y-78953435D01*
X42162440Y-78610000D01*
X42162440Y-77860000D01*
X42094126Y-77516565D01*
X41899586Y-77225414D01*
X41608435Y-77030874D01*
X41265000Y-76962560D01*
X40317243Y-76962560D01*
X40428766Y-76851037D01*
X40492219Y-76808639D01*
X40534616Y-76745187D01*
X40534619Y-76745184D01*
X40559839Y-76707440D01*
X41265000Y-76707440D01*
X41608435Y-76639126D01*
X41899586Y-76444586D01*
X42094126Y-76153435D01*
X42162440Y-75810000D01*
X42162440Y-75060000D01*
X42094126Y-74716565D01*
X41899586Y-74425414D01*
X41608435Y-74230874D01*
X41265000Y-74162560D01*
X40015000Y-74162560D01*
X39671565Y-74230874D01*
X39380414Y-74425414D01*
X39185874Y-74716565D01*
X39117560Y-75060000D01*
X39117560Y-75810000D01*
X39151180Y-75979018D01*
X38954999Y-76175199D01*
X38954999Y-72675750D01*
X45555000Y-72675750D01*
X45555000Y-73716309D01*
X45651673Y-73949698D01*
X45830301Y-74128327D01*
X46063690Y-74225000D01*
X46704250Y-74225000D01*
X46863000Y-74066250D01*
X46863000Y-72517000D01*
X45713750Y-72517000D01*
X45555000Y-72675750D01*
X38954999Y-72675750D01*
X38954999Y-71339802D01*
X39003592Y-71291209D01*
X39223744Y-71335000D01*
X39516256Y-71335000D01*
X39949418Y-71248839D01*
X40440625Y-70920625D01*
X40452816Y-70902381D01*
X40461843Y-70947765D01*
X40602191Y-71157809D01*
X40812235Y-71298157D01*
X41060000Y-71347440D01*
X42760000Y-71347440D01*
X43007765Y-71298157D01*
X43217809Y-71157809D01*
X43280697Y-71063691D01*
X45555000Y-71063691D01*
X45555000Y-72104250D01*
X45713750Y-72263000D01*
X46863000Y-72263000D01*
X46863000Y-70713750D01*
X46704250Y-70555000D01*
X46063690Y-70555000D01*
X45830301Y-70651673D01*
X45651673Y-70830302D01*
X45555000Y-71063691D01*
X43280697Y-71063691D01*
X43358157Y-70947765D01*
X43407440Y-70700000D01*
X43407440Y-69000000D01*
X43358157Y-68752235D01*
X43217809Y-68542191D01*
X43007765Y-68401843D01*
X42962381Y-68392816D01*
X42980625Y-68380625D01*
X43308839Y-67889418D01*
X43424092Y-67310000D01*
X43308839Y-66730582D01*
X42980625Y-66239375D01*
X42682239Y-66040000D01*
X42980625Y-65840625D01*
X43308839Y-65349418D01*
X43424092Y-64770000D01*
X43308839Y-64190582D01*
X42980625Y-63699375D01*
X42682239Y-63500000D01*
X42980625Y-63300625D01*
X43308839Y-62809418D01*
X43424092Y-62230000D01*
X43308839Y-61650582D01*
X42980625Y-61159375D01*
X42682239Y-60960000D01*
X42980625Y-60760625D01*
X43308839Y-60269418D01*
X43424092Y-59690000D01*
X43308839Y-59110582D01*
X42980625Y-58619375D01*
X42682239Y-58420000D01*
X42980625Y-58220625D01*
X43308839Y-57729418D01*
X43424092Y-57150000D01*
X43308839Y-56570582D01*
X42980625Y-56079375D01*
X42489418Y-55751161D01*
X42056256Y-55665000D01*
X41763744Y-55665000D01*
X41330582Y-55751161D01*
X40839375Y-56079375D01*
X40640000Y-56377761D01*
X40440625Y-56079375D01*
X39949418Y-55751161D01*
X39516256Y-55665000D01*
X39223744Y-55665000D01*
X38790582Y-55751161D01*
X38299375Y-56079375D01*
X37971161Y-56570582D01*
X37855908Y-57150000D01*
X37971161Y-57729418D01*
X38299375Y-58220625D01*
X38597761Y-58420000D01*
X38299375Y-58619375D01*
X37971161Y-59110582D01*
X37855908Y-59690000D01*
X37971161Y-60269418D01*
X38299375Y-60760625D01*
X38597761Y-60960000D01*
X38299375Y-61159375D01*
X38091822Y-61470000D01*
X35634847Y-61470000D01*
X35560000Y-61455112D01*
X35485153Y-61470000D01*
X35485148Y-61470000D01*
X35263463Y-61514096D01*
X35012071Y-61682071D01*
X34969671Y-61745527D01*
X33830530Y-62884669D01*
X33767071Y-62927071D01*
X33599096Y-63178464D01*
X33555000Y-63400149D01*
X33555000Y-63400153D01*
X33540112Y-63475000D01*
X33555000Y-63549847D01*
X33555001Y-80884440D01*
X33417235Y-80911843D01*
X33207191Y-81052191D01*
X33066843Y-81262235D01*
X33017560Y-81510000D01*
X32512000Y-81510000D01*
X32512000Y-49657000D01*
X107823000Y-49657000D01*
X107823000Y-98933000D01*
X107823000Y-98933000D01*
G37*
X107823000Y-98933000D02*
X32512000Y-98933000D01*
X32512000Y-96170750D01*
X45505000Y-96170750D01*
X45505000Y-96861309D01*
X45601673Y-97094698D01*
X45780301Y-97273327D01*
X46013690Y-97370000D01*
X46704250Y-97370000D01*
X46863000Y-97211250D01*
X46863000Y-96012000D01*
X45663750Y-96012000D01*
X45505000Y-96170750D01*
X32512000Y-96170750D01*
X32512000Y-94900750D01*
X34805000Y-94900750D01*
X34805000Y-95616310D01*
X34901673Y-95849699D01*
X35080302Y-96028327D01*
X35313691Y-96125000D01*
X35779250Y-96125000D01*
X35938000Y-95966250D01*
X35938000Y-94742000D01*
X36192000Y-94742000D01*
X36192000Y-95966250D01*
X36350750Y-96125000D01*
X36816309Y-96125000D01*
X37049698Y-96028327D01*
X37228327Y-95849699D01*
X37325000Y-95616310D01*
X37325000Y-94900750D01*
X37166250Y-94742000D01*
X36192000Y-94742000D01*
X35938000Y-94742000D01*
X34963750Y-94742000D01*
X34805000Y-94900750D01*
X32512000Y-94900750D01*
X32512000Y-93613690D01*
X34805000Y-93613690D01*
X34805000Y-94329250D01*
X34963750Y-94488000D01*
X35938000Y-94488000D01*
X35938000Y-93263750D01*
X36192000Y-93263750D01*
X36192000Y-94488000D01*
X37166250Y-94488000D01*
X37325000Y-94329250D01*
X37325000Y-93613690D01*
X37228327Y-93380301D01*
X37049698Y-93201673D01*
X36816309Y-93105000D01*
X36350750Y-93105000D01*
X36192000Y-93263750D01*
X35938000Y-93263750D01*
X35779250Y-93105000D01*
X35313691Y-93105000D01*
X35080302Y-93201673D01*
X34901673Y-93380301D01*
X34805000Y-93613690D01*
X32512000Y-93613690D01*
X32512000Y-91095750D01*
X33030000Y-91095750D01*
X33030000Y-91336310D01*
X33126673Y-91569699D01*
X33305302Y-91748327D01*
X33538691Y-91845000D01*
X34029250Y-91845000D01*
X34188000Y-91686250D01*
X34188000Y-90937000D01*
X33188750Y-90937000D01*
X33030000Y-91095750D01*
X32512000Y-91095750D01*
X32512000Y-81510000D01*
X33017560Y-81510000D01*
X33017560Y-82310000D01*
X33065298Y-82550000D01*
X33017560Y-82790000D01*
X33017560Y-83590000D01*
X33063309Y-83820000D01*
X33017560Y-84050000D01*
X33017560Y-84850000D01*
X33064304Y-85085000D01*
X33017560Y-85320000D01*
X33017560Y-86120000D01*
X33066843Y-86367765D01*
X33071184Y-86374262D01*
X33030000Y-86473690D01*
X33030000Y-86714250D01*
X33188750Y-86873000D01*
X34188000Y-86873000D01*
X34188000Y-86853000D01*
X34442000Y-86853000D01*
X34442000Y-86873000D01*
X35441250Y-86873000D01*
X35600000Y-86714250D01*
X35600000Y-86473690D01*
X35558816Y-86374262D01*
X35563157Y-86367765D01*
X35612440Y-86120000D01*
X35612440Y-85747361D01*
X37975001Y-83384801D01*
X37975001Y-86680196D01*
X37145199Y-87510000D01*
X35600000Y-87510000D01*
X35600000Y-87285750D01*
X35441250Y-87127000D01*
X34442000Y-87127000D01*
X34442000Y-87147000D01*
X34188000Y-87147000D01*
X34188000Y-87127000D01*
X33188750Y-87127000D01*
X33030000Y-87285750D01*
X33030000Y-87526310D01*
X33068627Y-87619565D01*
X33066843Y-87622235D01*
X33017560Y-87870000D01*
X33017560Y-88670000D01*
X33063309Y-88900000D01*
X33017560Y-89130000D01*
X33017560Y-89930000D01*
X33066843Y-90177765D01*
X33071184Y-90184262D01*
X33030000Y-90283690D01*
X33030000Y-90524250D01*
X33188750Y-90683000D01*
X34188000Y-90683000D01*
X34188000Y-90663000D01*
X34442000Y-90663000D01*
X34442000Y-90683000D01*
X34462000Y-90683000D01*
X34462000Y-90937000D01*
X34442000Y-90937000D01*
X34442000Y-91686250D01*
X34600750Y-91845000D01*
X35091309Y-91845000D01*
X35324698Y-91748327D01*
X35503327Y-91569699D01*
X35600000Y-91336310D01*
X35600000Y-91095750D01*
X35441252Y-90937002D01*
X35547201Y-90937002D01*
X37804671Y-93194473D01*
X37847071Y-93257929D01*
X37924191Y-93309459D01*
X37855414Y-93355414D01*
X37660874Y-93646565D01*
X37592560Y-93990000D01*
X37592560Y-95240000D01*
X37660874Y-95583435D01*
X37855414Y-95874586D01*
X38146565Y-96069126D01*
X38490000Y-96137440D01*
X39240000Y-96137440D01*
X39583435Y-96069126D01*
X39874586Y-95874586D01*
X40069126Y-95583435D01*
X40084677Y-95505254D01*
X40434126Y-95650000D01*
X40845874Y-95650000D01*
X41226280Y-95492431D01*
X41517431Y-95201280D01*
X41638625Y-94908691D01*
X45505000Y-94908691D01*
X45505000Y-95599250D01*
X45663750Y-95758000D01*
X46863000Y-95758000D01*
X46863000Y-94558750D01*
X46704250Y-94400000D01*
X46013690Y-94400000D01*
X45780301Y-94496673D01*
X45601673Y-94675302D01*
X45505000Y-94908691D01*
X41638625Y-94908691D01*
X41675000Y-94820874D01*
X41675000Y-94409126D01*
X41517431Y-94028720D01*
X41226280Y-93737569D01*
X40845874Y-93580000D01*
X40434126Y-93580000D01*
X40084677Y-93724746D01*
X40069126Y-93646565D01*
X39951150Y-93470000D01*
X41201563Y-93470000D01*
X41276410Y-93484888D01*
X41351257Y-93470000D01*
X41351262Y-93470000D01*
X41572947Y-93425904D01*
X41824339Y-93257929D01*
X41866741Y-93194470D01*
X42700461Y-92360750D01*
X43650000Y-92360750D01*
X43650000Y-93401309D01*
X43746673Y-93634698D01*
X43925301Y-93813327D01*
X44158690Y-93910000D01*
X44799250Y-93910000D01*
X44958000Y-93751250D01*
X44958000Y-92202000D01*
X43808750Y-92202000D01*
X43650000Y-92360750D01*
X42700461Y-92360750D01*
X43650000Y-91411212D01*
X43650000Y-91789250D01*
X43808750Y-91948000D01*
X44958000Y-91948000D01*
X44958000Y-91928000D01*
X45212000Y-91928000D01*
X45212000Y-91948000D01*
X45232000Y-91948000D01*
X45232000Y-92202000D01*
X45212000Y-92202000D01*
X45212000Y-93751250D01*
X45370750Y-93910000D01*
X46011310Y-93910000D01*
X46244699Y-93813327D01*
X46423327Y-93634698D01*
X46519266Y-93403082D01*
X46590424Y-93509577D01*
X47065092Y-93826740D01*
X47625000Y-93938113D01*
X47948886Y-93873688D01*
X48084670Y-94009472D01*
X48127071Y-94072929D01*
X48378463Y-94240904D01*
X48600148Y-94285000D01*
X48600152Y-94285000D01*
X48674999Y-94299888D01*
X48749846Y-94285000D01*
X48760199Y-94285000D01*
X48770001Y-94294802D01*
X48770001Y-94606822D01*
X48459375Y-94814375D01*
X48444904Y-94836033D01*
X48378327Y-94675302D01*
X48199699Y-94496673D01*
X47966310Y-94400000D01*
X47275750Y-94400000D01*
X47117000Y-94558750D01*
X47117000Y-95758000D01*
X47137000Y-95758000D01*
X47137000Y-96012000D01*
X47117000Y-96012000D01*
X47117000Y-97211250D01*
X47275750Y-97370000D01*
X47966310Y-97370000D01*
X48199699Y-97273327D01*
X48378327Y-97094698D01*
X48444904Y-96933967D01*
X48459375Y-96955625D01*
X48950582Y-97283839D01*
X49383744Y-97370000D01*
X49676256Y-97370000D01*
X50109418Y-97283839D01*
X50600625Y-96955625D01*
X50800000Y-96657239D01*
X50999375Y-96955625D01*
X51490582Y-97283839D01*
X51923744Y-97370000D01*
X52216256Y-97370000D01*
X52649418Y-97283839D01*
X53140625Y-96955625D01*
X53340000Y-96657239D01*
X53539375Y-96955625D01*
X54030582Y-97283839D01*
X54463744Y-97370000D01*
X54756256Y-97370000D01*
X55189418Y-97283839D01*
X55680625Y-96955625D01*
X55880000Y-96657239D01*
X56079375Y-96955625D01*
X56570582Y-97283839D01*
X57003744Y-97370000D01*
X57296256Y-97370000D01*
X57729418Y-97283839D01*
X58220625Y-96955625D01*
X58420000Y-96657239D01*
X58619375Y-96955625D01*
X59110582Y-97283839D01*
X59543744Y-97370000D01*
X59836256Y-97370000D01*
X60269418Y-97283839D01*
X60760625Y-96955625D01*
X60960000Y-96657239D01*
X61159375Y-96955625D01*
X61650582Y-97283839D01*
X62083744Y-97370000D01*
X62376256Y-97370000D01*
X62809418Y-97283839D01*
X63300625Y-96955625D01*
X63500000Y-96657239D01*
X63699375Y-96955625D01*
X64190582Y-97283839D01*
X64623744Y-97370000D01*
X64916256Y-97370000D01*
X65349418Y-97283839D01*
X65840625Y-96955625D01*
X66040000Y-96657239D01*
X66239375Y-96955625D01*
X66730582Y-97283839D01*
X67163744Y-97370000D01*
X67456256Y-97370000D01*
X67889418Y-97283839D01*
X68380625Y-96955625D01*
X68580000Y-96657239D01*
X68779375Y-96955625D01*
X69270582Y-97283839D01*
X69703744Y-97370000D01*
X69996256Y-97370000D01*
X70429418Y-97283839D01*
X70920625Y-96955625D01*
X71120000Y-96657239D01*
X71319375Y-96955625D01*
X71810582Y-97283839D01*
X72243744Y-97370000D01*
X72536256Y-97370000D01*
X72969418Y-97283839D01*
X73460625Y-96955625D01*
X73660000Y-96657239D01*
X73859375Y-96955625D01*
X74350582Y-97283839D01*
X74783744Y-97370000D01*
X75076256Y-97370000D01*
X75509418Y-97283839D01*
X76000625Y-96955625D01*
X76200000Y-96657239D01*
X76399375Y-96955625D01*
X76890582Y-97283839D01*
X77323744Y-97370000D01*
X77616256Y-97370000D01*
X78049418Y-97283839D01*
X78540625Y-96955625D01*
X78740000Y-96657239D01*
X78939375Y-96955625D01*
X79430582Y-97283839D01*
X79863744Y-97370000D01*
X80156256Y-97370000D01*
X80589418Y-97283839D01*
X81080625Y-96955625D01*
X81280000Y-96657239D01*
X81479375Y-96955625D01*
X81970582Y-97283839D01*
X82403744Y-97370000D01*
X82696256Y-97370000D01*
X83129418Y-97283839D01*
X83620625Y-96955625D01*
X83820000Y-96657239D01*
X84019375Y-96955625D01*
X84510582Y-97283839D01*
X84943744Y-97370000D01*
X85236256Y-97370000D01*
X85669418Y-97283839D01*
X86160625Y-96955625D01*
X86360000Y-96657239D01*
X86559375Y-96955625D01*
X87050582Y-97283839D01*
X87483744Y-97370000D01*
X87776256Y-97370000D01*
X88209418Y-97283839D01*
X88700625Y-96955625D01*
X88900000Y-96657239D01*
X89099375Y-96955625D01*
X89590582Y-97283839D01*
X90023744Y-97370000D01*
X90316256Y-97370000D01*
X90749418Y-97283839D01*
X91240625Y-96955625D01*
X91440000Y-96657239D01*
X91639375Y-96955625D01*
X92130582Y-97283839D01*
X92563744Y-97370000D01*
X92856256Y-97370000D01*
X93289418Y-97283839D01*
X93780625Y-96955625D01*
X93980000Y-96657239D01*
X94179375Y-96955625D01*
X94670582Y-97283839D01*
X95103744Y-97370000D01*
X95396256Y-97370000D01*
X95616745Y-97326142D01*
X95803462Y-97450903D01*
X96025147Y-97494999D01*
X96025151Y-97494999D01*
X96099998Y-97509887D01*
X96174845Y-97494999D01*
X103215154Y-97494999D01*
X103290001Y-97509887D01*
X103364848Y-97494999D01*
X103364853Y-97494999D01*
X103586538Y-97450903D01*
X103837930Y-97282928D01*
X103880332Y-97219469D01*
X104624473Y-96475329D01*
X104687929Y-96432929D01*
X104855904Y-96181537D01*
X104900000Y-95959852D01*
X104900000Y-95959848D01*
X104914888Y-95885001D01*
X104900000Y-95810154D01*
X104900000Y-75639848D01*
X104914888Y-75565000D01*
X104900000Y-75490152D01*
X104900000Y-75490148D01*
X104855904Y-75268463D01*
X104687929Y-75017071D01*
X104624473Y-74974671D01*
X104095331Y-74445530D01*
X104052929Y-74382071D01*
X103801537Y-74214096D01*
X103579852Y-74170000D01*
X103579847Y-74170000D01*
X103505000Y-74155112D01*
X103430153Y-74170000D01*
X100644802Y-74170000D01*
X100455000Y-73980199D01*
X100455000Y-73887440D01*
X100545000Y-73887440D01*
X100792765Y-73838157D01*
X101002809Y-73697809D01*
X101143157Y-73487765D01*
X101163739Y-73384292D01*
X101468076Y-73661645D01*
X101878110Y-73831476D01*
X102108000Y-73710155D01*
X102108000Y-72517000D01*
X102362000Y-72517000D01*
X102362000Y-73710155D01*
X102591890Y-73831476D01*
X103001924Y-73661645D01*
X103430183Y-73271358D01*
X103676486Y-72746892D01*
X103555819Y-72517000D01*
X102362000Y-72517000D01*
X102108000Y-72517000D01*
X102088000Y-72517000D01*
X102088000Y-72263000D01*
X102108000Y-72263000D01*
X102108000Y-69977000D01*
X102362000Y-69977000D01*
X102362000Y-72263000D01*
X103555819Y-72263000D01*
X103676486Y-72033108D01*
X103430183Y-71508642D01*
X103003729Y-71120000D01*
X103430183Y-70731358D01*
X103676486Y-70206892D01*
X103555819Y-69977000D01*
X102362000Y-69977000D01*
X102108000Y-69977000D01*
X102088000Y-69977000D01*
X102088000Y-69723000D01*
X102108000Y-69723000D01*
X102108000Y-68529845D01*
X102362000Y-68529845D01*
X102362000Y-69723000D01*
X103555819Y-69723000D01*
X103676486Y-69493108D01*
X103430183Y-68968642D01*
X103001924Y-68578355D01*
X102591890Y-68408524D01*
X102362000Y-68529845D01*
X102108000Y-68529845D01*
X101878110Y-68408524D01*
X101468076Y-68578355D01*
X101039817Y-68968642D01*
X100978843Y-69098478D01*
X100765625Y-68779375D01*
X100274418Y-68451161D01*
X99841256Y-68365000D01*
X99548744Y-68365000D01*
X99115582Y-68451161D01*
X98624375Y-68779375D01*
X98296161Y-69270582D01*
X98180908Y-69850000D01*
X98296161Y-70429418D01*
X98624375Y-70920625D01*
X98642619Y-70932816D01*
X98597235Y-70941843D01*
X98387191Y-71082191D01*
X98246843Y-71292235D01*
X98197560Y-71540000D01*
X98197560Y-71630000D01*
X96641504Y-71630000D01*
X96601740Y-71430091D01*
X96284576Y-70955423D01*
X96010000Y-70771957D01*
X96010000Y-69320587D01*
X96218435Y-69279126D01*
X96509586Y-69084586D01*
X96704126Y-68793435D01*
X96772440Y-68450000D01*
X96772440Y-67700000D01*
X96704126Y-67356565D01*
X96509586Y-67065414D01*
X96218435Y-66870874D01*
X95875000Y-66802560D01*
X94625000Y-66802560D01*
X94281565Y-66870874D01*
X93990414Y-67065414D01*
X93795874Y-67356565D01*
X93727560Y-67700000D01*
X93727560Y-68450000D01*
X93795874Y-68793435D01*
X93990414Y-69084586D01*
X94281565Y-69279126D01*
X94490001Y-69320587D01*
X94490000Y-70771957D01*
X94215423Y-70955424D01*
X93980000Y-71307759D01*
X93744576Y-70955423D01*
X93470000Y-70771957D01*
X93470000Y-65719801D01*
X93787799Y-65402002D01*
X93898748Y-65402002D01*
X93740000Y-65560750D01*
X93740000Y-66026309D01*
X93836673Y-66259698D01*
X94015301Y-66438327D01*
X94248690Y-66535000D01*
X94964250Y-66535000D01*
X95123000Y-66376250D01*
X95123000Y-65402000D01*
X95377000Y-65402000D01*
X95377000Y-66376250D01*
X95535750Y-66535000D01*
X96251310Y-66535000D01*
X96484699Y-66438327D01*
X96663327Y-66259698D01*
X96760000Y-66026309D01*
X96760000Y-65560750D01*
X96601250Y-65402000D01*
X95377000Y-65402000D01*
X95123000Y-65402000D01*
X95103000Y-65402000D01*
X95103000Y-65148000D01*
X95123000Y-65148000D01*
X95123000Y-64173750D01*
X95377000Y-64173750D01*
X95377000Y-65148000D01*
X96601250Y-65148000D01*
X96760000Y-64989250D01*
X96760000Y-64523691D01*
X96663327Y-64290302D01*
X96484699Y-64111673D01*
X96251310Y-64015000D01*
X95535750Y-64015000D01*
X95377000Y-64173750D01*
X95123000Y-64173750D01*
X95069526Y-64120276D01*
X96602912Y-62586890D01*
X100793524Y-62586890D01*
X100963355Y-62996924D01*
X101353642Y-63425183D01*
X101878108Y-63671486D01*
X102108000Y-63550819D01*
X102108000Y-62357000D01*
X102362000Y-62357000D01*
X102362000Y-63550819D01*
X102591892Y-63671486D01*
X103116358Y-63425183D01*
X103506645Y-62996924D01*
X103676476Y-62586890D01*
X103555155Y-62357000D01*
X102362000Y-62357000D01*
X102108000Y-62357000D01*
X100914845Y-62357000D01*
X100793524Y-62586890D01*
X96602912Y-62586890D01*
X98739802Y-60450000D01*
X100956822Y-60450000D01*
X101164375Y-60760625D01*
X101483478Y-60973843D01*
X101353642Y-61034817D01*
X100963355Y-61463076D01*
X100793524Y-61873110D01*
X100914845Y-62103000D01*
X102108000Y-62103000D01*
X102108000Y-62083000D01*
X102362000Y-62083000D01*
X102362000Y-62103000D01*
X103555155Y-62103000D01*
X103676476Y-61873110D01*
X103506645Y-61463076D01*
X103116358Y-61034817D01*
X102986522Y-60973843D01*
X103305625Y-60760625D01*
X103633839Y-60269418D01*
X103749092Y-59690000D01*
X103633839Y-59110582D01*
X103305625Y-58619375D01*
X103287381Y-58607184D01*
X103332765Y-58598157D01*
X103542809Y-58457809D01*
X103683157Y-58247765D01*
X103732440Y-58000000D01*
X103732440Y-56300000D01*
X103683157Y-56052235D01*
X103542809Y-55842191D01*
X103332765Y-55701843D01*
X103085000Y-55652560D01*
X101385000Y-55652560D01*
X101137235Y-55701843D01*
X100927191Y-55842191D01*
X100786843Y-56052235D01*
X100737560Y-56300000D01*
X100737560Y-56390000D01*
X99769846Y-56390000D01*
X99694999Y-56375112D01*
X99620152Y-56390000D01*
X99620148Y-56390000D01*
X99605001Y-56393013D01*
X99605001Y-53555000D01*
X99841256Y-53555000D01*
X100274418Y-53468839D01*
X100765625Y-53140625D01*
X101093839Y-52649418D01*
X101209092Y-52070000D01*
X101093839Y-51490582D01*
X100765625Y-50999375D01*
X100274418Y-50671161D01*
X99841256Y-50585000D01*
X99548744Y-50585000D01*
X99115582Y-50671161D01*
X98624375Y-50999375D01*
X98425000Y-51297761D01*
X98225625Y-50999375D01*
X97734418Y-50671161D01*
X97301256Y-50585000D01*
X97008744Y-50585000D01*
X96575582Y-50671161D01*
X96084375Y-50999375D01*
X95885000Y-51297761D01*
X95685625Y-50999375D01*
X95194418Y-50671161D01*
X94761256Y-50585000D01*
X94468744Y-50585000D01*
X94035582Y-50671161D01*
X93544375Y-50999375D01*
X93345000Y-51297761D01*
X93145625Y-50999375D01*
X92654418Y-50671161D01*
X92221256Y-50585000D01*
X91928744Y-50585000D01*
X91495582Y-50671161D01*
X91004375Y-50999375D01*
X90805000Y-51297761D01*
X90605625Y-50999375D01*
X90114418Y-50671161D01*
X89681256Y-50585000D01*
X89388744Y-50585000D01*
X88955582Y-50671161D01*
X88464375Y-50999375D01*
X88265000Y-51297761D01*
X88065625Y-50999375D01*
X87574418Y-50671161D01*
X87141256Y-50585000D01*
X86848744Y-50585000D01*
X86415582Y-50671161D01*
X85924375Y-50999375D01*
X85725000Y-51297761D01*
X85525625Y-50999375D01*
X85034418Y-50671161D01*
X84601256Y-50585000D01*
X84308744Y-50585000D01*
X83875582Y-50671161D01*
X83384375Y-50999375D01*
X83372184Y-51017619D01*
X83363157Y-50972235D01*
X83222809Y-50762191D01*
X83012765Y-50621843D01*
X82765000Y-50572560D01*
X81065000Y-50572560D01*
X80817235Y-50621843D01*
X80607191Y-50762191D01*
X80466843Y-50972235D01*
X80417560Y-51220000D01*
X80417560Y-52920000D01*
X80466843Y-53167765D01*
X80534778Y-53269436D01*
X78255530Y-55548685D01*
X78255282Y-55548850D01*
X78029908Y-55398260D01*
X77470000Y-55286887D01*
X76910091Y-55398260D01*
X76435423Y-55715424D01*
X76200000Y-56067759D01*
X75964576Y-55715423D01*
X75489908Y-55398260D01*
X74930000Y-55286887D01*
X74370091Y-55398260D01*
X73895423Y-55715424D01*
X73660000Y-56067759D01*
X73424576Y-55715423D01*
X72949908Y-55398260D01*
X72721896Y-55352905D01*
X74563592Y-53511209D01*
X74783744Y-53555000D01*
X75076256Y-53555000D01*
X75509418Y-53468839D01*
X76000625Y-53140625D01*
X76328839Y-52649418D01*
X76444092Y-52070000D01*
X76328839Y-51490582D01*
X76000625Y-50999375D01*
X75509418Y-50671161D01*
X75076256Y-50585000D01*
X74783744Y-50585000D01*
X74350582Y-50671161D01*
X73859375Y-50999375D01*
X73660000Y-51297761D01*
X73460625Y-50999375D01*
X72969418Y-50671161D01*
X72536256Y-50585000D01*
X72243744Y-50585000D01*
X71810582Y-50671161D01*
X71319375Y-50999375D01*
X71120000Y-51297761D01*
X70920625Y-50999375D01*
X70429418Y-50671161D01*
X69996256Y-50585000D01*
X69703744Y-50585000D01*
X69270582Y-50671161D01*
X68779375Y-50999375D01*
X68580000Y-51297761D01*
X68380625Y-50999375D01*
X67889418Y-50671161D01*
X67456256Y-50585000D01*
X67163744Y-50585000D01*
X66730582Y-50671161D01*
X66239375Y-50999375D01*
X66040000Y-51297761D01*
X65840625Y-50999375D01*
X65349418Y-50671161D01*
X64916256Y-50585000D01*
X64623744Y-50585000D01*
X64190582Y-50671161D01*
X63699375Y-50999375D01*
X63500000Y-51297761D01*
X63300625Y-50999375D01*
X62809418Y-50671161D01*
X62376256Y-50585000D01*
X62083744Y-50585000D01*
X61650582Y-50671161D01*
X61159375Y-50999375D01*
X60960000Y-51297761D01*
X60760625Y-50999375D01*
X60269418Y-50671161D01*
X59836256Y-50585000D01*
X59543744Y-50585000D01*
X59110582Y-50671161D01*
X58619375Y-50999375D01*
X58607184Y-51017619D01*
X58598157Y-50972235D01*
X58457809Y-50762191D01*
X58247765Y-50621843D01*
X58000000Y-50572560D01*
X56300000Y-50572560D01*
X56052235Y-50621843D01*
X55842191Y-50762191D01*
X55701843Y-50972235D01*
X55652560Y-51220000D01*
X55652560Y-52492638D01*
X52855530Y-55289669D01*
X52792071Y-55332071D01*
X52711443Y-55452740D01*
X52629908Y-55398260D01*
X52070000Y-55286887D01*
X51510091Y-55398260D01*
X51035423Y-55715424D01*
X50800000Y-56067759D01*
X50564576Y-55715423D01*
X50089908Y-55398260D01*
X49530000Y-55286887D01*
X49206114Y-55351312D01*
X48615331Y-54760530D01*
X48572929Y-54697071D01*
X48321537Y-54529096D01*
X48099852Y-54485000D01*
X48099847Y-54485000D01*
X48025000Y-54470112D01*
X47950153Y-54485000D01*
X47939802Y-54485000D01*
X47750000Y-54295199D01*
X47750000Y-53348178D01*
X48060625Y-53140625D01*
X48273843Y-52821522D01*
X48334817Y-52951358D01*
X48763076Y-53341645D01*
X49173110Y-53511476D01*
X49403000Y-53390155D01*
X49403000Y-52197000D01*
X49657000Y-52197000D01*
X49657000Y-53390155D01*
X49886890Y-53511476D01*
X50296924Y-53341645D01*
X50725183Y-52951358D01*
X50971486Y-52426892D01*
X50850819Y-52197000D01*
X49657000Y-52197000D01*
X49403000Y-52197000D01*
X49383000Y-52197000D01*
X49383000Y-51943000D01*
X49403000Y-51943000D01*
X49403000Y-50749845D01*
X49657000Y-50749845D01*
X49657000Y-51943000D01*
X50850819Y-51943000D01*
X50971486Y-51713108D01*
X50725183Y-51188642D01*
X50296924Y-50798355D01*
X49886890Y-50628524D01*
X49657000Y-50749845D01*
X49403000Y-50749845D01*
X49173110Y-50628524D01*
X48763076Y-50798355D01*
X48334817Y-51188642D01*
X48273843Y-51318478D01*
X48060625Y-50999375D01*
X47569418Y-50671161D01*
X47136256Y-50585000D01*
X46843744Y-50585000D01*
X46410582Y-50671161D01*
X45919375Y-50999375D01*
X45907184Y-51017619D01*
X45898157Y-50972235D01*
X45757809Y-50762191D01*
X45547765Y-50621843D01*
X45300000Y-50572560D01*
X43600000Y-50572560D01*
X43352235Y-50621843D01*
X43142191Y-50762191D01*
X43001843Y-50972235D01*
X42952560Y-51220000D01*
X42952560Y-52920000D01*
X43001843Y-53167765D01*
X43142191Y-53377809D01*
X43352235Y-53518157D01*
X43600000Y-53567440D01*
X43690000Y-53567440D01*
X43690001Y-55585148D01*
X43675112Y-55660000D01*
X43734097Y-55956537D01*
X43856463Y-56139670D01*
X43902072Y-56207929D01*
X43965528Y-56250329D01*
X45349671Y-57634473D01*
X45392071Y-57697929D01*
X45581487Y-57824493D01*
X45638260Y-58109909D01*
X45955424Y-58584577D01*
X46430092Y-58901740D01*
X46990000Y-59013113D01*
X47549909Y-58901740D01*
X48024577Y-58584577D01*
X48260000Y-58232241D01*
X48495424Y-58584577D01*
X48970092Y-58901740D01*
X49530000Y-59013113D01*
X50089909Y-58901740D01*
X50564577Y-58584577D01*
X50800000Y-58232241D01*
X51035424Y-58584577D01*
X51510092Y-58901740D01*
X51943451Y-58987941D01*
X51930112Y-59055000D01*
X51945000Y-59129847D01*
X51945001Y-66995197D01*
X49045530Y-69894669D01*
X48982071Y-69937071D01*
X48814096Y-70188464D01*
X48770000Y-70410149D01*
X48770000Y-70410153D01*
X48755112Y-70485000D01*
X48770000Y-70559847D01*
X48770000Y-70771957D01*
X48495423Y-70955424D01*
X48424266Y-71061918D01*
X48328327Y-70830302D01*
X48149699Y-70651673D01*
X47916310Y-70555000D01*
X47275750Y-70555000D01*
X47117000Y-70713750D01*
X47117000Y-72263000D01*
X47137000Y-72263000D01*
X47137000Y-72517000D01*
X47117000Y-72517000D01*
X47117000Y-74066250D01*
X47275750Y-74225000D01*
X47916310Y-74225000D01*
X48149699Y-74128327D01*
X48328327Y-73949698D01*
X48424266Y-73718082D01*
X48495424Y-73824577D01*
X48970092Y-74141740D01*
X49530000Y-74253113D01*
X50089909Y-74141740D01*
X50564577Y-73824577D01*
X50800000Y-73472241D01*
X51035424Y-73824577D01*
X51510092Y-74141740D01*
X52070000Y-74253113D01*
X52629909Y-74141740D01*
X53104577Y-73824577D01*
X53340000Y-73472241D01*
X53575424Y-73824577D01*
X54050092Y-74141740D01*
X54610000Y-74253113D01*
X55169909Y-74141740D01*
X55644577Y-73824577D01*
X55880000Y-73472241D01*
X56115424Y-73824577D01*
X56514181Y-74091018D01*
X55568886Y-75036312D01*
X55245000Y-74971887D01*
X54685091Y-75083260D01*
X54210423Y-75400424D01*
X53975000Y-75752759D01*
X53739576Y-75400423D01*
X53264908Y-75083260D01*
X52705000Y-74971887D01*
X52145091Y-75083260D01*
X51670423Y-75400424D01*
X51435000Y-75752759D01*
X51199576Y-75400423D01*
X50724908Y-75083260D01*
X50165000Y-74971887D01*
X49605091Y-75083260D01*
X49130423Y-75400424D01*
X48895000Y-75752759D01*
X48659576Y-75400423D01*
X48184908Y-75083260D01*
X47625000Y-74971887D01*
X47065091Y-75083260D01*
X46590423Y-75400424D01*
X46355000Y-75752759D01*
X46119576Y-75400423D01*
X45644908Y-75083260D01*
X45085000Y-74971887D01*
X44525091Y-75083260D01*
X44050423Y-75400424D01*
X43733260Y-75875092D01*
X43650000Y-76293668D01*
X43650000Y-77376333D01*
X43733260Y-77794909D01*
X44050424Y-78269577D01*
X44525092Y-78586740D01*
X45085000Y-78698113D01*
X45408886Y-78633688D01*
X45544670Y-78769472D01*
X45587071Y-78832929D01*
X45838463Y-79000904D01*
X46060148Y-79045000D01*
X46060152Y-79045000D01*
X46134999Y-79059888D01*
X46209846Y-79045000D01*
X46220199Y-79045000D01*
X46230001Y-79054802D01*
X46230001Y-79366822D01*
X45919375Y-79574375D01*
X45591161Y-80065582D01*
X45475908Y-80645000D01*
X45591161Y-81224418D01*
X45919375Y-81715625D01*
X46410582Y-82043839D01*
X46843744Y-82130000D01*
X47136256Y-82130000D01*
X47569418Y-82043839D01*
X48060625Y-81715625D01*
X48260000Y-81417239D01*
X48459375Y-81715625D01*
X48950582Y-82043839D01*
X49383744Y-82130000D01*
X49676256Y-82130000D01*
X50109418Y-82043839D01*
X50600625Y-81715625D01*
X50800000Y-81417239D01*
X50999375Y-81715625D01*
X51490582Y-82043839D01*
X51923744Y-82130000D01*
X52216256Y-82130000D01*
X52649418Y-82043839D01*
X53140625Y-81715625D01*
X53340000Y-81417239D01*
X53539375Y-81715625D01*
X54030582Y-82043839D01*
X54463744Y-82130000D01*
X54756256Y-82130000D01*
X55189418Y-82043839D01*
X55680625Y-81715625D01*
X55880000Y-81417239D01*
X56079375Y-81715625D01*
X56570582Y-82043839D01*
X57003744Y-82130000D01*
X57296256Y-82130000D01*
X57729418Y-82043839D01*
X58220625Y-81715625D01*
X58420000Y-81417239D01*
X58619375Y-81715625D01*
X59110582Y-82043839D01*
X59543744Y-82130000D01*
X59836256Y-82130000D01*
X60269418Y-82043839D01*
X60760625Y-81715625D01*
X60960000Y-81417239D01*
X61159375Y-81715625D01*
X61650582Y-82043839D01*
X62083744Y-82130000D01*
X62376256Y-82130000D01*
X62809418Y-82043839D01*
X63300625Y-81715625D01*
X63500000Y-81417239D01*
X63699375Y-81715625D01*
X64190582Y-82043839D01*
X64623744Y-82130000D01*
X64916256Y-82130000D01*
X65349418Y-82043839D01*
X65840625Y-81715625D01*
X66040000Y-81417239D01*
X66239375Y-81715625D01*
X66730582Y-82043839D01*
X67163744Y-82130000D01*
X67456256Y-82130000D01*
X67889418Y-82043839D01*
X68380625Y-81715625D01*
X68580000Y-81417239D01*
X68779375Y-81715625D01*
X69270582Y-82043839D01*
X69703744Y-82130000D01*
X69996256Y-82130000D01*
X70429418Y-82043839D01*
X70920625Y-81715625D01*
X71120000Y-81417239D01*
X71319375Y-81715625D01*
X71810582Y-82043839D01*
X72243744Y-82130000D01*
X72536256Y-82130000D01*
X72969418Y-82043839D01*
X73460625Y-81715625D01*
X73660000Y-81417239D01*
X73859375Y-81715625D01*
X74350582Y-82043839D01*
X74783744Y-82130000D01*
X75076256Y-82130000D01*
X75509418Y-82043839D01*
X76000625Y-81715625D01*
X76200000Y-81417239D01*
X76399375Y-81715625D01*
X76890582Y-82043839D01*
X77323744Y-82130000D01*
X77616256Y-82130000D01*
X78049418Y-82043839D01*
X78540625Y-81715625D01*
X78740000Y-81417239D01*
X78939375Y-81715625D01*
X79430582Y-82043839D01*
X79863744Y-82130000D01*
X80156256Y-82130000D01*
X80589418Y-82043839D01*
X81080625Y-81715625D01*
X81280000Y-81417239D01*
X81479375Y-81715625D01*
X81970582Y-82043839D01*
X82403744Y-82130000D01*
X82696256Y-82130000D01*
X83129418Y-82043839D01*
X83620625Y-81715625D01*
X83820000Y-81417239D01*
X84019375Y-81715625D01*
X84510582Y-82043839D01*
X84943744Y-82130000D01*
X85236256Y-82130000D01*
X85669418Y-82043839D01*
X86160625Y-81715625D01*
X86360000Y-81417239D01*
X86559375Y-81715625D01*
X87050582Y-82043839D01*
X87483744Y-82130000D01*
X87776256Y-82130000D01*
X88209418Y-82043839D01*
X88700625Y-81715625D01*
X88900000Y-81417239D01*
X89099375Y-81715625D01*
X89590582Y-82043839D01*
X90023744Y-82130000D01*
X90316256Y-82130000D01*
X90749418Y-82043839D01*
X91240625Y-81715625D01*
X91440000Y-81417239D01*
X91639375Y-81715625D01*
X92130582Y-82043839D01*
X92563744Y-82130000D01*
X92856256Y-82130000D01*
X93289418Y-82043839D01*
X93780625Y-81715625D01*
X93792816Y-81697381D01*
X93801843Y-81742765D01*
X93942191Y-81952809D01*
X94152235Y-82093157D01*
X94400000Y-82142440D01*
X95877338Y-82142440D01*
X95804096Y-82252054D01*
X95760000Y-82473739D01*
X95760000Y-82473743D01*
X95745112Y-82548590D01*
X95760000Y-82623437D01*
X95760000Y-82870198D01*
X94935199Y-83695000D01*
X80719846Y-83695000D01*
X80644999Y-83680112D01*
X80570152Y-83695000D01*
X80570148Y-83695000D01*
X80348463Y-83739096D01*
X80097071Y-83907071D01*
X80054671Y-83970527D01*
X79060199Y-84965000D01*
X48955482Y-84965000D01*
X49015000Y-84821310D01*
X49015000Y-84105750D01*
X48856250Y-83947000D01*
X47882000Y-83947000D01*
X47882000Y-83967000D01*
X47628000Y-83967000D01*
X47628000Y-83947000D01*
X46653750Y-83947000D01*
X46495000Y-84105750D01*
X46495000Y-84821310D01*
X46554518Y-84965000D01*
X46041150Y-84965000D01*
X46159126Y-84788435D01*
X46227440Y-84445000D01*
X46227440Y-83195000D01*
X46159126Y-82851565D01*
X46137160Y-82818690D01*
X46495000Y-82818690D01*
X46495000Y-83534250D01*
X46653750Y-83693000D01*
X47628000Y-83693000D01*
X47628000Y-82468750D01*
X47882000Y-82468750D01*
X47882000Y-83693000D01*
X48856250Y-83693000D01*
X49015000Y-83534250D01*
X49015000Y-82818690D01*
X48918327Y-82585301D01*
X48739698Y-82406673D01*
X48506309Y-82310000D01*
X48040750Y-82310000D01*
X47882000Y-82468750D01*
X47628000Y-82468750D01*
X47469250Y-82310000D01*
X47003691Y-82310000D01*
X46770302Y-82406673D01*
X46591673Y-82585301D01*
X46495000Y-82818690D01*
X46137160Y-82818690D01*
X45964586Y-82560414D01*
X45673435Y-82365874D01*
X45330000Y-82297560D01*
X44580000Y-82297560D01*
X44519413Y-82309612D01*
X43635331Y-81425530D01*
X43592929Y-81362071D01*
X43341537Y-81194096D01*
X43119852Y-81150000D01*
X43119847Y-81150000D01*
X43045000Y-81135112D01*
X42970153Y-81150000D01*
X41788163Y-81150000D01*
X41722809Y-81052191D01*
X41512765Y-80911843D01*
X41375000Y-80884440D01*
X41375000Y-79485559D01*
X41608435Y-79439126D01*
X41899586Y-79244586D01*
X42094126Y-78953435D01*
X42162440Y-78610000D01*
X42162440Y-77860000D01*
X42094126Y-77516565D01*
X41899586Y-77225414D01*
X41608435Y-77030874D01*
X41265000Y-76962560D01*
X40317243Y-76962560D01*
X40428766Y-76851037D01*
X40492219Y-76808639D01*
X40534616Y-76745187D01*
X40534619Y-76745184D01*
X40559839Y-76707440D01*
X41265000Y-76707440D01*
X41608435Y-76639126D01*
X41899586Y-76444586D01*
X42094126Y-76153435D01*
X42162440Y-75810000D01*
X42162440Y-75060000D01*
X42094126Y-74716565D01*
X41899586Y-74425414D01*
X41608435Y-74230874D01*
X41265000Y-74162560D01*
X40015000Y-74162560D01*
X39671565Y-74230874D01*
X39380414Y-74425414D01*
X39185874Y-74716565D01*
X39117560Y-75060000D01*
X39117560Y-75810000D01*
X39151180Y-75979018D01*
X38954999Y-76175199D01*
X38954999Y-72675750D01*
X45555000Y-72675750D01*
X45555000Y-73716309D01*
X45651673Y-73949698D01*
X45830301Y-74128327D01*
X46063690Y-74225000D01*
X46704250Y-74225000D01*
X46863000Y-74066250D01*
X46863000Y-72517000D01*
X45713750Y-72517000D01*
X45555000Y-72675750D01*
X38954999Y-72675750D01*
X38954999Y-71339802D01*
X39003592Y-71291209D01*
X39223744Y-71335000D01*
X39516256Y-71335000D01*
X39949418Y-71248839D01*
X40440625Y-70920625D01*
X40452816Y-70902381D01*
X40461843Y-70947765D01*
X40602191Y-71157809D01*
X40812235Y-71298157D01*
X41060000Y-71347440D01*
X42760000Y-71347440D01*
X43007765Y-71298157D01*
X43217809Y-71157809D01*
X43280697Y-71063691D01*
X45555000Y-71063691D01*
X45555000Y-72104250D01*
X45713750Y-72263000D01*
X46863000Y-72263000D01*
X46863000Y-70713750D01*
X46704250Y-70555000D01*
X46063690Y-70555000D01*
X45830301Y-70651673D01*
X45651673Y-70830302D01*
X45555000Y-71063691D01*
X43280697Y-71063691D01*
X43358157Y-70947765D01*
X43407440Y-70700000D01*
X43407440Y-69000000D01*
X43358157Y-68752235D01*
X43217809Y-68542191D01*
X43007765Y-68401843D01*
X42962381Y-68392816D01*
X42980625Y-68380625D01*
X43308839Y-67889418D01*
X43424092Y-67310000D01*
X43308839Y-66730582D01*
X42980625Y-66239375D01*
X42682239Y-66040000D01*
X42980625Y-65840625D01*
X43308839Y-65349418D01*
X43424092Y-64770000D01*
X43308839Y-64190582D01*
X42980625Y-63699375D01*
X42682239Y-63500000D01*
X42980625Y-63300625D01*
X43308839Y-62809418D01*
X43424092Y-62230000D01*
X43308839Y-61650582D01*
X42980625Y-61159375D01*
X42682239Y-60960000D01*
X42980625Y-60760625D01*
X43308839Y-60269418D01*
X43424092Y-59690000D01*
X43308839Y-59110582D01*
X42980625Y-58619375D01*
X42682239Y-58420000D01*
X42980625Y-58220625D01*
X43308839Y-57729418D01*
X43424092Y-57150000D01*
X43308839Y-56570582D01*
X42980625Y-56079375D01*
X42489418Y-55751161D01*
X42056256Y-55665000D01*
X41763744Y-55665000D01*
X41330582Y-55751161D01*
X40839375Y-56079375D01*
X40640000Y-56377761D01*
X40440625Y-56079375D01*
X39949418Y-55751161D01*
X39516256Y-55665000D01*
X39223744Y-55665000D01*
X38790582Y-55751161D01*
X38299375Y-56079375D01*
X37971161Y-56570582D01*
X37855908Y-57150000D01*
X37971161Y-57729418D01*
X38299375Y-58220625D01*
X38597761Y-58420000D01*
X38299375Y-58619375D01*
X37971161Y-59110582D01*
X37855908Y-59690000D01*
X37971161Y-60269418D01*
X38299375Y-60760625D01*
X38597761Y-60960000D01*
X38299375Y-61159375D01*
X38091822Y-61470000D01*
X35634847Y-61470000D01*
X35560000Y-61455112D01*
X35485153Y-61470000D01*
X35485148Y-61470000D01*
X35263463Y-61514096D01*
X35012071Y-61682071D01*
X34969671Y-61745527D01*
X33830530Y-62884669D01*
X33767071Y-62927071D01*
X33599096Y-63178464D01*
X33555000Y-63400149D01*
X33555000Y-63400153D01*
X33540112Y-63475000D01*
X33555000Y-63549847D01*
X33555001Y-80884440D01*
X33417235Y-80911843D01*
X33207191Y-81052191D01*
X33066843Y-81262235D01*
X33017560Y-81510000D01*
X32512000Y-81510000D01*
X32512000Y-49657000D01*
X107823000Y-49657000D01*
X107823000Y-98933000D01*
G36*
X89388744Y-53555000D02*
X89515199Y-53555000D01*
X88415530Y-54654669D01*
X88352071Y-54697071D01*
X88184096Y-54948464D01*
X88140000Y-55170149D01*
X88140000Y-55170153D01*
X88125112Y-55245000D01*
X88140000Y-55319847D01*
X88140000Y-55418422D01*
X88061819Y-55375633D01*
X87979039Y-55358096D01*
X87757000Y-55480085D01*
X87757000Y-57023000D01*
X87777000Y-57023000D01*
X87777000Y-57277000D01*
X87757000Y-57277000D01*
X87757000Y-58819915D01*
X87979039Y-58941904D01*
X88061819Y-58924367D01*
X88140001Y-58881577D01*
X88140001Y-60010197D01*
X79525530Y-68624669D01*
X79462071Y-68667071D01*
X79294096Y-68918464D01*
X79250000Y-69140149D01*
X79250000Y-69140153D01*
X79235112Y-69215000D01*
X79250000Y-69289847D01*
X79250000Y-70771957D01*
X78975423Y-70955424D01*
X78740000Y-71307759D01*
X78504576Y-70955423D01*
X78230000Y-70771957D01*
X78230000Y-69529801D01*
X86844473Y-60915329D01*
X86907929Y-60872929D01*
X87075904Y-60621537D01*
X87120000Y-60399852D01*
X87120000Y-60399848D01*
X87134888Y-60325000D01*
X87120000Y-60250152D01*
X87120000Y-58881578D01*
X87198181Y-58924367D01*
X87280961Y-58941904D01*
X87503000Y-58819915D01*
X87503000Y-57277000D01*
X87483000Y-57277000D01*
X87483000Y-57023000D01*
X87503000Y-57023000D01*
X87503000Y-55480085D01*
X87307258Y-55372543D01*
X89168592Y-53511209D01*
X89388744Y-53555000D01*
X89388744Y-53555000D01*
G37*
X89388744Y-53555000D02*
X89515199Y-53555000D01*
X88415530Y-54654669D01*
X88352071Y-54697071D01*
X88184096Y-54948464D01*
X88140000Y-55170149D01*
X88140000Y-55170153D01*
X88125112Y-55245000D01*
X88140000Y-55319847D01*
X88140000Y-55418422D01*
X88061819Y-55375633D01*
X87979039Y-55358096D01*
X87757000Y-55480085D01*
X87757000Y-57023000D01*
X87777000Y-57023000D01*
X87777000Y-57277000D01*
X87757000Y-57277000D01*
X87757000Y-58819915D01*
X87979039Y-58941904D01*
X88061819Y-58924367D01*
X88140001Y-58881577D01*
X88140001Y-60010197D01*
X79525530Y-68624669D01*
X79462071Y-68667071D01*
X79294096Y-68918464D01*
X79250000Y-69140149D01*
X79250000Y-69140153D01*
X79235112Y-69215000D01*
X79250000Y-69289847D01*
X79250000Y-70771957D01*
X78975423Y-70955424D01*
X78740000Y-71307759D01*
X78504576Y-70955423D01*
X78230000Y-70771957D01*
X78230000Y-69529801D01*
X86844473Y-60915329D01*
X86907929Y-60872929D01*
X87075904Y-60621537D01*
X87120000Y-60399852D01*
X87120000Y-60399848D01*
X87134888Y-60325000D01*
X87120000Y-60250152D01*
X87120000Y-58881578D01*
X87198181Y-58924367D01*
X87280961Y-58941904D01*
X87503000Y-58819915D01*
X87503000Y-57277000D01*
X87483000Y-57277000D01*
X87483000Y-57023000D01*
X87503000Y-57023000D01*
X87503000Y-55480085D01*
X87307258Y-55372543D01*
X89168592Y-53511209D01*
X89388744Y-53555000D01*
G36*
X80520001Y-61280197D02*
X71905530Y-69894669D01*
X71842071Y-69937071D01*
X71674096Y-70188464D01*
X71630000Y-70410149D01*
X71630000Y-70410153D01*
X71615112Y-70485000D01*
X71630000Y-70559847D01*
X71630000Y-70771957D01*
X71355423Y-70955424D01*
X71120000Y-71307759D01*
X70884576Y-70955423D01*
X70610000Y-70771957D01*
X70610000Y-70653263D01*
X79224473Y-62038791D01*
X79287929Y-61996391D01*
X79455904Y-61744999D01*
X79500000Y-61523314D01*
X79500000Y-61523310D01*
X79514888Y-61448462D01*
X79500000Y-61373614D01*
X79500000Y-58911667D01*
X80010000Y-59013113D01*
X80520001Y-58911667D01*
X80520001Y-61280197D01*
X80520001Y-61280197D01*
G37*
X80520001Y-61280197D02*
X71905530Y-69894669D01*
X71842071Y-69937071D01*
X71674096Y-70188464D01*
X71630000Y-70410149D01*
X71630000Y-70410153D01*
X71615112Y-70485000D01*
X71630000Y-70559847D01*
X71630000Y-70771957D01*
X71355423Y-70955424D01*
X71120000Y-71307759D01*
X70884576Y-70955423D01*
X70610000Y-70771957D01*
X70610000Y-70653263D01*
X79224473Y-62038791D01*
X79287929Y-61996391D01*
X79455904Y-61744999D01*
X79500000Y-61523314D01*
X79500000Y-61523310D01*
X79514888Y-61448462D01*
X79500000Y-61373614D01*
X79500000Y-58911667D01*
X80010000Y-59013113D01*
X80520001Y-58911667D01*
X80520001Y-61280197D01*
G36*
X54050092Y-58901740D02*
X54610000Y-59013113D01*
X55120000Y-58911667D01*
X55120001Y-66360197D01*
X51585530Y-69894669D01*
X51522071Y-69937071D01*
X51354096Y-70188464D01*
X51310000Y-70410149D01*
X51310000Y-70410153D01*
X51295112Y-70485000D01*
X51310000Y-70559847D01*
X51310000Y-70771957D01*
X51035423Y-70955424D01*
X50800000Y-71307759D01*
X50564576Y-70955423D01*
X50306691Y-70783110D01*
X53189473Y-67900329D01*
X53252929Y-67857929D01*
X53420904Y-67606537D01*
X53465000Y-67384852D01*
X53465000Y-67384848D01*
X53479888Y-67310001D01*
X53465000Y-67235154D01*
X53465000Y-59369801D01*
X53824473Y-59010329D01*
X53887929Y-58967929D01*
X53968557Y-58847260D01*
X54050092Y-58901740D01*
X54050092Y-58901740D01*
G37*
X54050092Y-58901740D02*
X54610000Y-59013113D01*
X55120000Y-58911667D01*
X55120001Y-66360197D01*
X51585530Y-69894669D01*
X51522071Y-69937071D01*
X51354096Y-70188464D01*
X51310000Y-70410149D01*
X51310000Y-70410153D01*
X51295112Y-70485000D01*
X51310000Y-70559847D01*
X51310000Y-70771957D01*
X51035423Y-70955424D01*
X50800000Y-71307759D01*
X50564576Y-70955423D01*
X50306691Y-70783110D01*
X53189473Y-67900329D01*
X53252929Y-67857929D01*
X53420904Y-67606537D01*
X53465000Y-67384852D01*
X53465000Y-67384848D01*
X53479888Y-67310001D01*
X53465000Y-67235154D01*
X53465000Y-59369801D01*
X53824473Y-59010329D01*
X53887929Y-58967929D01*
X53968557Y-58847260D01*
X54050092Y-58901740D01*
G36*
X70360001Y-66360197D02*
X66825530Y-69894669D01*
X66762071Y-69937071D01*
X66594096Y-70188464D01*
X66550000Y-70410149D01*
X66550000Y-70410153D01*
X66535112Y-70485000D01*
X66550000Y-70559847D01*
X66550000Y-70771957D01*
X66275423Y-70955424D01*
X66040000Y-71307759D01*
X65804576Y-70955423D01*
X65546691Y-70783110D01*
X69064473Y-67265329D01*
X69127929Y-67222929D01*
X69170924Y-67158582D01*
X69295904Y-66971538D01*
X69315927Y-66870874D01*
X69340000Y-66749852D01*
X69340000Y-66749848D01*
X69354888Y-66675000D01*
X69340000Y-66600152D01*
X69340000Y-58911667D01*
X69850000Y-59013113D01*
X70360000Y-58911667D01*
X70360001Y-66360197D01*
X70360001Y-66360197D01*
G37*
X70360001Y-66360197D02*
X66825530Y-69894669D01*
X66762071Y-69937071D01*
X66594096Y-70188464D01*
X66550000Y-70410149D01*
X66550000Y-70410153D01*
X66535112Y-70485000D01*
X66550000Y-70559847D01*
X66550000Y-70771957D01*
X66275423Y-70955424D01*
X66040000Y-71307759D01*
X65804576Y-70955423D01*
X65546691Y-70783110D01*
X69064473Y-67265329D01*
X69127929Y-67222929D01*
X69170924Y-67158582D01*
X69295904Y-66971538D01*
X69315927Y-66870874D01*
X69340000Y-66749852D01*
X69340000Y-66749848D01*
X69354888Y-66675000D01*
X69340000Y-66600152D01*
X69340000Y-58911667D01*
X69850000Y-59013113D01*
X70360000Y-58911667D01*
X70360001Y-66360197D01*
G36*
X67820001Y-66360197D02*
X64285530Y-69894669D01*
X64222071Y-69937071D01*
X64054096Y-70188464D01*
X64010000Y-70410149D01*
X64010000Y-70410153D01*
X63995112Y-70485000D01*
X64010000Y-70559847D01*
X64010000Y-70771957D01*
X63735423Y-70955424D01*
X63500000Y-71307759D01*
X63264576Y-70955423D01*
X63006691Y-70783110D01*
X66524473Y-67265329D01*
X66587929Y-67222929D01*
X66630924Y-67158582D01*
X66755904Y-66971538D01*
X66775927Y-66870874D01*
X66800000Y-66749852D01*
X66800000Y-66749848D01*
X66814888Y-66675000D01*
X66800000Y-66600152D01*
X66800000Y-58911667D01*
X67310000Y-59013113D01*
X67820000Y-58911667D01*
X67820001Y-66360197D01*
X67820001Y-66360197D01*
G37*
X67820001Y-66360197D02*
X64285530Y-69894669D01*
X64222071Y-69937071D01*
X64054096Y-70188464D01*
X64010000Y-70410149D01*
X64010000Y-70410153D01*
X63995112Y-70485000D01*
X64010000Y-70559847D01*
X64010000Y-70771957D01*
X63735423Y-70955424D01*
X63500000Y-71307759D01*
X63264576Y-70955423D01*
X63006691Y-70783110D01*
X66524473Y-67265329D01*
X66587929Y-67222929D01*
X66630924Y-67158582D01*
X66755904Y-66971538D01*
X66775927Y-66870874D01*
X66800000Y-66749852D01*
X66800000Y-66749848D01*
X66814888Y-66675000D01*
X66800000Y-66600152D01*
X66800000Y-58911667D01*
X67310000Y-59013113D01*
X67820000Y-58911667D01*
X67820001Y-66360197D01*
G36*
X65280001Y-66360197D02*
X61745530Y-69894669D01*
X61682071Y-69937071D01*
X61514096Y-70188464D01*
X61470000Y-70410149D01*
X61470000Y-70410153D01*
X61455112Y-70485000D01*
X61470000Y-70559847D01*
X61470000Y-70771957D01*
X61195423Y-70955424D01*
X60960000Y-71307759D01*
X60724576Y-70955423D01*
X60466691Y-70783110D01*
X63984473Y-67265329D01*
X64047929Y-67222929D01*
X64090924Y-67158582D01*
X64215904Y-66971538D01*
X64235927Y-66870874D01*
X64260000Y-66749852D01*
X64260000Y-66749848D01*
X64274888Y-66675000D01*
X64260000Y-66600152D01*
X64260000Y-58911667D01*
X64770000Y-59013113D01*
X65280000Y-58911667D01*
X65280001Y-66360197D01*
X65280001Y-66360197D01*
G37*
X65280001Y-66360197D02*
X61745530Y-69894669D01*
X61682071Y-69937071D01*
X61514096Y-70188464D01*
X61470000Y-70410149D01*
X61470000Y-70410153D01*
X61455112Y-70485000D01*
X61470000Y-70559847D01*
X61470000Y-70771957D01*
X61195423Y-70955424D01*
X60960000Y-71307759D01*
X60724576Y-70955423D01*
X60466691Y-70783110D01*
X63984473Y-67265329D01*
X64047929Y-67222929D01*
X64090924Y-67158582D01*
X64215904Y-66971538D01*
X64235927Y-66870874D01*
X64260000Y-66749852D01*
X64260000Y-66749848D01*
X64274888Y-66675000D01*
X64260000Y-66600152D01*
X64260000Y-58911667D01*
X64770000Y-59013113D01*
X65280000Y-58911667D01*
X65280001Y-66360197D01*
G36*
X62740001Y-66360197D02*
X59205530Y-69894669D01*
X59142071Y-69937071D01*
X58974096Y-70188464D01*
X58930000Y-70410149D01*
X58930000Y-70410153D01*
X58915112Y-70485000D01*
X58930000Y-70559847D01*
X58930000Y-70771957D01*
X58655423Y-70955424D01*
X58420000Y-71307759D01*
X58184576Y-70955423D01*
X57926691Y-70783110D01*
X61444473Y-67265329D01*
X61507929Y-67222929D01*
X61550924Y-67158582D01*
X61675904Y-66971538D01*
X61695927Y-66870874D01*
X61720000Y-66749852D01*
X61720000Y-66749848D01*
X61734888Y-66675000D01*
X61720000Y-66600152D01*
X61720000Y-58911667D01*
X62230000Y-59013113D01*
X62740000Y-58911667D01*
X62740001Y-66360197D01*
X62740001Y-66360197D01*
G37*
X62740001Y-66360197D02*
X59205530Y-69894669D01*
X59142071Y-69937071D01*
X58974096Y-70188464D01*
X58930000Y-70410149D01*
X58930000Y-70410153D01*
X58915112Y-70485000D01*
X58930000Y-70559847D01*
X58930000Y-70771957D01*
X58655423Y-70955424D01*
X58420000Y-71307759D01*
X58184576Y-70955423D01*
X57926691Y-70783110D01*
X61444473Y-67265329D01*
X61507929Y-67222929D01*
X61550924Y-67158582D01*
X61675904Y-66971538D01*
X61695927Y-66870874D01*
X61720000Y-66749852D01*
X61720000Y-66749848D01*
X61734888Y-66675000D01*
X61720000Y-66600152D01*
X61720000Y-58911667D01*
X62230000Y-59013113D01*
X62740000Y-58911667D01*
X62740001Y-66360197D01*
G36*
X85600001Y-60010197D02*
X76985530Y-68624669D01*
X76922071Y-68667071D01*
X76754096Y-68918464D01*
X76710000Y-69140149D01*
X76710000Y-69140153D01*
X76695112Y-69215000D01*
X76710000Y-69289847D01*
X76710000Y-70771957D01*
X76435423Y-70955424D01*
X76200000Y-71307759D01*
X75964576Y-70955423D01*
X75690000Y-70771957D01*
X75690000Y-69529801D01*
X84304473Y-60915329D01*
X84367929Y-60872929D01*
X84535904Y-60621537D01*
X84580000Y-60399852D01*
X84580000Y-60399848D01*
X84594888Y-60325000D01*
X84580000Y-60250152D01*
X84580000Y-58911667D01*
X85090000Y-59013113D01*
X85600001Y-58911667D01*
X85600001Y-60010197D01*
X85600001Y-60010197D01*
G37*
X85600001Y-60010197D02*
X76985530Y-68624669D01*
X76922071Y-68667071D01*
X76754096Y-68918464D01*
X76710000Y-69140149D01*
X76710000Y-69140153D01*
X76695112Y-69215000D01*
X76710000Y-69289847D01*
X76710000Y-70771957D01*
X76435423Y-70955424D01*
X76200000Y-71307759D01*
X75964576Y-70955423D01*
X75690000Y-70771957D01*
X75690000Y-69529801D01*
X84304473Y-60915329D01*
X84367929Y-60872929D01*
X84535904Y-60621537D01*
X84580000Y-60399852D01*
X84580000Y-60399848D01*
X84594888Y-60325000D01*
X84580000Y-60250152D01*
X84580000Y-58911667D01*
X85090000Y-59013113D01*
X85600001Y-58911667D01*
X85600001Y-60010197D01*
G36*
X60200001Y-66360197D02*
X56665530Y-69894669D01*
X56602071Y-69937071D01*
X56434096Y-70188464D01*
X56390000Y-70410149D01*
X56390000Y-70410153D01*
X56375112Y-70485000D01*
X56390000Y-70559847D01*
X56390000Y-70771957D01*
X56115423Y-70955424D01*
X55880000Y-71307759D01*
X55644576Y-70955423D01*
X55386691Y-70783110D01*
X58904473Y-67265329D01*
X58967929Y-67222929D01*
X59010924Y-67158582D01*
X59135904Y-66971538D01*
X59155927Y-66870874D01*
X59180000Y-66749852D01*
X59180000Y-66749848D01*
X59194888Y-66675000D01*
X59180000Y-66600152D01*
X59180000Y-58911667D01*
X59690000Y-59013113D01*
X60200000Y-58911667D01*
X60200001Y-66360197D01*
X60200001Y-66360197D01*
G37*
X60200001Y-66360197D02*
X56665530Y-69894669D01*
X56602071Y-69937071D01*
X56434096Y-70188464D01*
X56390000Y-70410149D01*
X56390000Y-70410153D01*
X56375112Y-70485000D01*
X56390000Y-70559847D01*
X56390000Y-70771957D01*
X56115423Y-70955424D01*
X55880000Y-71307759D01*
X55644576Y-70955423D01*
X55386691Y-70783110D01*
X58904473Y-67265329D01*
X58967929Y-67222929D01*
X59010924Y-67158582D01*
X59135904Y-66971538D01*
X59155927Y-66870874D01*
X59180000Y-66749852D01*
X59180000Y-66749848D01*
X59194888Y-66675000D01*
X59180000Y-66600152D01*
X59180000Y-58911667D01*
X59690000Y-59013113D01*
X60200000Y-58911667D01*
X60200001Y-66360197D01*
G36*
X76435424Y-58584577D02*
X76910092Y-58901740D01*
X77470000Y-59013113D01*
X77980001Y-58911667D01*
X77980001Y-61133659D01*
X69365530Y-69748131D01*
X69302071Y-69790533D01*
X69134096Y-70041926D01*
X69090000Y-70263611D01*
X69090000Y-70263615D01*
X69075112Y-70338462D01*
X69090000Y-70413309D01*
X69090000Y-70771957D01*
X68815423Y-70955424D01*
X68580000Y-71307759D01*
X68344576Y-70955423D01*
X68086691Y-70783110D01*
X71604473Y-67265329D01*
X71667929Y-67222929D01*
X71710924Y-67158582D01*
X71835904Y-66971538D01*
X71855927Y-66870874D01*
X71880000Y-66749852D01*
X71880000Y-66749848D01*
X71894888Y-66675000D01*
X71880000Y-66600152D01*
X71880000Y-58911667D01*
X72390000Y-59013113D01*
X72949909Y-58901740D01*
X73424577Y-58584577D01*
X73660000Y-58232241D01*
X73895424Y-58584577D01*
X74370092Y-58901740D01*
X74930000Y-59013113D01*
X75489909Y-58901740D01*
X75964577Y-58584577D01*
X76200000Y-58232241D01*
X76435424Y-58584577D01*
X76435424Y-58584577D01*
G37*
X76435424Y-58584577D02*
X76910092Y-58901740D01*
X77470000Y-59013113D01*
X77980001Y-58911667D01*
X77980001Y-61133659D01*
X69365530Y-69748131D01*
X69302071Y-69790533D01*
X69134096Y-70041926D01*
X69090000Y-70263611D01*
X69090000Y-70263615D01*
X69075112Y-70338462D01*
X69090000Y-70413309D01*
X69090000Y-70771957D01*
X68815423Y-70955424D01*
X68580000Y-71307759D01*
X68344576Y-70955423D01*
X68086691Y-70783110D01*
X71604473Y-67265329D01*
X71667929Y-67222929D01*
X71710924Y-67158582D01*
X71835904Y-66971538D01*
X71855927Y-66870874D01*
X71880000Y-66749852D01*
X71880000Y-66749848D01*
X71894888Y-66675000D01*
X71880000Y-66600152D01*
X71880000Y-58911667D01*
X72390000Y-59013113D01*
X72949909Y-58901740D01*
X73424577Y-58584577D01*
X73660000Y-58232241D01*
X73895424Y-58584577D01*
X74370092Y-58901740D01*
X74930000Y-59013113D01*
X75489909Y-58901740D01*
X75964577Y-58584577D01*
X76200000Y-58232241D01*
X76435424Y-58584577D01*
G04 #@! TD*
M02*
