%FSLAX45Y45*%
G04 Gerber Fmt 4.5, Leading zero omitted, Abs format (unit mm)*
G04 Created by KiCad (PCBNEW 5.0.2-bee76a0~70~ubuntu16.04.1) date nie, 9 cze 2019, 21:59:03*
%MOMM*%
%LPD*%
G01*
G04 APERTURE LIST*
%ADD10C,0.200000*%
%ADD11C,0.300000*%
G04 APERTURE END LIST*
D10*
X3726500Y-8489000D02*
X3766500Y-8529000D01*
X3766500Y-8489000D02*
X3726500Y-8529000D01*
X3853500Y-8806500D02*
X3893500Y-8846500D01*
X3893500Y-8806500D02*
X3853500Y-8846500D01*
X4044000Y-9441500D02*
X4084000Y-9481500D01*
X4084000Y-9441500D02*
X4044000Y-9481500D01*
X4298000Y-7917500D02*
X4338000Y-7957500D01*
X4338000Y-7917500D02*
X4298000Y-7957500D01*
X4806000Y-6901500D02*
X4846000Y-6941500D01*
X4846000Y-6901500D02*
X4806000Y-6941500D01*
X5187000Y-6901500D02*
X5227000Y-6941500D01*
X5227000Y-6901500D02*
X5187000Y-6941500D01*
X5441000Y-6647500D02*
X5481000Y-6687500D01*
X5481000Y-6647500D02*
X5441000Y-6687500D01*
X5695000Y-6901500D02*
X5735000Y-6941500D01*
X5735000Y-6901500D02*
X5695000Y-6941500D01*
X5822000Y-7409500D02*
X5862000Y-7449500D01*
X5862000Y-7409500D02*
X5822000Y-7449500D01*
X5949000Y-6647500D02*
X5989000Y-6687500D01*
X5989000Y-6647500D02*
X5949000Y-6687500D01*
X5949000Y-6901500D02*
X5989000Y-6941500D01*
X5989000Y-6901500D02*
X5949000Y-6941500D01*
X6203000Y-6647500D02*
X6243000Y-6687500D01*
X6243000Y-6647500D02*
X6203000Y-6687500D01*
X6203000Y-6901500D02*
X6243000Y-6941500D01*
X6243000Y-6901500D02*
X6203000Y-6941500D01*
X6457000Y-6647500D02*
X6497000Y-6687500D01*
X6497000Y-6647500D02*
X6457000Y-6687500D01*
X6457000Y-6901500D02*
X6497000Y-6941500D01*
X6497000Y-6901500D02*
X6457000Y-6941500D01*
X6711000Y-6647500D02*
X6751000Y-6687500D01*
X6751000Y-6647500D02*
X6711000Y-6687500D01*
X6711000Y-6901500D02*
X6751000Y-6941500D01*
X6751000Y-6901500D02*
X6711000Y-6941500D01*
X6965000Y-6647500D02*
X7005000Y-6687500D01*
X7005000Y-6647500D02*
X6965000Y-6687500D01*
X6965000Y-6901500D02*
X7005000Y-6941500D01*
X7005000Y-6901500D02*
X6965000Y-6941500D01*
X7219000Y-6647500D02*
X7259000Y-6687500D01*
X7259000Y-6647500D02*
X7219000Y-6687500D01*
X7473000Y-6266500D02*
X7513000Y-6306500D01*
X7513000Y-6266500D02*
X7473000Y-6306500D01*
X7727000Y-6076000D02*
X7767000Y-6116000D01*
X7767000Y-6076000D02*
X7727000Y-6116000D01*
X7727000Y-6393500D02*
X7767000Y-6433500D01*
X7767000Y-6393500D02*
X7727000Y-6433500D01*
X7981000Y-6076000D02*
X8021000Y-6116000D01*
X8021000Y-6076000D02*
X7981000Y-6116000D01*
X7981000Y-6520500D02*
X8021000Y-6560500D01*
X8021000Y-6520500D02*
X7981000Y-6560500D01*
X7981000Y-6774500D02*
X8021000Y-6814500D01*
X8021000Y-6774500D02*
X7981000Y-6814500D01*
X8235000Y-6520500D02*
X8275000Y-6560500D01*
X8275000Y-6520500D02*
X8235000Y-6560500D01*
X8489000Y-6393500D02*
X8529000Y-6433500D01*
X8529000Y-6393500D02*
X8489000Y-6433500D01*
X8489000Y-6647500D02*
X8529000Y-6687500D01*
X8529000Y-6647500D02*
X8489000Y-6687500D01*
X8489000Y-6838000D02*
X8529000Y-6878000D01*
X8529000Y-6838000D02*
X8489000Y-6878000D01*
X8679500Y-6838000D02*
X8719500Y-6878000D01*
X8719500Y-6838000D02*
X8679500Y-6878000D01*
X8870000Y-6012500D02*
X8910000Y-6052500D01*
X8910000Y-6012500D02*
X8870000Y-6052500D01*
X9124000Y-6012500D02*
X9164000Y-6052500D01*
X9164000Y-6012500D02*
X9124000Y-6052500D01*
X9124000Y-6203000D02*
X9164000Y-6243000D01*
X9164000Y-6203000D02*
X9124000Y-6243000D01*
X9124000Y-6393500D02*
X9164000Y-6433500D01*
X9164000Y-6393500D02*
X9124000Y-6433500D01*
X4548500Y-7683500D02*
G75*
G03X4548500Y-7683500I-40000J0D01*
G01*
X4548500Y-9207500D02*
G75*
G03X4548500Y-9207500I-40000J0D01*
G01*
X4802500Y-7683500D02*
G75*
G03X4802500Y-7683500I-40000J0D01*
G01*
X4802500Y-9207500D02*
G75*
G03X4802500Y-9207500I-40000J0D01*
G01*
X5056500Y-7683500D02*
G75*
G03X5056500Y-7683500I-40000J0D01*
G01*
X5056500Y-9207500D02*
G75*
G03X5056500Y-9207500I-40000J0D01*
G01*
X5310500Y-7683500D02*
G75*
G03X5310500Y-7683500I-40000J0D01*
G01*
X5310500Y-9207500D02*
G75*
G03X5310500Y-9207500I-40000J0D01*
G01*
X5564500Y-7683500D02*
G75*
G03X5564500Y-7683500I-40000J0D01*
G01*
X5564500Y-9207500D02*
G75*
G03X5564500Y-9207500I-40000J0D01*
G01*
X5818500Y-7683500D02*
G75*
G03X5818500Y-7683500I-40000J0D01*
G01*
X5818500Y-9207500D02*
G75*
G03X5818500Y-9207500I-40000J0D01*
G01*
X6072500Y-7683500D02*
G75*
G03X6072500Y-7683500I-40000J0D01*
G01*
X6072500Y-9207500D02*
G75*
G03X6072500Y-9207500I-40000J0D01*
G01*
X6326500Y-7683500D02*
G75*
G03X6326500Y-7683500I-40000J0D01*
G01*
X6326500Y-9207500D02*
G75*
G03X6326500Y-9207500I-40000J0D01*
G01*
X6580500Y-7683500D02*
G75*
G03X6580500Y-7683500I-40000J0D01*
G01*
X6580500Y-9207500D02*
G75*
G03X6580500Y-9207500I-40000J0D01*
G01*
X6834500Y-7683500D02*
G75*
G03X6834500Y-7683500I-40000J0D01*
G01*
X6834500Y-9207500D02*
G75*
G03X6834500Y-9207500I-40000J0D01*
G01*
X7088500Y-7683500D02*
G75*
G03X7088500Y-7683500I-40000J0D01*
G01*
X7088500Y-9207500D02*
G75*
G03X7088500Y-9207500I-40000J0D01*
G01*
X7342500Y-7683500D02*
G75*
G03X7342500Y-7683500I-40000J0D01*
G01*
X7342500Y-9207500D02*
G75*
G03X7342500Y-9207500I-40000J0D01*
G01*
X7596500Y-7683500D02*
G75*
G03X7596500Y-7683500I-40000J0D01*
G01*
X7596500Y-9207500D02*
G75*
G03X7596500Y-9207500I-40000J0D01*
G01*
X7850500Y-7683500D02*
G75*
G03X7850500Y-7683500I-40000J0D01*
G01*
X7850500Y-9207500D02*
G75*
G03X7850500Y-9207500I-40000J0D01*
G01*
X8104500Y-7683500D02*
G75*
G03X8104500Y-7683500I-40000J0D01*
G01*
X8104500Y-9207500D02*
G75*
G03X8104500Y-9207500I-40000J0D01*
G01*
X8358500Y-7683500D02*
G75*
G03X8358500Y-7683500I-40000J0D01*
G01*
X8358500Y-9207500D02*
G75*
G03X8358500Y-9207500I-40000J0D01*
G01*
X8612500Y-7683500D02*
G75*
G03X8612500Y-7683500I-40000J0D01*
G01*
X8612500Y-9207500D02*
G75*
G03X8612500Y-9207500I-40000J0D01*
G01*
X8866500Y-7683500D02*
G75*
G03X8866500Y-7683500I-40000J0D01*
G01*
X8866500Y-9207500D02*
G75*
G03X8866500Y-9207500I-40000J0D01*
G01*
X9120500Y-7683500D02*
G75*
G03X9120500Y-7683500I-40000J0D01*
G01*
X9120500Y-9207500D02*
G75*
G03X9120500Y-9207500I-40000J0D01*
G01*
X9374500Y-7683500D02*
G75*
G03X9374500Y-7683500I-40000J0D01*
G01*
X9374500Y-9207500D02*
G75*
G03X9374500Y-9207500I-40000J0D01*
G01*
X4739000Y-5715000D02*
G75*
G03X4739000Y-5715000I-40000J0D01*
G01*
X4739000Y-7239000D02*
G75*
G03X4739000Y-7239000I-40000J0D01*
G01*
X4993000Y-5715000D02*
G75*
G03X4993000Y-5715000I-40000J0D01*
G01*
X4993000Y-7239000D02*
G75*
G03X4993000Y-7239000I-40000J0D01*
G01*
X5247000Y-5715000D02*
G75*
G03X5247000Y-5715000I-40000J0D01*
G01*
X5247000Y-7239000D02*
G75*
G03X5247000Y-7239000I-40000J0D01*
G01*
X5501000Y-5715000D02*
G75*
G03X5501000Y-5715000I-40000J0D01*
G01*
X5501000Y-7239000D02*
G75*
G03X5501000Y-7239000I-40000J0D01*
G01*
X5755000Y-5715000D02*
G75*
G03X5755000Y-5715000I-40000J0D01*
G01*
X5755000Y-7239000D02*
G75*
G03X5755000Y-7239000I-40000J0D01*
G01*
X6009000Y-5715000D02*
G75*
G03X6009000Y-5715000I-40000J0D01*
G01*
X6009000Y-7239000D02*
G75*
G03X6009000Y-7239000I-40000J0D01*
G01*
X6263000Y-5715000D02*
G75*
G03X6263000Y-5715000I-40000J0D01*
G01*
X6263000Y-7239000D02*
G75*
G03X6263000Y-7239000I-40000J0D01*
G01*
X6517000Y-5715000D02*
G75*
G03X6517000Y-5715000I-40000J0D01*
G01*
X6517000Y-7239000D02*
G75*
G03X6517000Y-7239000I-40000J0D01*
G01*
X6771000Y-5715000D02*
G75*
G03X6771000Y-5715000I-40000J0D01*
G01*
X6771000Y-7239000D02*
G75*
G03X6771000Y-7239000I-40000J0D01*
G01*
X7025000Y-5715000D02*
G75*
G03X7025000Y-5715000I-40000J0D01*
G01*
X7025000Y-7239000D02*
G75*
G03X7025000Y-7239000I-40000J0D01*
G01*
X7279000Y-5715000D02*
G75*
G03X7279000Y-5715000I-40000J0D01*
G01*
X7279000Y-7239000D02*
G75*
G03X7279000Y-7239000I-40000J0D01*
G01*
X7533000Y-5715000D02*
G75*
G03X7533000Y-5715000I-40000J0D01*
G01*
X7533000Y-7239000D02*
G75*
G03X7533000Y-7239000I-40000J0D01*
G01*
X7787000Y-5715000D02*
G75*
G03X7787000Y-5715000I-40000J0D01*
G01*
X7787000Y-7239000D02*
G75*
G03X7787000Y-7239000I-40000J0D01*
G01*
X8041000Y-5715000D02*
G75*
G03X8041000Y-5715000I-40000J0D01*
G01*
X8041000Y-7239000D02*
G75*
G03X8041000Y-7239000I-40000J0D01*
G01*
X8295000Y-5715000D02*
G75*
G03X8295000Y-5715000I-40000J0D01*
G01*
X8295000Y-7239000D02*
G75*
G03X8295000Y-7239000I-40000J0D01*
G01*
X8549000Y-5715000D02*
G75*
G03X8549000Y-5715000I-40000J0D01*
G01*
X8549000Y-7239000D02*
G75*
G03X8549000Y-7239000I-40000J0D01*
G01*
X8803000Y-5715000D02*
G75*
G03X8803000Y-5715000I-40000J0D01*
G01*
X8803000Y-7239000D02*
G75*
G03X8803000Y-7239000I-40000J0D01*
G01*
X9057000Y-5715000D02*
G75*
G03X9057000Y-5715000I-40000J0D01*
G01*
X9057000Y-7239000D02*
G75*
G03X9057000Y-7239000I-40000J0D01*
G01*
X9311000Y-5715000D02*
G75*
G03X9311000Y-5715000I-40000J0D01*
G01*
X9311000Y-7239000D02*
G75*
G03X9311000Y-7239000I-40000J0D01*
G01*
X9565000Y-5715000D02*
G75*
G03X9565000Y-5715000I-40000J0D01*
G01*
X9565000Y-7239000D02*
G75*
G03X9565000Y-7239000I-40000J0D01*
G01*
X9969500Y-7697000D02*
X9969500Y-7797000D01*
X9919500Y-7747000D02*
X10019500Y-7747000D01*
X9969500Y-7951000D02*
X9969500Y-8051000D01*
X9919500Y-8001000D02*
X10019500Y-8001000D01*
X9969500Y-8205000D02*
X9969500Y-8305000D01*
X9919500Y-8255000D02*
X10019500Y-8255000D01*
X9969500Y-8459000D02*
X9969500Y-8559000D01*
X9919500Y-8509000D02*
X10019500Y-8509000D01*
X9969500Y-8713000D02*
X9969500Y-8813000D01*
X9919500Y-8763000D02*
X10019500Y-8763000D01*
X9969500Y-8967000D02*
X9969500Y-9067000D01*
X9919500Y-9017000D02*
X10019500Y-9017000D01*
X9969500Y-9221000D02*
X9969500Y-9321000D01*
X9919500Y-9271000D02*
X10019500Y-9271000D01*
X9969500Y-9475000D02*
X9969500Y-9575000D01*
X9919500Y-9525000D02*
X10019500Y-9525000D01*
X10223500Y-7697000D02*
X10223500Y-7797000D01*
X10173500Y-7747000D02*
X10273500Y-7747000D01*
X10223500Y-7951000D02*
X10223500Y-8051000D01*
X10173500Y-8001000D02*
X10273500Y-8001000D01*
X10223500Y-8205000D02*
X10223500Y-8305000D01*
X10173500Y-8255000D02*
X10273500Y-8255000D01*
X10223500Y-8459000D02*
X10223500Y-8559000D01*
X10173500Y-8509000D02*
X10273500Y-8509000D01*
X10223500Y-8713000D02*
X10223500Y-8813000D01*
X10173500Y-8763000D02*
X10273500Y-8763000D01*
X10223500Y-8967000D02*
X10223500Y-9067000D01*
X10173500Y-9017000D02*
X10273500Y-9017000D01*
X10223500Y-9221000D02*
X10223500Y-9321000D01*
X10173500Y-9271000D02*
X10273500Y-9271000D01*
X10223500Y-9475000D02*
X10223500Y-9575000D01*
X10173500Y-9525000D02*
X10273500Y-9525000D01*
X10223500Y-5665000D02*
X10223500Y-5765000D01*
X10173500Y-5715000D02*
X10273500Y-5715000D01*
X10223500Y-5919000D02*
X10223500Y-6019000D01*
X10173500Y-5969000D02*
X10273500Y-5969000D01*
X10223500Y-6173000D02*
X10223500Y-6273000D01*
X10173500Y-6223000D02*
X10273500Y-6223000D01*
X8191500Y-5157000D02*
X8191500Y-5257000D01*
X8141500Y-5207000D02*
X8241500Y-5207000D01*
X8445500Y-5157000D02*
X8445500Y-5257000D01*
X8395500Y-5207000D02*
X8495500Y-5207000D01*
X8699500Y-5157000D02*
X8699500Y-5257000D01*
X8649500Y-5207000D02*
X8749500Y-5207000D01*
X8953500Y-5157000D02*
X8953500Y-5257000D01*
X8903500Y-5207000D02*
X9003500Y-5207000D01*
X9207500Y-5157000D02*
X9207500Y-5257000D01*
X9157500Y-5207000D02*
X9257500Y-5207000D01*
X9461500Y-5157000D02*
X9461500Y-5257000D01*
X9411500Y-5207000D02*
X9511500Y-5207000D01*
X9715500Y-5157000D02*
X9715500Y-5257000D01*
X9665500Y-5207000D02*
X9765500Y-5207000D01*
X9969500Y-5157000D02*
X9969500Y-5257000D01*
X9919500Y-5207000D02*
X10019500Y-5207000D01*
X4699000Y-9538500D02*
X4699000Y-9638500D01*
X4649000Y-9588500D02*
X4749000Y-9588500D01*
X4953000Y-9538500D02*
X4953000Y-9638500D01*
X4903000Y-9588500D02*
X5003000Y-9588500D01*
X5207000Y-9538500D02*
X5207000Y-9638500D01*
X5157000Y-9588500D02*
X5257000Y-9588500D01*
X5461000Y-9538500D02*
X5461000Y-9638500D01*
X5411000Y-9588500D02*
X5511000Y-9588500D01*
X5715000Y-9538500D02*
X5715000Y-9638500D01*
X5665000Y-9588500D02*
X5765000Y-9588500D01*
X5969000Y-9538500D02*
X5969000Y-9638500D01*
X5919000Y-9588500D02*
X6019000Y-9588500D01*
X6223000Y-9538500D02*
X6223000Y-9638500D01*
X6173000Y-9588500D02*
X6273000Y-9588500D01*
X6477000Y-9538500D02*
X6477000Y-9638500D01*
X6427000Y-9588500D02*
X6527000Y-9588500D01*
X6731000Y-9538500D02*
X6731000Y-9638500D01*
X6681000Y-9588500D02*
X6781000Y-9588500D01*
X6985000Y-9538500D02*
X6985000Y-9638500D01*
X6935000Y-9588500D02*
X7035000Y-9588500D01*
X7239000Y-9538500D02*
X7239000Y-9638500D01*
X7189000Y-9588500D02*
X7289000Y-9588500D01*
X7493000Y-9538500D02*
X7493000Y-9638500D01*
X7443000Y-9588500D02*
X7543000Y-9588500D01*
X7747000Y-9538500D02*
X7747000Y-9638500D01*
X7697000Y-9588500D02*
X7797000Y-9588500D01*
X8001000Y-9538500D02*
X8001000Y-9638500D01*
X7951000Y-9588500D02*
X8051000Y-9588500D01*
X8255000Y-9538500D02*
X8255000Y-9638500D01*
X8205000Y-9588500D02*
X8305000Y-9588500D01*
X8509000Y-9538500D02*
X8509000Y-9638500D01*
X8459000Y-9588500D02*
X8559000Y-9588500D01*
X8763000Y-9538500D02*
X8763000Y-9638500D01*
X8713000Y-9588500D02*
X8813000Y-9588500D01*
X9017000Y-9538500D02*
X9017000Y-9638500D01*
X8967000Y-9588500D02*
X9067000Y-9588500D01*
X9271000Y-9538500D02*
X9271000Y-9638500D01*
X9221000Y-9588500D02*
X9321000Y-9588500D01*
X9525000Y-9538500D02*
X9525000Y-9638500D01*
X9475000Y-9588500D02*
X9575000Y-9588500D01*
X9969500Y-6935000D02*
X9969500Y-7035000D01*
X9919500Y-6985000D02*
X10019500Y-6985000D01*
X9969500Y-7189000D02*
X9969500Y-7289000D01*
X9919500Y-7239000D02*
X10019500Y-7239000D01*
X10223500Y-6935000D02*
X10223500Y-7035000D01*
X10173500Y-6985000D02*
X10273500Y-6985000D01*
X10223500Y-7189000D02*
X10223500Y-7289000D01*
X10173500Y-7239000D02*
X10273500Y-7239000D01*
X4445000Y-5157000D02*
X4445000Y-5257000D01*
X4395000Y-5207000D02*
X4495000Y-5207000D01*
X4699000Y-5157000D02*
X4699000Y-5257000D01*
X4649000Y-5207000D02*
X4749000Y-5207000D01*
X4953000Y-5157000D02*
X4953000Y-5257000D01*
X4903000Y-5207000D02*
X5003000Y-5207000D01*
X3937000Y-5665000D02*
X3937000Y-5765000D01*
X3887000Y-5715000D02*
X3987000Y-5715000D01*
X3937000Y-5919000D02*
X3937000Y-6019000D01*
X3887000Y-5969000D02*
X3987000Y-5969000D01*
X3937000Y-6173000D02*
X3937000Y-6273000D01*
X3887000Y-6223000D02*
X3987000Y-6223000D01*
X3937000Y-6427000D02*
X3937000Y-6527000D01*
X3887000Y-6477000D02*
X3987000Y-6477000D01*
X3937000Y-6681000D02*
X3937000Y-6781000D01*
X3887000Y-6731000D02*
X3987000Y-6731000D01*
X3937000Y-6935000D02*
X3937000Y-7035000D01*
X3887000Y-6985000D02*
X3987000Y-6985000D01*
X4191000Y-5665000D02*
X4191000Y-5765000D01*
X4141000Y-5715000D02*
X4241000Y-5715000D01*
X4191000Y-5919000D02*
X4191000Y-6019000D01*
X4141000Y-5969000D02*
X4241000Y-5969000D01*
X4191000Y-6173000D02*
X4191000Y-6273000D01*
X4141000Y-6223000D02*
X4241000Y-6223000D01*
X4191000Y-6427000D02*
X4191000Y-6527000D01*
X4141000Y-6477000D02*
X4241000Y-6477000D01*
X4191000Y-6681000D02*
X4191000Y-6781000D01*
X4141000Y-6731000D02*
X4241000Y-6731000D01*
X4191000Y-6935000D02*
X4191000Y-7035000D01*
X4141000Y-6985000D02*
X4241000Y-6985000D01*
X5715000Y-5157000D02*
X5715000Y-5257000D01*
X5665000Y-5207000D02*
X5765000Y-5207000D01*
X5969000Y-5157000D02*
X5969000Y-5257000D01*
X5919000Y-5207000D02*
X6019000Y-5207000D01*
X6223000Y-5157000D02*
X6223000Y-5257000D01*
X6173000Y-5207000D02*
X6273000Y-5207000D01*
X6477000Y-5157000D02*
X6477000Y-5257000D01*
X6427000Y-5207000D02*
X6527000Y-5207000D01*
X6731000Y-5157000D02*
X6731000Y-5257000D01*
X6681000Y-5207000D02*
X6781000Y-5207000D01*
X6985000Y-5157000D02*
X6985000Y-5257000D01*
X6935000Y-5207000D02*
X7035000Y-5207000D01*
X7239000Y-5157000D02*
X7239000Y-5257000D01*
X7189000Y-5207000D02*
X7289000Y-5207000D01*
X7493000Y-5157000D02*
X7493000Y-5257000D01*
X7443000Y-5207000D02*
X7543000Y-5207000D01*
X4699000Y-8014500D02*
X4699000Y-8114500D01*
X4649000Y-8064500D02*
X4749000Y-8064500D01*
X4953000Y-8014500D02*
X4953000Y-8114500D01*
X4903000Y-8064500D02*
X5003000Y-8064500D01*
X5207000Y-8014500D02*
X5207000Y-8114500D01*
X5157000Y-8064500D02*
X5257000Y-8064500D01*
X5461000Y-8014500D02*
X5461000Y-8114500D01*
X5411000Y-8064500D02*
X5511000Y-8064500D01*
X5715000Y-8014500D02*
X5715000Y-8114500D01*
X5665000Y-8064500D02*
X5765000Y-8064500D01*
X5969000Y-8014500D02*
X5969000Y-8114500D01*
X5919000Y-8064500D02*
X6019000Y-8064500D01*
X6223000Y-8014500D02*
X6223000Y-8114500D01*
X6173000Y-8064500D02*
X6273000Y-8064500D01*
X6477000Y-8014500D02*
X6477000Y-8114500D01*
X6427000Y-8064500D02*
X6527000Y-8064500D01*
X6731000Y-8014500D02*
X6731000Y-8114500D01*
X6681000Y-8064500D02*
X6781000Y-8064500D01*
X6985000Y-8014500D02*
X6985000Y-8114500D01*
X6935000Y-8064500D02*
X7035000Y-8064500D01*
X7239000Y-8014500D02*
X7239000Y-8114500D01*
X7189000Y-8064500D02*
X7289000Y-8064500D01*
X7493000Y-8014500D02*
X7493000Y-8114500D01*
X7443000Y-8064500D02*
X7543000Y-8064500D01*
X7747000Y-8014500D02*
X7747000Y-8114500D01*
X7697000Y-8064500D02*
X7797000Y-8064500D01*
X8001000Y-8014500D02*
X8001000Y-8114500D01*
X7951000Y-8064500D02*
X8051000Y-8064500D01*
X8255000Y-8014500D02*
X8255000Y-8114500D01*
X8205000Y-8064500D02*
X8305000Y-8064500D01*
X8509000Y-8014500D02*
X8509000Y-8114500D01*
X8459000Y-8064500D02*
X8559000Y-8064500D01*
X8763000Y-8014500D02*
X8763000Y-8114500D01*
X8713000Y-8064500D02*
X8813000Y-8064500D01*
X9017000Y-8014500D02*
X9017000Y-8114500D01*
X8967000Y-8064500D02*
X9067000Y-8064500D01*
X9271000Y-8014500D02*
X9271000Y-8114500D01*
X9221000Y-8064500D02*
X9321000Y-8064500D01*
X9525000Y-8014500D02*
X9525000Y-8114500D01*
X9475000Y-8064500D02*
X9575000Y-8064500D01*
D11*
X286429Y-465714D02*
X286429Y-165714D01*
X357857Y-165714D01*
X400714Y-180000D01*
X429286Y-208571D01*
X443571Y-237143D01*
X457857Y-294286D01*
X457857Y-337143D01*
X443571Y-394286D01*
X429286Y-422857D01*
X400714Y-451428D01*
X357857Y-465714D01*
X286429Y-465714D01*
X586429Y-465714D02*
X586429Y-265714D01*
X586429Y-322857D02*
X600714Y-294286D01*
X615000Y-280000D01*
X643571Y-265714D01*
X672143Y-265714D01*
X772143Y-465714D02*
X772143Y-265714D01*
X772143Y-165714D02*
X757857Y-180000D01*
X772143Y-194286D01*
X786428Y-180000D01*
X772143Y-165714D01*
X772143Y-194286D01*
X957857Y-465714D02*
X929286Y-451428D01*
X915000Y-422857D01*
X915000Y-165714D01*
X1115000Y-465714D02*
X1086429Y-451428D01*
X1072143Y-422857D01*
X1072143Y-165714D01*
X1457857Y-465714D02*
X1457857Y-165714D01*
X1557857Y-380000D01*
X1657857Y-165714D01*
X1657857Y-465714D01*
X1929286Y-465714D02*
X1929286Y-308571D01*
X1915000Y-280000D01*
X1886428Y-265714D01*
X1829286Y-265714D01*
X1800714Y-280000D01*
X1929286Y-451428D02*
X1900714Y-465714D01*
X1829286Y-465714D01*
X1800714Y-451428D01*
X1786428Y-422857D01*
X1786428Y-394286D01*
X1800714Y-365714D01*
X1829286Y-351428D01*
X1900714Y-351428D01*
X1929286Y-337143D01*
X2072143Y-265714D02*
X2072143Y-565714D01*
X2072143Y-280000D02*
X2100714Y-265714D01*
X2157857Y-265714D01*
X2186429Y-280000D01*
X2200714Y-294286D01*
X2215000Y-322857D01*
X2215000Y-408571D01*
X2200714Y-437143D01*
X2186429Y-451428D01*
X2157857Y-465714D01*
X2100714Y-465714D01*
X2072143Y-451428D01*
X2343571Y-437143D02*
X2357857Y-451428D01*
X2343571Y-465714D01*
X2329286Y-451428D01*
X2343571Y-437143D01*
X2343571Y-465714D01*
X2343571Y-280000D02*
X2357857Y-294286D01*
X2343571Y-308571D01*
X2329286Y-294286D01*
X2343571Y-280000D01*
X2343571Y-308571D01*
X-40000Y-940000D02*
X0Y-980000D01*
X0Y-940000D02*
X-40000Y-980000D01*
X343571Y-795714D02*
X372143Y-795714D01*
X400714Y-810000D01*
X415000Y-824286D01*
X429286Y-852857D01*
X443571Y-910000D01*
X443571Y-981428D01*
X429286Y-1038571D01*
X415000Y-1067143D01*
X400714Y-1081429D01*
X372143Y-1095714D01*
X343571Y-1095714D01*
X315000Y-1081429D01*
X300714Y-1067143D01*
X286429Y-1038571D01*
X272143Y-981428D01*
X272143Y-910000D01*
X286429Y-852857D01*
X300714Y-824286D01*
X315000Y-810000D01*
X343571Y-795714D01*
X572143Y-1067143D02*
X586429Y-1081429D01*
X572143Y-1095714D01*
X557857Y-1081429D01*
X572143Y-1067143D01*
X572143Y-1095714D01*
X843571Y-895714D02*
X843571Y-1095714D01*
X772143Y-781428D02*
X700714Y-995714D01*
X886428Y-995714D01*
X1057857Y-795714D02*
X1086429Y-795714D01*
X1115000Y-810000D01*
X1129286Y-824286D01*
X1143571Y-852857D01*
X1157857Y-910000D01*
X1157857Y-981428D01*
X1143571Y-1038571D01*
X1129286Y-1067143D01*
X1115000Y-1081429D01*
X1086429Y-1095714D01*
X1057857Y-1095714D01*
X1029286Y-1081429D01*
X1015000Y-1067143D01*
X1000714Y-1038571D01*
X986428Y-981428D01*
X986428Y-910000D01*
X1000714Y-852857D01*
X1015000Y-824286D01*
X1029286Y-810000D01*
X1057857Y-795714D01*
X1286429Y-1095714D02*
X1286429Y-895714D01*
X1286429Y-924286D02*
X1300714Y-910000D01*
X1329286Y-895714D01*
X1372143Y-895714D01*
X1400714Y-910000D01*
X1415000Y-938571D01*
X1415000Y-1095714D01*
X1415000Y-938571D02*
X1429286Y-910000D01*
X1457857Y-895714D01*
X1500714Y-895714D01*
X1529286Y-910000D01*
X1543571Y-938571D01*
X1543571Y-1095714D01*
X1686428Y-1095714D02*
X1686428Y-895714D01*
X1686428Y-924286D02*
X1700714Y-910000D01*
X1729286Y-895714D01*
X1772143Y-895714D01*
X1800714Y-910000D01*
X1815000Y-938571D01*
X1815000Y-1095714D01*
X1815000Y-938571D02*
X1829286Y-910000D01*
X1857857Y-895714D01*
X1900714Y-895714D01*
X1929286Y-910000D01*
X1943571Y-938571D01*
X1943571Y-1095714D01*
X2529286Y-781428D02*
X2272143Y-1167143D01*
X2915000Y-795714D02*
X2943571Y-795714D01*
X2972143Y-810000D01*
X2986428Y-824286D01*
X3000714Y-852857D01*
X3015000Y-910000D01*
X3015000Y-981428D01*
X3000714Y-1038571D01*
X2986428Y-1067143D01*
X2972143Y-1081429D01*
X2943571Y-1095714D01*
X2915000Y-1095714D01*
X2886428Y-1081429D01*
X2872143Y-1067143D01*
X2857857Y-1038571D01*
X2843571Y-981428D01*
X2843571Y-910000D01*
X2857857Y-852857D01*
X2872143Y-824286D01*
X2886428Y-810000D01*
X2915000Y-795714D01*
X3143571Y-1067143D02*
X3157857Y-1081429D01*
X3143571Y-1095714D01*
X3129286Y-1081429D01*
X3143571Y-1067143D01*
X3143571Y-1095714D01*
X3343571Y-795714D02*
X3372143Y-795714D01*
X3400714Y-810000D01*
X3415000Y-824286D01*
X3429286Y-852857D01*
X3443571Y-910000D01*
X3443571Y-981428D01*
X3429286Y-1038571D01*
X3415000Y-1067143D01*
X3400714Y-1081429D01*
X3372143Y-1095714D01*
X3343571Y-1095714D01*
X3315000Y-1081429D01*
X3300714Y-1067143D01*
X3286428Y-1038571D01*
X3272143Y-981428D01*
X3272143Y-910000D01*
X3286428Y-852857D01*
X3300714Y-824286D01*
X3315000Y-810000D01*
X3343571Y-795714D01*
X3729286Y-1095714D02*
X3557857Y-1095714D01*
X3643571Y-1095714D02*
X3643571Y-795714D01*
X3615000Y-838571D01*
X3586428Y-867143D01*
X3557857Y-881428D01*
X3986428Y-795714D02*
X3929286Y-795714D01*
X3900714Y-810000D01*
X3886428Y-824286D01*
X3857857Y-867143D01*
X3843571Y-924286D01*
X3843571Y-1038571D01*
X3857857Y-1067143D01*
X3872143Y-1081429D01*
X3900714Y-1095714D01*
X3957857Y-1095714D01*
X3986428Y-1081429D01*
X4000714Y-1067143D01*
X4015000Y-1038571D01*
X4015000Y-967143D01*
X4000714Y-938571D01*
X3986428Y-924286D01*
X3957857Y-910000D01*
X3900714Y-910000D01*
X3872143Y-924286D01*
X3857857Y-938571D01*
X3843571Y-967143D01*
X4129286Y-795714D02*
X4129286Y-852857D01*
X4243571Y-795714D02*
X4243571Y-852857D01*
X4686429Y-1210000D02*
X4672143Y-1195714D01*
X4643571Y-1152857D01*
X4629286Y-1124286D01*
X4615000Y-1081429D01*
X4600714Y-1010000D01*
X4600714Y-952857D01*
X4615000Y-881428D01*
X4629286Y-838571D01*
X4643571Y-810000D01*
X4672143Y-767143D01*
X4686429Y-752857D01*
X4772143Y-795714D02*
X4957857Y-795714D01*
X4857857Y-910000D01*
X4900714Y-910000D01*
X4929286Y-924286D01*
X4943571Y-938571D01*
X4957857Y-967143D01*
X4957857Y-1038571D01*
X4943571Y-1067143D01*
X4929286Y-1081429D01*
X4900714Y-1095714D01*
X4815000Y-1095714D01*
X4786429Y-1081429D01*
X4772143Y-1067143D01*
X5229286Y-795714D02*
X5086429Y-795714D01*
X5072143Y-938571D01*
X5086429Y-924286D01*
X5115000Y-910000D01*
X5186429Y-910000D01*
X5215000Y-924286D01*
X5229286Y-938571D01*
X5243571Y-967143D01*
X5243571Y-1038571D01*
X5229286Y-1067143D01*
X5215000Y-1081429D01*
X5186429Y-1095714D01*
X5115000Y-1095714D01*
X5086429Y-1081429D01*
X5072143Y-1067143D01*
X5600714Y-1095714D02*
X5600714Y-795714D01*
X5729286Y-1095714D02*
X5729286Y-938571D01*
X5715000Y-910000D01*
X5686428Y-895714D01*
X5643571Y-895714D01*
X5615000Y-910000D01*
X5600714Y-924286D01*
X5915000Y-1095714D02*
X5886428Y-1081429D01*
X5872143Y-1067143D01*
X5857857Y-1038571D01*
X5857857Y-952857D01*
X5872143Y-924286D01*
X5886428Y-910000D01*
X5915000Y-895714D01*
X5957857Y-895714D01*
X5986428Y-910000D01*
X6000714Y-924286D01*
X6015000Y-952857D01*
X6015000Y-1038571D01*
X6000714Y-1067143D01*
X5986428Y-1081429D01*
X5957857Y-1095714D01*
X5915000Y-1095714D01*
X6186428Y-1095714D02*
X6157857Y-1081429D01*
X6143571Y-1052857D01*
X6143571Y-795714D01*
X6415000Y-1081429D02*
X6386428Y-1095714D01*
X6329286Y-1095714D01*
X6300714Y-1081429D01*
X6286428Y-1052857D01*
X6286428Y-938571D01*
X6300714Y-910000D01*
X6329286Y-895714D01*
X6386428Y-895714D01*
X6415000Y-910000D01*
X6429286Y-938571D01*
X6429286Y-967143D01*
X6286428Y-995714D01*
X6543571Y-1081429D02*
X6572143Y-1095714D01*
X6629286Y-1095714D01*
X6657857Y-1081429D01*
X6672143Y-1052857D01*
X6672143Y-1038571D01*
X6657857Y-1010000D01*
X6629286Y-995714D01*
X6586428Y-995714D01*
X6557857Y-981428D01*
X6543571Y-952857D01*
X6543571Y-938571D01*
X6557857Y-910000D01*
X6586428Y-895714D01*
X6629286Y-895714D01*
X6657857Y-910000D01*
X6772143Y-1210000D02*
X6786428Y-1195714D01*
X6815000Y-1152857D01*
X6829286Y-1124286D01*
X6843571Y-1081429D01*
X6857857Y-1010000D01*
X6857857Y-952857D01*
X6843571Y-881428D01*
X6829286Y-838571D01*
X6815000Y-810000D01*
X6786428Y-767143D01*
X6772143Y-752857D01*
X0Y-1356000D02*
G75*
G03X0Y-1356000I-40000J0D01*
G01*
X343571Y-1191714D02*
X372143Y-1191714D01*
X400714Y-1206000D01*
X415000Y-1220286D01*
X429286Y-1248857D01*
X443571Y-1306000D01*
X443571Y-1377429D01*
X429286Y-1434571D01*
X415000Y-1463143D01*
X400714Y-1477428D01*
X372143Y-1491714D01*
X343571Y-1491714D01*
X315000Y-1477428D01*
X300714Y-1463143D01*
X286429Y-1434571D01*
X272143Y-1377429D01*
X272143Y-1306000D01*
X286429Y-1248857D01*
X300714Y-1220286D01*
X315000Y-1206000D01*
X343571Y-1191714D01*
X572143Y-1463143D02*
X586429Y-1477428D01*
X572143Y-1491714D01*
X557857Y-1477428D01*
X572143Y-1463143D01*
X572143Y-1491714D01*
X757857Y-1320286D02*
X729286Y-1306000D01*
X715000Y-1291714D01*
X700714Y-1263143D01*
X700714Y-1248857D01*
X715000Y-1220286D01*
X729286Y-1206000D01*
X757857Y-1191714D01*
X815000Y-1191714D01*
X843571Y-1206000D01*
X857857Y-1220286D01*
X872143Y-1248857D01*
X872143Y-1263143D01*
X857857Y-1291714D01*
X843571Y-1306000D01*
X815000Y-1320286D01*
X757857Y-1320286D01*
X729286Y-1334571D01*
X715000Y-1348857D01*
X700714Y-1377429D01*
X700714Y-1434571D01*
X715000Y-1463143D01*
X729286Y-1477428D01*
X757857Y-1491714D01*
X815000Y-1491714D01*
X843571Y-1477428D01*
X857857Y-1463143D01*
X872143Y-1434571D01*
X872143Y-1377429D01*
X857857Y-1348857D01*
X843571Y-1334571D01*
X815000Y-1320286D01*
X1057857Y-1191714D02*
X1086429Y-1191714D01*
X1115000Y-1206000D01*
X1129286Y-1220286D01*
X1143571Y-1248857D01*
X1157857Y-1306000D01*
X1157857Y-1377429D01*
X1143571Y-1434571D01*
X1129286Y-1463143D01*
X1115000Y-1477428D01*
X1086429Y-1491714D01*
X1057857Y-1491714D01*
X1029286Y-1477428D01*
X1015000Y-1463143D01*
X1000714Y-1434571D01*
X986428Y-1377429D01*
X986428Y-1306000D01*
X1000714Y-1248857D01*
X1015000Y-1220286D01*
X1029286Y-1206000D01*
X1057857Y-1191714D01*
X1286429Y-1491714D02*
X1286429Y-1291714D01*
X1286429Y-1320286D02*
X1300714Y-1306000D01*
X1329286Y-1291714D01*
X1372143Y-1291714D01*
X1400714Y-1306000D01*
X1415000Y-1334571D01*
X1415000Y-1491714D01*
X1415000Y-1334571D02*
X1429286Y-1306000D01*
X1457857Y-1291714D01*
X1500714Y-1291714D01*
X1529286Y-1306000D01*
X1543571Y-1334571D01*
X1543571Y-1491714D01*
X1686428Y-1491714D02*
X1686428Y-1291714D01*
X1686428Y-1320286D02*
X1700714Y-1306000D01*
X1729286Y-1291714D01*
X1772143Y-1291714D01*
X1800714Y-1306000D01*
X1815000Y-1334571D01*
X1815000Y-1491714D01*
X1815000Y-1334571D02*
X1829286Y-1306000D01*
X1857857Y-1291714D01*
X1900714Y-1291714D01*
X1929286Y-1306000D01*
X1943571Y-1334571D01*
X1943571Y-1491714D01*
X2529286Y-1177429D02*
X2272143Y-1563143D01*
X2915000Y-1191714D02*
X2943571Y-1191714D01*
X2972143Y-1206000D01*
X2986428Y-1220286D01*
X3000714Y-1248857D01*
X3015000Y-1306000D01*
X3015000Y-1377429D01*
X3000714Y-1434571D01*
X2986428Y-1463143D01*
X2972143Y-1477428D01*
X2943571Y-1491714D01*
X2915000Y-1491714D01*
X2886428Y-1477428D01*
X2872143Y-1463143D01*
X2857857Y-1434571D01*
X2843571Y-1377429D01*
X2843571Y-1306000D01*
X2857857Y-1248857D01*
X2872143Y-1220286D01*
X2886428Y-1206000D01*
X2915000Y-1191714D01*
X3143571Y-1463143D02*
X3157857Y-1477428D01*
X3143571Y-1491714D01*
X3129286Y-1477428D01*
X3143571Y-1463143D01*
X3143571Y-1491714D01*
X3343571Y-1191714D02*
X3372143Y-1191714D01*
X3400714Y-1206000D01*
X3415000Y-1220286D01*
X3429286Y-1248857D01*
X3443571Y-1306000D01*
X3443571Y-1377429D01*
X3429286Y-1434571D01*
X3415000Y-1463143D01*
X3400714Y-1477428D01*
X3372143Y-1491714D01*
X3343571Y-1491714D01*
X3315000Y-1477428D01*
X3300714Y-1463143D01*
X3286428Y-1434571D01*
X3272143Y-1377429D01*
X3272143Y-1306000D01*
X3286428Y-1248857D01*
X3300714Y-1220286D01*
X3315000Y-1206000D01*
X3343571Y-1191714D01*
X3543571Y-1191714D02*
X3729286Y-1191714D01*
X3629286Y-1306000D01*
X3672143Y-1306000D01*
X3700714Y-1320286D01*
X3715000Y-1334571D01*
X3729286Y-1363143D01*
X3729286Y-1434571D01*
X3715000Y-1463143D01*
X3700714Y-1477428D01*
X3672143Y-1491714D01*
X3586428Y-1491714D01*
X3557857Y-1477428D01*
X3543571Y-1463143D01*
X4015000Y-1491714D02*
X3843571Y-1491714D01*
X3929286Y-1491714D02*
X3929286Y-1191714D01*
X3900714Y-1234571D01*
X3872143Y-1263143D01*
X3843571Y-1277429D01*
X4129286Y-1191714D02*
X4129286Y-1248857D01*
X4243571Y-1191714D02*
X4243571Y-1248857D01*
X4686429Y-1606000D02*
X4672143Y-1591714D01*
X4643571Y-1548857D01*
X4629286Y-1520286D01*
X4615000Y-1477428D01*
X4600714Y-1406000D01*
X4600714Y-1348857D01*
X4615000Y-1277429D01*
X4629286Y-1234571D01*
X4643571Y-1206000D01*
X4672143Y-1163143D01*
X4686429Y-1148857D01*
X4843571Y-1320286D02*
X4815000Y-1306000D01*
X4800714Y-1291714D01*
X4786429Y-1263143D01*
X4786429Y-1248857D01*
X4800714Y-1220286D01*
X4815000Y-1206000D01*
X4843571Y-1191714D01*
X4900714Y-1191714D01*
X4929286Y-1206000D01*
X4943571Y-1220286D01*
X4957857Y-1248857D01*
X4957857Y-1263143D01*
X4943571Y-1291714D01*
X4929286Y-1306000D01*
X4900714Y-1320286D01*
X4843571Y-1320286D01*
X4815000Y-1334571D01*
X4800714Y-1348857D01*
X4786429Y-1377429D01*
X4786429Y-1434571D01*
X4800714Y-1463143D01*
X4815000Y-1477428D01*
X4843571Y-1491714D01*
X4900714Y-1491714D01*
X4929286Y-1477428D01*
X4943571Y-1463143D01*
X4957857Y-1434571D01*
X4957857Y-1377429D01*
X4943571Y-1348857D01*
X4929286Y-1334571D01*
X4900714Y-1320286D01*
X5143571Y-1191714D02*
X5172143Y-1191714D01*
X5200714Y-1206000D01*
X5215000Y-1220286D01*
X5229286Y-1248857D01*
X5243571Y-1306000D01*
X5243571Y-1377429D01*
X5229286Y-1434571D01*
X5215000Y-1463143D01*
X5200714Y-1477428D01*
X5172143Y-1491714D01*
X5143571Y-1491714D01*
X5115000Y-1477428D01*
X5100714Y-1463143D01*
X5086429Y-1434571D01*
X5072143Y-1377429D01*
X5072143Y-1306000D01*
X5086429Y-1248857D01*
X5100714Y-1220286D01*
X5115000Y-1206000D01*
X5143571Y-1191714D01*
X5600714Y-1491714D02*
X5600714Y-1191714D01*
X5729286Y-1491714D02*
X5729286Y-1334571D01*
X5715000Y-1306000D01*
X5686428Y-1291714D01*
X5643571Y-1291714D01*
X5615000Y-1306000D01*
X5600714Y-1320286D01*
X5915000Y-1491714D02*
X5886428Y-1477428D01*
X5872143Y-1463143D01*
X5857857Y-1434571D01*
X5857857Y-1348857D01*
X5872143Y-1320286D01*
X5886428Y-1306000D01*
X5915000Y-1291714D01*
X5957857Y-1291714D01*
X5986428Y-1306000D01*
X6000714Y-1320286D01*
X6015000Y-1348857D01*
X6015000Y-1434571D01*
X6000714Y-1463143D01*
X5986428Y-1477428D01*
X5957857Y-1491714D01*
X5915000Y-1491714D01*
X6186428Y-1491714D02*
X6157857Y-1477428D01*
X6143571Y-1448857D01*
X6143571Y-1191714D01*
X6415000Y-1477428D02*
X6386428Y-1491714D01*
X6329286Y-1491714D01*
X6300714Y-1477428D01*
X6286428Y-1448857D01*
X6286428Y-1334571D01*
X6300714Y-1306000D01*
X6329286Y-1291714D01*
X6386428Y-1291714D01*
X6415000Y-1306000D01*
X6429286Y-1334571D01*
X6429286Y-1363143D01*
X6286428Y-1391714D01*
X6543571Y-1477428D02*
X6572143Y-1491714D01*
X6629286Y-1491714D01*
X6657857Y-1477428D01*
X6672143Y-1448857D01*
X6672143Y-1434571D01*
X6657857Y-1406000D01*
X6629286Y-1391714D01*
X6586428Y-1391714D01*
X6557857Y-1377429D01*
X6543571Y-1348857D01*
X6543571Y-1334571D01*
X6557857Y-1306000D01*
X6586428Y-1291714D01*
X6629286Y-1291714D01*
X6657857Y-1306000D01*
X6772143Y-1606000D02*
X6786428Y-1591714D01*
X6815000Y-1548857D01*
X6829286Y-1520286D01*
X6843571Y-1477428D01*
X6857857Y-1406000D01*
X6857857Y-1348857D01*
X6843571Y-1277429D01*
X6829286Y-1234571D01*
X6815000Y-1206000D01*
X6786428Y-1163143D01*
X6772143Y-1148857D01*
X-50000Y-1702000D02*
X-50000Y-1802000D01*
X-100000Y-1752000D02*
X0Y-1752000D01*
X443571Y-1887714D02*
X272143Y-1887714D01*
X357857Y-1887714D02*
X357857Y-1587714D01*
X329286Y-1630571D01*
X300714Y-1659143D01*
X272143Y-1673428D01*
X572143Y-1859143D02*
X586429Y-1873428D01*
X572143Y-1887714D01*
X557857Y-1873428D01*
X572143Y-1859143D01*
X572143Y-1887714D01*
X772143Y-1587714D02*
X800714Y-1587714D01*
X829286Y-1602000D01*
X843571Y-1616286D01*
X857857Y-1644857D01*
X872143Y-1702000D01*
X872143Y-1773428D01*
X857857Y-1830571D01*
X843571Y-1859143D01*
X829286Y-1873428D01*
X800714Y-1887714D01*
X772143Y-1887714D01*
X743571Y-1873428D01*
X729286Y-1859143D01*
X715000Y-1830571D01*
X700714Y-1773428D01*
X700714Y-1702000D01*
X715000Y-1644857D01*
X729286Y-1616286D01*
X743571Y-1602000D01*
X772143Y-1587714D01*
X1057857Y-1587714D02*
X1086429Y-1587714D01*
X1115000Y-1602000D01*
X1129286Y-1616286D01*
X1143571Y-1644857D01*
X1157857Y-1702000D01*
X1157857Y-1773428D01*
X1143571Y-1830571D01*
X1129286Y-1859143D01*
X1115000Y-1873428D01*
X1086429Y-1887714D01*
X1057857Y-1887714D01*
X1029286Y-1873428D01*
X1015000Y-1859143D01*
X1000714Y-1830571D01*
X986428Y-1773428D01*
X986428Y-1702000D01*
X1000714Y-1644857D01*
X1015000Y-1616286D01*
X1029286Y-1602000D01*
X1057857Y-1587714D01*
X1286429Y-1887714D02*
X1286429Y-1687714D01*
X1286429Y-1716286D02*
X1300714Y-1702000D01*
X1329286Y-1687714D01*
X1372143Y-1687714D01*
X1400714Y-1702000D01*
X1415000Y-1730571D01*
X1415000Y-1887714D01*
X1415000Y-1730571D02*
X1429286Y-1702000D01*
X1457857Y-1687714D01*
X1500714Y-1687714D01*
X1529286Y-1702000D01*
X1543571Y-1730571D01*
X1543571Y-1887714D01*
X1686428Y-1887714D02*
X1686428Y-1687714D01*
X1686428Y-1716286D02*
X1700714Y-1702000D01*
X1729286Y-1687714D01*
X1772143Y-1687714D01*
X1800714Y-1702000D01*
X1815000Y-1730571D01*
X1815000Y-1887714D01*
X1815000Y-1730571D02*
X1829286Y-1702000D01*
X1857857Y-1687714D01*
X1900714Y-1687714D01*
X1929286Y-1702000D01*
X1943571Y-1730571D01*
X1943571Y-1887714D01*
X2529286Y-1573428D02*
X2272143Y-1959143D01*
X2915000Y-1587714D02*
X2943571Y-1587714D01*
X2972143Y-1602000D01*
X2986428Y-1616286D01*
X3000714Y-1644857D01*
X3015000Y-1702000D01*
X3015000Y-1773428D01*
X3000714Y-1830571D01*
X2986428Y-1859143D01*
X2972143Y-1873428D01*
X2943571Y-1887714D01*
X2915000Y-1887714D01*
X2886428Y-1873428D01*
X2872143Y-1859143D01*
X2857857Y-1830571D01*
X2843571Y-1773428D01*
X2843571Y-1702000D01*
X2857857Y-1644857D01*
X2872143Y-1616286D01*
X2886428Y-1602000D01*
X2915000Y-1587714D01*
X3143571Y-1859143D02*
X3157857Y-1873428D01*
X3143571Y-1887714D01*
X3129286Y-1873428D01*
X3143571Y-1859143D01*
X3143571Y-1887714D01*
X3343571Y-1587714D02*
X3372143Y-1587714D01*
X3400714Y-1602000D01*
X3415000Y-1616286D01*
X3429286Y-1644857D01*
X3443571Y-1702000D01*
X3443571Y-1773428D01*
X3429286Y-1830571D01*
X3415000Y-1859143D01*
X3400714Y-1873428D01*
X3372143Y-1887714D01*
X3343571Y-1887714D01*
X3315000Y-1873428D01*
X3300714Y-1859143D01*
X3286428Y-1830571D01*
X3272143Y-1773428D01*
X3272143Y-1702000D01*
X3286428Y-1644857D01*
X3300714Y-1616286D01*
X3315000Y-1602000D01*
X3343571Y-1587714D01*
X3543571Y-1587714D02*
X3729286Y-1587714D01*
X3629286Y-1702000D01*
X3672143Y-1702000D01*
X3700714Y-1716286D01*
X3715000Y-1730571D01*
X3729286Y-1759143D01*
X3729286Y-1830571D01*
X3715000Y-1859143D01*
X3700714Y-1873428D01*
X3672143Y-1887714D01*
X3586428Y-1887714D01*
X3557857Y-1873428D01*
X3543571Y-1859143D01*
X3872143Y-1887714D02*
X3929286Y-1887714D01*
X3957857Y-1873428D01*
X3972143Y-1859143D01*
X4000714Y-1816286D01*
X4015000Y-1759143D01*
X4015000Y-1644857D01*
X4000714Y-1616286D01*
X3986428Y-1602000D01*
X3957857Y-1587714D01*
X3900714Y-1587714D01*
X3872143Y-1602000D01*
X3857857Y-1616286D01*
X3843571Y-1644857D01*
X3843571Y-1716286D01*
X3857857Y-1744857D01*
X3872143Y-1759143D01*
X3900714Y-1773428D01*
X3957857Y-1773428D01*
X3986428Y-1759143D01*
X4000714Y-1744857D01*
X4015000Y-1716286D01*
X4129286Y-1587714D02*
X4129286Y-1644857D01*
X4243571Y-1587714D02*
X4243571Y-1644857D01*
X4686429Y-2002000D02*
X4672143Y-1987714D01*
X4643571Y-1944857D01*
X4629286Y-1916286D01*
X4615000Y-1873428D01*
X4600714Y-1802000D01*
X4600714Y-1744857D01*
X4615000Y-1673428D01*
X4629286Y-1630571D01*
X4643571Y-1602000D01*
X4672143Y-1559143D01*
X4686429Y-1544857D01*
X4815000Y-1887714D02*
X4872143Y-1887714D01*
X4900714Y-1873428D01*
X4915000Y-1859143D01*
X4943571Y-1816286D01*
X4957857Y-1759143D01*
X4957857Y-1644857D01*
X4943571Y-1616286D01*
X4929286Y-1602000D01*
X4900714Y-1587714D01*
X4843571Y-1587714D01*
X4815000Y-1602000D01*
X4800714Y-1616286D01*
X4786429Y-1644857D01*
X4786429Y-1716286D01*
X4800714Y-1744857D01*
X4815000Y-1759143D01*
X4843571Y-1773428D01*
X4900714Y-1773428D01*
X4929286Y-1759143D01*
X4943571Y-1744857D01*
X4957857Y-1716286D01*
X5215000Y-1687714D02*
X5215000Y-1887714D01*
X5143571Y-1573428D02*
X5072143Y-1787714D01*
X5257857Y-1787714D01*
X5600714Y-1887714D02*
X5600714Y-1587714D01*
X5729286Y-1887714D02*
X5729286Y-1730571D01*
X5715000Y-1702000D01*
X5686428Y-1687714D01*
X5643571Y-1687714D01*
X5615000Y-1702000D01*
X5600714Y-1716286D01*
X5915000Y-1887714D02*
X5886428Y-1873428D01*
X5872143Y-1859143D01*
X5857857Y-1830571D01*
X5857857Y-1744857D01*
X5872143Y-1716286D01*
X5886428Y-1702000D01*
X5915000Y-1687714D01*
X5957857Y-1687714D01*
X5986428Y-1702000D01*
X6000714Y-1716286D01*
X6015000Y-1744857D01*
X6015000Y-1830571D01*
X6000714Y-1859143D01*
X5986428Y-1873428D01*
X5957857Y-1887714D01*
X5915000Y-1887714D01*
X6186428Y-1887714D02*
X6157857Y-1873428D01*
X6143571Y-1844857D01*
X6143571Y-1587714D01*
X6415000Y-1873428D02*
X6386428Y-1887714D01*
X6329286Y-1887714D01*
X6300714Y-1873428D01*
X6286428Y-1844857D01*
X6286428Y-1730571D01*
X6300714Y-1702000D01*
X6329286Y-1687714D01*
X6386428Y-1687714D01*
X6415000Y-1702000D01*
X6429286Y-1730571D01*
X6429286Y-1759143D01*
X6286428Y-1787714D01*
X6543571Y-1873428D02*
X6572143Y-1887714D01*
X6629286Y-1887714D01*
X6657857Y-1873428D01*
X6672143Y-1844857D01*
X6672143Y-1830571D01*
X6657857Y-1802000D01*
X6629286Y-1787714D01*
X6586428Y-1787714D01*
X6557857Y-1773428D01*
X6543571Y-1744857D01*
X6543571Y-1730571D01*
X6557857Y-1702000D01*
X6586428Y-1687714D01*
X6629286Y-1687714D01*
X6657857Y-1702000D01*
X6772143Y-2002000D02*
X6786428Y-1987714D01*
X6815000Y-1944857D01*
X6829286Y-1916286D01*
X6843571Y-1873428D01*
X6857857Y-1802000D01*
X6857857Y-1744857D01*
X6843571Y-1673428D01*
X6829286Y-1630571D01*
X6815000Y-1602000D01*
X6786428Y-1559143D01*
X6772143Y-1544857D01*
M02*
